<ttFont>
    <TTGlyph name=".notdef" xMin="100" yMin="0" xMax="658" yMax="531">
      <contour>
        <pt x="100" y="0" on="1"/>
        <pt x="100" y="531" on="1"/>
        <pt x="658" y="531" on="1"/>
        <pt x="658" y="0" on="1"/>
      </contour>
      <contour>
        <pt x="114" y="22" on="1"/>
        <pt x="370" y="266" on="1"/>
        <pt x="114" y="507" on="1"/>
      </contour>
      <contour>
        <pt x="124" y="518" on="1"/>
        <pt x="381" y="276" on="1"/>
        <pt x="635" y="518" on="1"/>
      </contour>
      <contour>
        <pt x="127" y="13" on="1"/>
        <pt x="634" y="13" on="1"/>
        <pt x="381" y="256" on="1"/>
      </contour>
      <contour>
        <pt x="392" y="266" on="1"/>
        <pt x="644" y="25" on="1"/>
        <pt x="644" y="506" on="1"/>
      </contour>
    </TTGlyph>
    <TTGlyph name="A" xMin="45" yMin="0" xMax="645" yMax="732">
      <contour>
        <pt x="45" y="0" on="1"/>
        <pt x="430" y="732" on="1"/>
        <pt x="504" y="732" on="1"/>
        <pt x="645" y="0" on="1"/>
        <pt x="570" y="0" on="1"/>
        <pt x="531" y="204" on="1"/>
        <pt x="234" y="204" on="1"/>
        <pt x="126" y="0" on="1"/>
      </contour>
      <contour>
        <pt x="273" y="278" on="1"/>
        <pt x="517" y="278" on="1"/>
        <pt x="454" y="628" on="1"/>
      </contour>
    </TTGlyph>
    <TTGlyph name="AE" xMin="30" yMin="-6" xMax="989" yMax="733">
      <contour>
        <pt x="622" y="733" on="1"/>
        <pt x="672" y="732" on="1"/>
        <pt x="989" y="716" on="1"/>
        <pt x="980" y="657" on="1"/>
        <pt x="660" y="657" on="1"/>
        <pt x="625" y="657" on="0"/>
        <pt x="615" y="640" on="1"/>
        <pt x="606" y="626" on="0"/>
        <pt x="602" y="604" on="1"/>
        <pt x="569" y="397" on="1"/>
        <pt x="897" y="387" on="1"/>
        <pt x="888" y="328" on="1"/>
        <pt x="556" y="318" on="1"/>
        <pt x="525" y="121" on="1"/>
        <pt x="519" y="83" on="0"/>
        <pt x="540" y="75" on="1"/>
        <pt x="555" y="69" on="0"/>
        <pt x="580" y="69" on="1"/>
        <pt x="887" y="69" on="1"/>
        <pt x="877" y="12" on="1"/>
        <pt x="567" y="-5" on="1"/>
        <pt x="562" y="-5" on="0"/>
        <pt x="558" y="-5" on="1"/>
        <pt x="509" y="-5" on="0"/>
        <pt x="449" y="48" on="0"/>
        <pt x="449" y="94" on="1"/>
        <pt x="449" y="106" on="0"/>
        <pt x="451" y="121" on="1"/>
        <pt x="467" y="230" on="1"/>
        <pt x="266" y="230" on="1"/>
        <pt x="115" y="0" on="1"/>
        <pt x="30" y="0" on="1"/>
        <pt x="424" y="604" on="1"/>
        <pt x="450" y="644" on="0"/>
        <pt x="504" y="698" on="0"/>
        <pt x="543" y="717" on="0"/>
        <pt x="552" y="722" on="1"/>
        <pt x="571" y="733" on="0"/>
      </contour>
      <contour>
        <pt x="313" y="304" on="1"/>
        <pt x="480" y="304" on="1"/>
        <pt x="536" y="640" on="1"/>
      </contour>
    </TTGlyph>
    <TTGlyph name="Aacute" xMin="45" yMin="0" xMax="666" yMax="930">
      <contour>
        <pt x="443" y="797" on="1"/>
        <pt x="571" y="930" on="1"/>
        <pt x="666" y="930" on="1"/>
        <pt x="512" y="797" on="1"/>
      </contour>
      <contour>
        <pt x="45" y="0" on="1"/>
        <pt x="430" y="732" on="1"/>
        <pt x="504" y="732" on="1"/>
        <pt x="645" y="0" on="1"/>
        <pt x="570" y="0" on="1"/>
        <pt x="531" y="204" on="1"/>
        <pt x="234" y="204" on="1"/>
        <pt x="126" y="0" on="1"/>
      </contour>
      <contour>
        <pt x="273" y="278" on="1"/>
        <pt x="517" y="278" on="1"/>
        <pt x="454" y="628" on="1"/>
      </contour>
    </TTGlyph>
    <TTGlyph name="Abreve" xMin="45" yMin="0" xMax="645" yMax="911">
      <contour>
        <pt x="428" y="911" on="1"/>
        <pt x="427" y="905" on="0"/>
        <pt x="427" y="876" on="0"/>
        <pt x="457" y="843" on="0"/>
        <pt x="483" y="843" on="1"/>
        <pt x="485" y="843" on="0"/>
        <pt x="486" y="843" on="1"/>
        <pt x="552" y="843" on="0"/>
        <pt x="563" y="911" on="1"/>
        <pt x="609" y="911" on="1"/>
        <pt x="594" y="797" on="0"/>
        <pt x="483" y="797" on="1"/>
        <pt x="440" y="797" on="0"/>
        <pt x="382" y="855" on="0"/>
        <pt x="382" y="899" on="1"/>
        <pt x="382" y="905" on="0"/>
        <pt x="382" y="911" on="1"/>
      </contour>
      <contour>
        <pt x="45" y="0" on="1"/>
        <pt x="430" y="732" on="1"/>
        <pt x="504" y="732" on="1"/>
        <pt x="645" y="0" on="1"/>
        <pt x="570" y="0" on="1"/>
        <pt x="531" y="204" on="1"/>
        <pt x="234" y="204" on="1"/>
        <pt x="126" y="0" on="1"/>
      </contour>
      <contour>
        <pt x="273" y="278" on="1"/>
        <pt x="517" y="278" on="1"/>
        <pt x="454" y="628" on="1"/>
      </contour>
    </TTGlyph>
    <TTGlyph name="Acircumflex" xMin="45" yMin="0" xMax="645" yMax="927">
      <contour>
        <pt x="331" y="797" on="1"/>
        <pt x="469" y="927" on="1"/>
        <pt x="540" y="927" on="1"/>
        <pt x="623" y="797" on="1"/>
        <pt x="558" y="797" on="1"/>
        <pt x="501" y="880" on="1"/>
        <pt x="411" y="797" on="1"/>
      </contour>
      <contour>
        <pt x="45" y="0" on="1"/>
        <pt x="430" y="732" on="1"/>
        <pt x="504" y="732" on="1"/>
        <pt x="645" y="0" on="1"/>
        <pt x="570" y="0" on="1"/>
        <pt x="531" y="204" on="1"/>
        <pt x="234" y="204" on="1"/>
        <pt x="126" y="0" on="1"/>
      </contour>
      <contour>
        <pt x="273" y="278" on="1"/>
        <pt x="517" y="278" on="1"/>
        <pt x="454" y="628" on="1"/>
      </contour>
    </TTGlyph>
    <TTGlyph name="Adieresis" xMin="45" yMin="0" xMax="665" yMax="898">
      <contour>
        <pt x="345" y="898" on="0"/>
        <pt x="387" y="898" on="0"/>
        <pt x="409" y="872" on="0"/>
        <pt x="409" y="852" on="0"/>
        <pt x="407" y="834" on="0"/>
        <pt x="398" y="822" on="1"/>
        <pt x="380" y="797" on="0"/>
        <pt x="330" y="797" on="0"/>
        <pt x="307" y="824" on="0"/>
        <pt x="307" y="834" on="1"/>
        <pt x="307" y="866" on="0"/>
      </contour>
      <contour>
        <pt x="600" y="898" on="0"/>
        <pt x="642" y="898" on="0"/>
        <pt x="664" y="872" on="0"/>
        <pt x="664" y="862" on="1"/>
        <pt x="664" y="830" on="0"/>
        <pt x="627" y="797" on="0"/>
        <pt x="585" y="797" on="0"/>
        <pt x="562" y="824" on="0"/>
        <pt x="562" y="834" on="1"/>
        <pt x="562" y="866" on="0"/>
      </contour>
      <contour>
        <pt x="45" y="0" on="1"/>
        <pt x="430" y="732" on="1"/>
        <pt x="504" y="732" on="1"/>
        <pt x="645" y="0" on="1"/>
        <pt x="570" y="0" on="1"/>
        <pt x="531" y="204" on="1"/>
        <pt x="234" y="204" on="1"/>
        <pt x="126" y="0" on="1"/>
      </contour>
      <contour>
        <pt x="273" y="278" on="1"/>
        <pt x="517" y="278" on="1"/>
        <pt x="454" y="628" on="1"/>
      </contour>
    </TTGlyph>
    <TTGlyph name="Agrave" xMin="45" yMin="0" xMax="645" yMax="930">
      <contour>
        <pt x="319" y="930" on="1"/>
        <pt x="406" y="930" on="1"/>
        <pt x="512" y="797" on="1"/>
        <pt x="443" y="797" on="1"/>
      </contour>
      <contour>
        <pt x="45" y="0" on="1"/>
        <pt x="430" y="732" on="1"/>
        <pt x="504" y="732" on="1"/>
        <pt x="645" y="0" on="1"/>
        <pt x="570" y="0" on="1"/>
        <pt x="531" y="204" on="1"/>
        <pt x="234" y="204" on="1"/>
        <pt x="126" y="0" on="1"/>
      </contour>
      <contour>
        <pt x="273" y="278" on="1"/>
        <pt x="517" y="278" on="1"/>
        <pt x="454" y="628" on="1"/>
      </contour>
    </TTGlyph>
    <TTGlyph name="Amacron" xMin="45" yMin="0" xMax="645" yMax="860">
      <contour>
        <pt x="331" y="797" on="1"/>
        <pt x="341" y="860" on="1"/>
        <pt x="633" y="860" on="1"/>
        <pt x="623" y="797" on="1"/>
      </contour>
      <contour>
        <pt x="45" y="0" on="1"/>
        <pt x="430" y="732" on="1"/>
        <pt x="504" y="732" on="1"/>
        <pt x="645" y="0" on="1"/>
        <pt x="570" y="0" on="1"/>
        <pt x="531" y="204" on="1"/>
        <pt x="234" y="204" on="1"/>
        <pt x="126" y="0" on="1"/>
      </contour>
      <contour>
        <pt x="273" y="278" on="1"/>
        <pt x="517" y="278" on="1"/>
        <pt x="454" y="628" on="1"/>
      </contour>
    </TTGlyph>
    <TTGlyph name="Aogonek" xMin="147" yMin="-183" xMax="747" yMax="732">
      <contour>
        <pt x="593" y="-109" on="1"/>
        <pt x="593" y="-40" on="0"/>
        <pt x="693" y="0" on="1"/>
        <pt x="732" y="0" on="1"/>
        <pt x="658" y="-54" on="0"/>
        <pt x="658" y="-91" on="1"/>
        <pt x="658" y="-121" on="0"/>
        <pt x="707" y="-121" on="1"/>
        <pt x="711" y="-121" on="0"/>
        <pt x="716" y="-121" on="1"/>
        <pt x="706" y="-181" on="1"/>
        <pt x="694" y="-183" on="0"/>
        <pt x="684" y="-183" on="1"/>
        <pt x="641" y="-183" on="0"/>
        <pt x="593" y="-136" on="0"/>
      </contour>
      <contour>
        <pt x="147" y="0" on="1"/>
        <pt x="532" y="732" on="1"/>
        <pt x="606" y="732" on="1"/>
        <pt x="747" y="0" on="1"/>
        <pt x="672" y="0" on="1"/>
        <pt x="633" y="204" on="1"/>
        <pt x="336" y="204" on="1"/>
        <pt x="228" y="0" on="1"/>
      </contour>
      <contour>
        <pt x="375" y="278" on="1"/>
        <pt x="619" y="278" on="1"/>
        <pt x="556" y="628" on="1"/>
      </contour>
    </TTGlyph>
    <TTGlyph name="Aring" xMin="45" yMin="0" xMax="645" yMax="936">
      <contour>
        <pt x="536" y="935" on="0"/>
        <pt x="452" y="935" on="0"/>
        <pt x="382" y="871" on="0"/>
        <pt x="382" y="822" on="1"/>
        <pt x="382" y="786" on="0"/>
        <pt x="434" y="730" on="0"/>
        <pt x="518" y="730" on="0"/>
        <pt x="586" y="793" on="0"/>
        <pt x="586" y="842" on="1"/>
        <pt x="586" y="879" on="0"/>
      </contour>
      <contour>
        <pt x="465" y="778" on="0"/>
        <pt x="441" y="793" on="0"/>
        <pt x="429" y="817" on="0"/>
        <pt x="432" y="855" on="0"/>
        <pt x="467" y="887" on="0"/>
        <pt x="512" y="887" on="0"/>
        <pt x="539" y="857" on="0"/>
        <pt x="539" y="812" on="0"/>
        <pt x="520" y="794" on="1"/>
        <pt x="503" y="778" on="0"/>
      </contour>
      <contour>
        <pt x="45" y="0" on="1"/>
        <pt x="430" y="732" on="1"/>
        <pt x="504" y="732" on="1"/>
        <pt x="645" y="0" on="1"/>
        <pt x="570" y="0" on="1"/>
        <pt x="531" y="204" on="1"/>
        <pt x="234" y="204" on="1"/>
        <pt x="126" y="0" on="1"/>
      </contour>
      <contour>
        <pt x="273" y="278" on="1"/>
        <pt x="517" y="278" on="1"/>
        <pt x="454" y="628" on="1"/>
      </contour>
    </TTGlyph>
    <TTGlyph name="Atilde" xMin="45" yMin="0" xMax="658" yMax="902">
      <contour>
        <pt x="502" y="884" on="0"/>
        <pt x="531" y="868" on="0"/>
        <pt x="543" y="868" on="0"/>
        <pt x="554" y="868" on="0"/>
        <pt x="578" y="876" on="1"/>
        <pt x="627" y="892" on="0"/>
        <pt x="642" y="902" on="1"/>
        <pt x="657" y="860" on="1"/>
        <pt x="648" y="854" on="0"/>
        <pt x="627" y="839" on="1"/>
        <pt x="566" y="798" on="0"/>
        <pt x="533" y="798" on="1"/>
        <pt x="497" y="798" on="0"/>
        <pt x="473" y="816" on="1"/>
        <pt x="429" y="848" on="0"/>
        <pt x="357" y="811" on="1"/>
        <pt x="335" y="800" on="0"/>
        <pt x="329" y="797" on="1"/>
        <pt x="314" y="838" on="1"/>
        <pt x="344" y="860" on="0"/>
        <pt x="360" y="870" on="1"/>
        <pt x="407" y="902" on="0"/>
        <pt x="464" y="901" on="0"/>
      </contour>
      <contour>
        <pt x="45" y="0" on="1"/>
        <pt x="430" y="732" on="1"/>
        <pt x="504" y="732" on="1"/>
        <pt x="645" y="0" on="1"/>
        <pt x="570" y="0" on="1"/>
        <pt x="531" y="204" on="1"/>
        <pt x="234" y="204" on="1"/>
        <pt x="126" y="0" on="1"/>
      </contour>
      <contour>
        <pt x="273" y="278" on="1"/>
        <pt x="517" y="278" on="1"/>
        <pt x="454" y="628" on="1"/>
      </contour>
    </TTGlyph>
    <TTGlyph name="B" xMin="80" yMin="0" xMax="642" yMax="732">
      <contour>
        <pt x="479" y="732" on="1"/>
        <pt x="531" y="732" on="0"/>
        <pt x="567" y="714" on="1"/>
        <pt x="642" y="677" on="0"/>
        <pt x="642" y="569" on="1"/>
        <pt x="642" y="555" on="0"/>
        <pt x="640" y="539" on="1"/>
        <pt x="624" y="409" on="0"/>
        <pt x="521" y="380" on="1"/>
        <pt x="549" y="375" on="0"/>
        <pt x="592" y="291" on="0"/>
        <pt x="592" y="240" on="1"/>
        <pt x="592" y="221" on="0"/>
        <pt x="590" y="201" on="1"/>
        <pt x="565" y="0" on="0"/>
        <pt x="363" y="0" on="1"/>
        <pt x="80" y="0" on="1"/>
        <pt x="196" y="732" on="1"/>
      </contour>
      <contour>
        <pt x="375" y="74" on="1"/>
        <pt x="494" y="74" on="0"/>
        <pt x="515" y="206" on="1"/>
        <pt x="518" y="224" on="0"/>
        <pt x="518" y="278" on="0"/>
        <pt x="501" y="306" on="1"/>
        <pt x="477" y="347" on="0"/>
        <pt x="418" y="347" on="1"/>
        <pt x="210" y="347" on="1"/>
        <pt x="167" y="74" on="1"/>
      </contour>
      <contour>
        <pt x="430" y="421" on="1"/>
        <pt x="546" y="421" on="0"/>
        <pt x="565" y="542" on="1"/>
        <pt x="568" y="561" on="0"/>
        <pt x="568" y="576" on="1"/>
        <pt x="568" y="616" on="0"/>
        <pt x="524" y="658" on="0"/>
        <pt x="469" y="658" on="1"/>
        <pt x="260" y="658" on="1"/>
        <pt x="222" y="421" on="1"/>
      </contour>
    </TTGlyph>
    <TTGlyph name="C" xMin="104" yMin="-6" xMax="656" yMax="740">
      <contour>
        <pt x="239" y="692" on="0"/>
        <pt x="343" y="740" on="0"/>
        <pt x="499" y="740" on="0"/>
        <pt x="656" y="710" on="1"/>
        <pt x="647" y="651" on="1"/>
        <pt x="533" y="666" on="0"/>
        <pt x="431" y="666" on="1"/>
        <pt x="392" y="666" on="0"/>
        <pt x="371" y="665" on="0"/>
        <pt x="326" y="654" on="0"/>
        <pt x="299" y="633" on="0"/>
        <pt x="257" y="589" on="0"/>
        <pt x="243" y="558" on="1"/>
        <pt x="207" y="480" on="0"/>
        <pt x="179" y="304" on="0"/>
        <pt x="179" y="235" on="0"/>
        <pt x="180" y="218" on="1"/>
        <pt x="185" y="154" on="0"/>
        <pt x="249" y="72" on="0"/>
        <pt x="306" y="68" on="1"/>
        <pt x="326" y="67" on="0"/>
        <pt x="428" y="67" on="0"/>
        <pt x="559" y="76" on="1"/>
        <pt x="551" y="17" on="1"/>
        <pt x="466" y="-6" on="0"/>
        <pt x="302" y="-6" on="1"/>
        <pt x="247" y="-6" on="0"/>
        <pt x="168" y="40" on="0"/>
        <pt x="146" y="76" on="1"/>
        <pt x="105" y="147" on="0"/>
        <pt x="105" y="255" on="1"/>
        <pt x="105" y="307" on="0"/>
        <pt x="131" y="462" on="0"/>
        <pt x="171" y="590" on="0"/>
      </contour>
    </TTGlyph>
    <TTGlyph name="Cacute" xMin="104" yMin="-6" xMax="656" yMax="933">
      <contour>
        <pt x="409" y="800" on="1"/>
        <pt x="537" y="933" on="1"/>
        <pt x="632" y="933" on="1"/>
        <pt x="478" y="800" on="1"/>
      </contour>
      <contour>
        <pt x="239" y="692" on="0"/>
        <pt x="343" y="740" on="0"/>
        <pt x="499" y="740" on="0"/>
        <pt x="656" y="710" on="1"/>
        <pt x="647" y="651" on="1"/>
        <pt x="533" y="666" on="0"/>
        <pt x="431" y="666" on="1"/>
        <pt x="392" y="666" on="0"/>
        <pt x="371" y="665" on="0"/>
        <pt x="326" y="654" on="0"/>
        <pt x="299" y="633" on="0"/>
        <pt x="257" y="589" on="0"/>
        <pt x="243" y="558" on="1"/>
        <pt x="207" y="480" on="0"/>
        <pt x="179" y="304" on="0"/>
        <pt x="179" y="235" on="0"/>
        <pt x="180" y="218" on="1"/>
        <pt x="185" y="154" on="0"/>
        <pt x="249" y="72" on="0"/>
        <pt x="306" y="68" on="1"/>
        <pt x="326" y="67" on="0"/>
        <pt x="428" y="67" on="0"/>
        <pt x="559" y="76" on="1"/>
        <pt x="551" y="17" on="1"/>
        <pt x="466" y="-6" on="0"/>
        <pt x="302" y="-6" on="1"/>
        <pt x="247" y="-6" on="0"/>
        <pt x="168" y="40" on="0"/>
        <pt x="146" y="76" on="1"/>
        <pt x="105" y="147" on="0"/>
        <pt x="105" y="255" on="1"/>
        <pt x="105" y="307" on="0"/>
        <pt x="131" y="462" on="0"/>
        <pt x="171" y="590" on="0"/>
      </contour>
    </TTGlyph>
    <TTGlyph name="Ccaron" xMin="104" yMin="-6" xMax="656" yMax="930">
      <contour>
        <pt x="327" y="930" on="1"/>
        <pt x="392" y="930" on="1"/>
        <pt x="449" y="847" on="1"/>
        <pt x="539" y="930" on="1"/>
        <pt x="619" y="930" on="1"/>
        <pt x="481" y="800" on="1"/>
        <pt x="410" y="800" on="1"/>
      </contour>
      <contour>
        <pt x="239" y="692" on="0"/>
        <pt x="343" y="740" on="0"/>
        <pt x="499" y="740" on="0"/>
        <pt x="656" y="710" on="1"/>
        <pt x="647" y="651" on="1"/>
        <pt x="533" y="666" on="0"/>
        <pt x="431" y="666" on="1"/>
        <pt x="392" y="666" on="0"/>
        <pt x="371" y="665" on="0"/>
        <pt x="326" y="654" on="0"/>
        <pt x="299" y="633" on="0"/>
        <pt x="257" y="589" on="0"/>
        <pt x="243" y="558" on="1"/>
        <pt x="207" y="480" on="0"/>
        <pt x="179" y="304" on="0"/>
        <pt x="179" y="235" on="0"/>
        <pt x="180" y="218" on="1"/>
        <pt x="185" y="154" on="0"/>
        <pt x="249" y="72" on="0"/>
        <pt x="306" y="68" on="1"/>
        <pt x="326" y="67" on="0"/>
        <pt x="428" y="67" on="0"/>
        <pt x="559" y="76" on="1"/>
        <pt x="551" y="17" on="1"/>
        <pt x="466" y="-6" on="0"/>
        <pt x="302" y="-6" on="1"/>
        <pt x="247" y="-6" on="0"/>
        <pt x="168" y="40" on="0"/>
        <pt x="146" y="76" on="1"/>
        <pt x="105" y="147" on="0"/>
        <pt x="105" y="255" on="1"/>
        <pt x="105" y="307" on="0"/>
        <pt x="131" y="462" on="0"/>
        <pt x="171" y="590" on="0"/>
      </contour>
    </TTGlyph>
    <TTGlyph name="Ccedilla" xMin="104" yMin="-173" xMax="656" yMax="740">
      <contour>
        <pt x="239" y="692" on="0"/>
        <pt x="343" y="740" on="0"/>
        <pt x="499" y="740" on="0"/>
        <pt x="656" y="710" on="1"/>
        <pt x="647" y="651" on="1"/>
        <pt x="533" y="666" on="0"/>
        <pt x="431" y="666" on="1"/>
        <pt x="358" y="666" on="0"/>
        <pt x="328" y="651" on="0"/>
        <pt x="293" y="630" on="0"/>
        <pt x="272" y="602" on="0"/>
        <pt x="241" y="556" on="0"/>
        <pt x="230" y="526" on="1"/>
        <pt x="206" y="457" on="0"/>
        <pt x="181" y="303" on="0"/>
        <pt x="181" y="234" on="0"/>
        <pt x="182" y="218" on="1"/>
        <pt x="186" y="154" on="0"/>
        <pt x="249" y="72" on="0"/>
        <pt x="306" y="68" on="1"/>
        <pt x="326" y="67" on="0"/>
        <pt x="428" y="67" on="0"/>
        <pt x="559" y="76" on="1"/>
        <pt x="551" y="17" on="1"/>
        <pt x="466" y="-6" on="0"/>
        <pt x="302" y="-6" on="1"/>
        <pt x="247" y="-6" on="0"/>
        <pt x="168" y="40" on="0"/>
        <pt x="146" y="76" on="1"/>
        <pt x="105" y="147" on="0"/>
        <pt x="105" y="255" on="1"/>
        <pt x="105" y="307" on="0"/>
        <pt x="131" y="462" on="0"/>
        <pt x="171" y="590" on="0"/>
      </contour>
      <contour>
        <pt x="240" y="-173" on="1"/>
        <pt x="189" y="-173" on="1"/>
        <pt x="195" y="-136" on="1"/>
        <pt x="250" y="-121" on="1"/>
        <pt x="284" y="-112" on="0"/>
        <pt x="296" y="-37" on="1"/>
        <pt x="363" y="-37" on="1"/>
        <pt x="351" y="-115" on="0"/>
        <pt x="299" y="-173" on="0"/>
      </contour>
    </TTGlyph>
    <TTGlyph name="Ccircumflex" xMin="104" yMin="-6" xMax="656" yMax="930">
      <contour>
        <pt x="300" y="800" on="1"/>
        <pt x="438" y="930" on="1"/>
        <pt x="509" y="930" on="1"/>
        <pt x="592" y="800" on="1"/>
        <pt x="527" y="800" on="1"/>
        <pt x="470" y="883" on="1"/>
        <pt x="380" y="800" on="1"/>
      </contour>
      <contour>
        <pt x="239" y="692" on="0"/>
        <pt x="343" y="740" on="0"/>
        <pt x="499" y="740" on="0"/>
        <pt x="656" y="710" on="1"/>
        <pt x="647" y="651" on="1"/>
        <pt x="533" y="666" on="0"/>
        <pt x="431" y="666" on="1"/>
        <pt x="392" y="666" on="0"/>
        <pt x="371" y="665" on="0"/>
        <pt x="326" y="654" on="0"/>
        <pt x="299" y="633" on="0"/>
        <pt x="257" y="589" on="0"/>
        <pt x="243" y="558" on="1"/>
        <pt x="207" y="480" on="0"/>
        <pt x="179" y="304" on="0"/>
        <pt x="179" y="235" on="0"/>
        <pt x="180" y="218" on="1"/>
        <pt x="185" y="154" on="0"/>
        <pt x="249" y="72" on="0"/>
        <pt x="306" y="68" on="1"/>
        <pt x="326" y="67" on="0"/>
        <pt x="428" y="67" on="0"/>
        <pt x="559" y="76" on="1"/>
        <pt x="551" y="17" on="1"/>
        <pt x="466" y="-6" on="0"/>
        <pt x="302" y="-6" on="1"/>
        <pt x="247" y="-6" on="0"/>
        <pt x="168" y="40" on="0"/>
        <pt x="146" y="76" on="1"/>
        <pt x="105" y="147" on="0"/>
        <pt x="105" y="255" on="1"/>
        <pt x="105" y="307" on="0"/>
        <pt x="131" y="462" on="0"/>
        <pt x="171" y="590" on="0"/>
      </contour>
    </TTGlyph>
    <TTGlyph name="Cdotaccent" xMin="104" yMin="-6" xMax="656" yMax="902">
      <contour>
        <pt x="418" y="902" on="1"/>
        <pt x="468" y="902" on="1"/>
        <pt x="490" y="902" on="0"/>
        <pt x="487" y="877" on="1"/>
        <pt x="478" y="823" on="1"/>
        <pt x="475" y="800" on="0"/>
        <pt x="452" y="800" on="1"/>
        <pt x="402" y="800" on="1"/>
        <pt x="391" y="800" on="0"/>
        <pt x="379" y="813" on="0"/>
        <pt x="381" y="823" on="1"/>
        <pt x="390" y="877" on="1"/>
        <pt x="393" y="902" on="0"/>
      </contour>
      <contour>
        <pt x="239" y="692" on="0"/>
        <pt x="343" y="740" on="0"/>
        <pt x="499" y="740" on="0"/>
        <pt x="656" y="710" on="1"/>
        <pt x="647" y="651" on="1"/>
        <pt x="533" y="666" on="0"/>
        <pt x="431" y="666" on="1"/>
        <pt x="392" y="666" on="0"/>
        <pt x="371" y="665" on="0"/>
        <pt x="326" y="654" on="0"/>
        <pt x="299" y="633" on="0"/>
        <pt x="257" y="589" on="0"/>
        <pt x="243" y="558" on="1"/>
        <pt x="207" y="480" on="0"/>
        <pt x="179" y="304" on="0"/>
        <pt x="179" y="235" on="0"/>
        <pt x="180" y="218" on="1"/>
        <pt x="185" y="154" on="0"/>
        <pt x="249" y="72" on="0"/>
        <pt x="306" y="68" on="1"/>
        <pt x="326" y="67" on="0"/>
        <pt x="428" y="67" on="0"/>
        <pt x="559" y="76" on="1"/>
        <pt x="551" y="17" on="1"/>
        <pt x="466" y="-6" on="0"/>
        <pt x="302" y="-6" on="1"/>
        <pt x="247" y="-6" on="0"/>
        <pt x="168" y="40" on="0"/>
        <pt x="146" y="76" on="1"/>
        <pt x="105" y="147" on="0"/>
        <pt x="105" y="255" on="1"/>
        <pt x="105" y="307" on="0"/>
        <pt x="131" y="462" on="0"/>
        <pt x="171" y="590" on="0"/>
      </contour>
    </TTGlyph>
    <TTGlyph name="D" xMin="80" yMin="0" xMax="681" yMax="732">
      <contour>
        <pt x="469" y="732" on="1"/>
        <pt x="533" y="732" on="0"/>
        <pt x="623" y="678" on="0"/>
        <pt x="644" y="638" on="1"/>
        <pt x="681" y="568" on="0"/>
        <pt x="681" y="462" on="1"/>
        <pt x="681" y="414" on="0"/>
        <pt x="671" y="363" on="1"/>
        <pt x="608" y="0" on="0"/>
        <pt x="353" y="0" on="1"/>
        <pt x="80" y="0" on="1"/>
        <pt x="196" y="731" on="1"/>
        <pt x="196" y="732" on="0"/>
      </contour>
      <contour>
        <pt x="365" y="77" on="1"/>
        <pt x="457" y="77" on="0"/>
        <pt x="577" y="242" on="0"/>
        <pt x="597" y="364" on="1"/>
        <pt x="607" y="426" on="0"/>
        <pt x="607" y="544" on="0"/>
        <pt x="586" y="586" on="1"/>
        <pt x="552" y="658" on="0"/>
        <pt x="457" y="658" on="1"/>
        <pt x="258" y="658" on="1"/>
        <pt x="166" y="77" on="1"/>
      </contour>
    </TTGlyph>
    <TTGlyph name="Dcaron" xMin="96" yMin="0" xMax="697" yMax="922">
      <contour>
        <pt x="340" y="922" on="1"/>
        <pt x="405" y="922" on="1"/>
        <pt x="462" y="839" on="1"/>
        <pt x="552" y="922" on="1"/>
        <pt x="632" y="922" on="1"/>
        <pt x="494" y="792" on="1"/>
        <pt x="423" y="792" on="1"/>
      </contour>
      <contour>
        <pt x="485" y="732" on="1"/>
        <pt x="549" y="732" on="0"/>
        <pt x="639" y="678" on="0"/>
        <pt x="660" y="638" on="1"/>
        <pt x="697" y="568" on="0"/>
        <pt x="697" y="462" on="1"/>
        <pt x="697" y="414" on="0"/>
        <pt x="687" y="363" on="1"/>
        <pt x="624" y="0" on="0"/>
        <pt x="369" y="0" on="1"/>
        <pt x="96" y="0" on="1"/>
        <pt x="212" y="731" on="1"/>
        <pt x="212" y="732" on="0"/>
      </contour>
      <contour>
        <pt x="381" y="77" on="1"/>
        <pt x="473" y="77" on="0"/>
        <pt x="593" y="242" on="0"/>
        <pt x="613" y="364" on="1"/>
        <pt x="623" y="426" on="0"/>
        <pt x="623" y="544" on="0"/>
        <pt x="602" y="586" on="1"/>
        <pt x="568" y="658" on="0"/>
        <pt x="473" y="658" on="1"/>
        <pt x="274" y="658" on="1"/>
        <pt x="182" y="77" on="1"/>
      </contour>
    </TTGlyph>
    <TTGlyph name="Dcroat" xMin="93" yMin="0" xMax="705" yMax="732">
      <contour>
        <pt x="492" y="732" on="1"/>
        <pt x="556" y="732" on="0"/>
        <pt x="646" y="678" on="0"/>
        <pt x="668" y="638" on="1"/>
        <pt x="705" y="569" on="0"/>
        <pt x="705" y="462" on="1"/>
        <pt x="705" y="414" on="0"/>
        <pt x="695" y="363" on="1"/>
        <pt x="632" y="0" on="0"/>
        <pt x="376" y="0" on="1"/>
        <pt x="103" y="0" on="1"/>
        <pt x="158" y="346" on="1"/>
        <pt x="93" y="346" on="1"/>
        <pt x="102" y="400" on="1"/>
        <pt x="167" y="400" on="1"/>
        <pt x="219" y="731" on="1"/>
        <pt x="219" y="732" on="0"/>
      </contour>
      <contour>
        <pt x="388" y="77" on="1"/>
        <pt x="480" y="77" on="0"/>
        <pt x="600" y="242" on="0"/>
        <pt x="620" y="364" on="1"/>
        <pt x="630" y="426" on="0"/>
        <pt x="630" y="544" on="0"/>
        <pt x="610" y="586" on="1"/>
        <pt x="575" y="658" on="0"/>
        <pt x="480" y="658" on="1"/>
        <pt x="281" y="658" on="1"/>
        <pt x="241" y="400" on="1"/>
        <pt x="380" y="400" on="1"/>
        <pt x="371" y="346" on="1"/>
        <pt x="232" y="346" on="1"/>
        <pt x="189" y="77" on="1"/>
      </contour>
    </TTGlyph>
    <TTGlyph name="E" xMin="95" yMin="-4" xMax="635" yMax="733">
      <contour>
        <pt x="309" y="732" on="1"/>
        <pt x="315" y="732" on="0"/>
        <pt x="321" y="732" on="1"/>
        <pt x="635" y="716" on="1"/>
        <pt x="626" y="658" on="1"/>
        <pt x="309" y="658" on="1"/>
        <pt x="277" y="658" on="0"/>
        <pt x="252" y="628" on="0"/>
        <pt x="248" y="602" on="1"/>
        <pt x="216" y="402" on="1"/>
        <pt x="544" y="392" on="1"/>
        <pt x="534" y="333" on="1"/>
        <pt x="204" y="323" on="1"/>
        <pt x="172" y="123" on="1"/>
        <pt x="168" y="84" on="0"/>
        <pt x="186" y="77" on="1"/>
        <pt x="202" y="71" on="0"/>
        <pt x="227" y="71" on="1"/>
        <pt x="534" y="71" on="1"/>
        <pt x="524" y="14" on="1"/>
        <pt x="214" y="-3" on="1"/>
        <pt x="209" y="-3" on="0"/>
        <pt x="205" y="-3" on="1"/>
        <pt x="156" y="-3" on="0"/>
        <pt x="96" y="50" on="0"/>
        <pt x="96" y="96" on="1"/>
        <pt x="96" y="108" on="0"/>
        <pt x="98" y="123" on="1"/>
        <pt x="174" y="602" on="1"/>
        <pt x="195" y="732" on="0"/>
      </contour>
    </TTGlyph>
    <TTGlyph name="Eacute" xMin="95" yMin="-4" xMax="635" yMax="925">
      <contour>
        <pt x="398" y="792" on="1"/>
        <pt x="526" y="925" on="1"/>
        <pt x="621" y="925" on="1"/>
        <pt x="467" y="792" on="1"/>
      </contour>
      <contour>
        <pt x="309" y="732" on="1"/>
        <pt x="315" y="732" on="0"/>
        <pt x="321" y="732" on="1"/>
        <pt x="635" y="716" on="1"/>
        <pt x="626" y="658" on="1"/>
        <pt x="309" y="658" on="1"/>
        <pt x="277" y="658" on="0"/>
        <pt x="252" y="628" on="0"/>
        <pt x="248" y="602" on="1"/>
        <pt x="216" y="402" on="1"/>
        <pt x="544" y="392" on="1"/>
        <pt x="534" y="333" on="1"/>
        <pt x="204" y="323" on="1"/>
        <pt x="172" y="123" on="1"/>
        <pt x="168" y="84" on="0"/>
        <pt x="186" y="77" on="1"/>
        <pt x="202" y="71" on="0"/>
        <pt x="227" y="71" on="1"/>
        <pt x="534" y="71" on="1"/>
        <pt x="524" y="14" on="1"/>
        <pt x="214" y="-3" on="1"/>
        <pt x="209" y="-3" on="0"/>
        <pt x="205" y="-3" on="1"/>
        <pt x="156" y="-3" on="0"/>
        <pt x="96" y="50" on="0"/>
        <pt x="96" y="96" on="1"/>
        <pt x="96" y="108" on="0"/>
        <pt x="98" y="123" on="1"/>
        <pt x="174" y="602" on="1"/>
        <pt x="195" y="732" on="0"/>
      </contour>
    </TTGlyph>
    <TTGlyph name="Ecaron" xMin="95" yMin="-4" xMax="635" yMax="927">
      <contour>
        <pt x="328" y="927" on="1"/>
        <pt x="393" y="927" on="1"/>
        <pt x="450" y="844" on="1"/>
        <pt x="540" y="927" on="1"/>
        <pt x="620" y="927" on="1"/>
        <pt x="482" y="797" on="1"/>
        <pt x="411" y="797" on="1"/>
      </contour>
      <contour>
        <pt x="309" y="732" on="1"/>
        <pt x="315" y="732" on="0"/>
        <pt x="321" y="732" on="1"/>
        <pt x="635" y="716" on="1"/>
        <pt x="626" y="658" on="1"/>
        <pt x="309" y="658" on="1"/>
        <pt x="277" y="658" on="0"/>
        <pt x="252" y="628" on="0"/>
        <pt x="248" y="602" on="1"/>
        <pt x="216" y="402" on="1"/>
        <pt x="544" y="392" on="1"/>
        <pt x="534" y="333" on="1"/>
        <pt x="204" y="323" on="1"/>
        <pt x="172" y="123" on="1"/>
        <pt x="168" y="84" on="0"/>
        <pt x="186" y="77" on="1"/>
        <pt x="202" y="71" on="0"/>
        <pt x="227" y="71" on="1"/>
        <pt x="534" y="71" on="1"/>
        <pt x="524" y="14" on="1"/>
        <pt x="214" y="-3" on="1"/>
        <pt x="209" y="-3" on="0"/>
        <pt x="205" y="-3" on="1"/>
        <pt x="156" y="-3" on="0"/>
        <pt x="96" y="50" on="0"/>
        <pt x="96" y="96" on="1"/>
        <pt x="96" y="108" on="0"/>
        <pt x="98" y="123" on="1"/>
        <pt x="174" y="602" on="1"/>
        <pt x="195" y="732" on="0"/>
      </contour>
    </TTGlyph>
    <TTGlyph name="Ecircumflex" xMin="95" yMin="-4" xMax="635" yMax="923">
      <contour>
        <pt x="285" y="792" on="1"/>
        <pt x="423" y="923" on="1"/>
        <pt x="494" y="923" on="1"/>
        <pt x="577" y="792" on="1"/>
        <pt x="508" y="792" on="1"/>
        <pt x="456" y="872" on="1"/>
        <pt x="369" y="792" on="1"/>
      </contour>
      <contour>
        <pt x="309" y="732" on="1"/>
        <pt x="315" y="732" on="0"/>
        <pt x="321" y="732" on="1"/>
        <pt x="635" y="716" on="1"/>
        <pt x="626" y="658" on="1"/>
        <pt x="309" y="658" on="1"/>
        <pt x="277" y="658" on="0"/>
        <pt x="252" y="628" on="0"/>
        <pt x="248" y="602" on="1"/>
        <pt x="216" y="402" on="1"/>
        <pt x="544" y="392" on="1"/>
        <pt x="534" y="333" on="1"/>
        <pt x="204" y="323" on="1"/>
        <pt x="172" y="123" on="1"/>
        <pt x="168" y="84" on="0"/>
        <pt x="186" y="77" on="1"/>
        <pt x="202" y="71" on="0"/>
        <pt x="227" y="71" on="1"/>
        <pt x="534" y="71" on="1"/>
        <pt x="524" y="14" on="1"/>
        <pt x="214" y="-3" on="1"/>
        <pt x="209" y="-3" on="0"/>
        <pt x="205" y="-3" on="1"/>
        <pt x="156" y="-3" on="0"/>
        <pt x="96" y="50" on="0"/>
        <pt x="96" y="96" on="1"/>
        <pt x="96" y="108" on="0"/>
        <pt x="98" y="123" on="1"/>
        <pt x="174" y="602" on="1"/>
        <pt x="195" y="732" on="0"/>
      </contour>
    </TTGlyph>
    <TTGlyph name="Edieresis" xMin="95" yMin="-4" xMax="635" yMax="893">
      <contour>
        <pt x="292" y="893" on="0"/>
        <pt x="334" y="893" on="0"/>
        <pt x="356" y="867" on="0"/>
        <pt x="356" y="857" on="1"/>
        <pt x="356" y="825" on="0"/>
        <pt x="318" y="792" on="0"/>
        <pt x="276" y="792" on="0"/>
        <pt x="253" y="819" on="0"/>
        <pt x="253" y="829" on="1"/>
        <pt x="253" y="861" on="0"/>
      </contour>
      <contour>
        <pt x="547" y="893" on="0"/>
        <pt x="589" y="893" on="0"/>
        <pt x="611" y="867" on="0"/>
        <pt x="611" y="857" on="1"/>
        <pt x="611" y="825" on="0"/>
        <pt x="573" y="792" on="0"/>
        <pt x="531" y="792" on="0"/>
        <pt x="508" y="819" on="0"/>
        <pt x="508" y="829" on="1"/>
        <pt x="508" y="861" on="0"/>
      </contour>
      <contour>
        <pt x="309" y="732" on="1"/>
        <pt x="315" y="732" on="0"/>
        <pt x="321" y="732" on="1"/>
        <pt x="635" y="716" on="1"/>
        <pt x="626" y="658" on="1"/>
        <pt x="309" y="658" on="1"/>
        <pt x="277" y="658" on="0"/>
        <pt x="252" y="628" on="0"/>
        <pt x="248" y="602" on="1"/>
        <pt x="216" y="402" on="1"/>
        <pt x="544" y="392" on="1"/>
        <pt x="534" y="333" on="1"/>
        <pt x="204" y="323" on="1"/>
        <pt x="172" y="123" on="1"/>
        <pt x="168" y="84" on="0"/>
        <pt x="186" y="77" on="1"/>
        <pt x="202" y="71" on="0"/>
        <pt x="227" y="71" on="1"/>
        <pt x="534" y="71" on="1"/>
        <pt x="524" y="14" on="1"/>
        <pt x="214" y="-3" on="1"/>
        <pt x="209" y="-3" on="0"/>
        <pt x="205" y="-3" on="1"/>
        <pt x="156" y="-3" on="0"/>
        <pt x="96" y="50" on="0"/>
        <pt x="96" y="96" on="1"/>
        <pt x="96" y="108" on="0"/>
        <pt x="98" y="123" on="1"/>
        <pt x="174" y="602" on="1"/>
        <pt x="195" y="732" on="0"/>
      </contour>
    </TTGlyph>
    <TTGlyph name="Edotaccent" xMin="95" yMin="-4" xMax="635" yMax="899">
      <contour>
        <pt x="432" y="899" on="1"/>
        <pt x="482" y="899" on="1"/>
        <pt x="505" y="899" on="0"/>
        <pt x="501" y="874" on="1"/>
        <pt x="492" y="820" on="1"/>
        <pt x="489" y="797" on="0"/>
        <pt x="466" y="797" on="1"/>
        <pt x="416" y="797" on="1"/>
        <pt x="406" y="797" on="0"/>
        <pt x="394" y="810" on="0"/>
        <pt x="395" y="820" on="1"/>
        <pt x="404" y="874" on="1"/>
        <pt x="408" y="899" on="0"/>
      </contour>
      <contour>
        <pt x="309" y="732" on="1"/>
        <pt x="315" y="732" on="0"/>
        <pt x="321" y="732" on="1"/>
        <pt x="635" y="716" on="1"/>
        <pt x="626" y="658" on="1"/>
        <pt x="309" y="658" on="1"/>
        <pt x="277" y="658" on="0"/>
        <pt x="252" y="628" on="0"/>
        <pt x="248" y="602" on="1"/>
        <pt x="216" y="402" on="1"/>
        <pt x="544" y="392" on="1"/>
        <pt x="534" y="333" on="1"/>
        <pt x="204" y="323" on="1"/>
        <pt x="172" y="123" on="1"/>
        <pt x="168" y="84" on="0"/>
        <pt x="186" y="77" on="1"/>
        <pt x="202" y="71" on="0"/>
        <pt x="227" y="71" on="1"/>
        <pt x="534" y="71" on="1"/>
        <pt x="524" y="14" on="1"/>
        <pt x="214" y="-3" on="1"/>
        <pt x="209" y="-3" on="0"/>
        <pt x="205" y="-3" on="1"/>
        <pt x="156" y="-3" on="0"/>
        <pt x="96" y="50" on="0"/>
        <pt x="96" y="96" on="1"/>
        <pt x="96" y="108" on="0"/>
        <pt x="98" y="123" on="1"/>
        <pt x="174" y="602" on="1"/>
        <pt x="195" y="732" on="0"/>
      </contour>
    </TTGlyph>
    <TTGlyph name="Egrave" xMin="95" yMin="-4" xMax="635" yMax="925">
      <contour>
        <pt x="279" y="925" on="1"/>
        <pt x="366" y="925" on="1"/>
        <pt x="472" y="792" on="1"/>
        <pt x="403" y="792" on="1"/>
      </contour>
      <contour>
        <pt x="309" y="732" on="1"/>
        <pt x="315" y="732" on="0"/>
        <pt x="321" y="732" on="1"/>
        <pt x="635" y="716" on="1"/>
        <pt x="626" y="658" on="1"/>
        <pt x="309" y="658" on="1"/>
        <pt x="277" y="658" on="0"/>
        <pt x="252" y="628" on="0"/>
        <pt x="248" y="602" on="1"/>
        <pt x="216" y="402" on="1"/>
        <pt x="544" y="392" on="1"/>
        <pt x="534" y="333" on="1"/>
        <pt x="204" y="323" on="1"/>
        <pt x="172" y="123" on="1"/>
        <pt x="168" y="84" on="0"/>
        <pt x="186" y="77" on="1"/>
        <pt x="202" y="71" on="0"/>
        <pt x="227" y="71" on="1"/>
        <pt x="534" y="71" on="1"/>
        <pt x="524" y="14" on="1"/>
        <pt x="214" y="-3" on="1"/>
        <pt x="209" y="-3" on="0"/>
        <pt x="205" y="-3" on="1"/>
        <pt x="156" y="-3" on="0"/>
        <pt x="96" y="50" on="0"/>
        <pt x="96" y="96" on="1"/>
        <pt x="96" y="108" on="0"/>
        <pt x="98" y="123" on="1"/>
        <pt x="174" y="602" on="1"/>
        <pt x="195" y="732" on="0"/>
      </contour>
    </TTGlyph>
    <TTGlyph name="Emacron" xMin="95" yMin="-4" xMax="635" yMax="855">
      <contour>
        <pt x="278" y="792" on="1"/>
        <pt x="288" y="855" on="1"/>
        <pt x="580" y="855" on="1"/>
        <pt x="570" y="792" on="1"/>
      </contour>
      <contour>
        <pt x="309" y="732" on="1"/>
        <pt x="315" y="732" on="0"/>
        <pt x="321" y="732" on="1"/>
        <pt x="635" y="716" on="1"/>
        <pt x="626" y="658" on="1"/>
        <pt x="309" y="658" on="1"/>
        <pt x="277" y="658" on="0"/>
        <pt x="252" y="628" on="0"/>
        <pt x="248" y="602" on="1"/>
        <pt x="216" y="402" on="1"/>
        <pt x="544" y="392" on="1"/>
        <pt x="534" y="333" on="1"/>
        <pt x="204" y="323" on="1"/>
        <pt x="172" y="123" on="1"/>
        <pt x="168" y="84" on="0"/>
        <pt x="186" y="77" on="1"/>
        <pt x="202" y="71" on="0"/>
        <pt x="227" y="71" on="1"/>
        <pt x="534" y="71" on="1"/>
        <pt x="524" y="14" on="1"/>
        <pt x="214" y="-3" on="1"/>
        <pt x="209" y="-3" on="0"/>
        <pt x="205" y="-3" on="1"/>
        <pt x="156" y="-3" on="0"/>
        <pt x="96" y="50" on="0"/>
        <pt x="96" y="96" on="1"/>
        <pt x="96" y="108" on="0"/>
        <pt x="98" y="123" on="1"/>
        <pt x="174" y="602" on="1"/>
        <pt x="195" y="732" on="0"/>
      </contour>
    </TTGlyph>
    <TTGlyph name="Eng" xMin="80" yMin="-257" xMax="715" yMax="732">
      <contour>
        <pt x="80" y="0" on="1"/>
        <pt x="196" y="732" on="1"/>
        <pt x="268" y="732" on="1"/>
        <pt x="547" y="138" on="1"/>
        <pt x="641" y="732" on="1"/>
        <pt x="715" y="732" on="1"/>
        <pt x="586" y="-84" on="1"/>
        <pt x="566" y="-208" on="0"/>
        <pt x="473" y="-240" on="1"/>
        <pt x="421" y="-257" on="0"/>
        <pt x="344" y="-257" on="1"/>
        <pt x="353" y="-200" on="1"/>
        <pt x="363" y="-197" on="0"/>
        <pt x="406" y="-189" on="0"/>
        <pt x="430" y="-183" on="0"/>
        <pt x="467" y="-165" on="0"/>
        <pt x="478" y="-154" on="1"/>
        <pt x="504" y="-126" on="0"/>
        <pt x="514" y="-70" on="1"/>
        <pt x="526" y="6" on="1"/>
        <pt x="249" y="594" on="1"/>
        <pt x="155" y="0" on="1"/>
      </contour>
    </TTGlyph>
    <TTGlyph name="Eogonek" xMin="100" yMin="-169" xMax="640" yMax="733">
      <contour>
        <pt x="390" y="-95" on="1"/>
        <pt x="390" y="-26" on="0"/>
        <pt x="490" y="14" on="1"/>
        <pt x="529" y="14" on="1"/>
        <pt x="455" y="-40" on="0"/>
        <pt x="455" y="-77" on="1"/>
        <pt x="455" y="-107" on="0"/>
        <pt x="504" y="-107" on="1"/>
        <pt x="508" y="-107" on="0"/>
        <pt x="513" y="-107" on="1"/>
        <pt x="503" y="-167" on="1"/>
        <pt x="491" y="-169" on="0"/>
        <pt x="481" y="-169" on="1"/>
        <pt x="438" y="-169" on="0"/>
        <pt x="390" y="-122" on="0"/>
      </contour>
      <contour>
        <pt x="314" y="732" on="1"/>
        <pt x="320" y="732" on="0"/>
        <pt x="326" y="732" on="1"/>
        <pt x="640" y="716" on="1"/>
        <pt x="631" y="658" on="1"/>
        <pt x="314" y="658" on="1"/>
        <pt x="282" y="658" on="0"/>
        <pt x="257" y="628" on="0"/>
        <pt x="253" y="602" on="1"/>
        <pt x="221" y="402" on="1"/>
        <pt x="549" y="392" on="1"/>
        <pt x="539" y="333" on="1"/>
        <pt x="209" y="323" on="1"/>
        <pt x="177" y="123" on="1"/>
        <pt x="173" y="84" on="0"/>
        <pt x="192" y="77" on="1"/>
        <pt x="207" y="71" on="0"/>
        <pt x="232" y="71" on="1"/>
        <pt x="539" y="71" on="1"/>
        <pt x="529" y="14" on="1"/>
        <pt x="219" y="-3" on="1"/>
        <pt x="214" y="-3" on="0"/>
        <pt x="210" y="-3" on="1"/>
        <pt x="161" y="-3" on="0"/>
        <pt x="101" y="50" on="0"/>
        <pt x="101" y="96" on="1"/>
        <pt x="101" y="108" on="0"/>
        <pt x="103" y="123" on="1"/>
        <pt x="179" y="602" on="1"/>
        <pt x="200" y="732" on="0"/>
      </contour>
    </TTGlyph>
    <TTGlyph name="Eth" xMin="69" yMin="0" xMax="681" yMax="732">
      <contour>
        <pt x="468" y="732" on="1"/>
        <pt x="532" y="732" on="0"/>
        <pt x="622" y="678" on="0"/>
        <pt x="644" y="638" on="1"/>
        <pt x="681" y="569" on="0"/>
        <pt x="681" y="462" on="1"/>
        <pt x="681" y="414" on="0"/>
        <pt x="671" y="363" on="1"/>
        <pt x="608" y="0" on="0"/>
        <pt x="352" y="0" on="1"/>
        <pt x="79" y="0" on="1"/>
        <pt x="134" y="346" on="1"/>
        <pt x="69" y="346" on="1"/>
        <pt x="78" y="400" on="1"/>
        <pt x="143" y="400" on="1"/>
        <pt x="195" y="731" on="1"/>
        <pt x="195" y="732" on="0"/>
      </contour>
      <contour>
        <pt x="364" y="77" on="1"/>
        <pt x="456" y="77" on="0"/>
        <pt x="576" y="242" on="0"/>
        <pt x="596" y="364" on="1"/>
        <pt x="606" y="426" on="0"/>
        <pt x="606" y="544" on="0"/>
        <pt x="586" y="586" on="1"/>
        <pt x="551" y="658" on="0"/>
        <pt x="456" y="658" on="1"/>
        <pt x="257" y="658" on="1"/>
        <pt x="217" y="400" on="1"/>
        <pt x="356" y="400" on="1"/>
        <pt x="347" y="346" on="1"/>
        <pt x="208" y="346" on="1"/>
        <pt x="165" y="77" on="1"/>
      </contour>
    </TTGlyph>
    <TTGlyph name="Euro" xMin="70" yMin="-6" xMax="709" yMax="740">
      <contour>
        <pt x="469" y="740" on="1"/>
        <pt x="552" y="740" on="0"/>
        <pt x="709" y="710" on="1"/>
        <pt x="700" y="651" on="1"/>
        <pt x="539" y="666" on="0"/>
        <pt x="414" y="666" on="0"/>
        <pt x="349" y="643" on="0"/>
        <pt x="312" y="610" on="0"/>
        <pt x="284" y="552" on="0"/>
        <pt x="273" y="507" on="0"/>
        <pt x="266" y="470" on="1"/>
        <pt x="499" y="463" on="1"/>
        <pt x="492" y="417" on="1"/>
        <pt x="257" y="410" on="1"/>
        <pt x="241" y="309" on="1"/>
        <pt x="473" y="302" on="1"/>
        <pt x="466" y="255" on="1"/>
        <pt x="434" y="255" on="0"/>
        <pt x="230" y="249" on="0"/>
        <pt x="231" y="248" on="1"/>
        <pt x="225" y="214" on="0"/>
        <pt x="225" y="186" on="1"/>
        <pt x="225" y="133" on="0"/>
        <pt x="248" y="107" on="1"/>
        <pt x="284" y="68" on="0"/>
        <pt x="362" y="68" on="1"/>
        <pt x="457" y="68" on="0"/>
        <pt x="572" y="80" on="1"/>
        <pt x="614" y="85" on="1"/>
        <pt x="605" y="29" on="1"/>
        <pt x="476" y="-6" on="0"/>
        <pt x="351" y="-6" on="1"/>
        <pt x="276" y="-6" on="0"/>
        <pt x="231" y="22" on="1"/>
        <pt x="181" y="55" on="0"/>
        <pt x="166" y="99" on="1"/>
        <pt x="150" y="146" on="0"/>
        <pt x="150" y="216" on="0"/>
        <pt x="157" y="248" on="1"/>
        <pt x="70" y="255" on="1"/>
        <pt x="77" y="302" on="1"/>
        <pt x="167" y="309" on="1"/>
        <pt x="183" y="410" on="1"/>
        <pt x="96" y="418" on="1"/>
        <pt x="103" y="461" on="1"/>
        <pt x="192" y="470" on="1"/>
        <pt x="207" y="571" on="0"/>
        <pt x="237" y="622" on="1"/>
        <pt x="305" y="740" on="0"/>
      </contour>
    </TTGlyph>
    <TTGlyph name="Euro.smcp" xMin="47" yMin="-5" xMax="565" yMax="577">
      <contour>
        <pt x="261" y="558" on="0"/>
        <pt x="328" y="577" on="0"/>
        <pt x="443" y="577" on="0"/>
        <pt x="565" y="554" on="1"/>
        <pt x="556" y="492" on="1"/>
        <pt x="420" y="503" on="0"/>
        <pt x="324" y="503" on="0"/>
        <pt x="274" y="482" on="0"/>
        <pt x="247" y="457" on="0"/>
        <pt x="237" y="434" on="1"/>
        <pt x="224" y="406" on="0"/>
        <pt x="217" y="367" on="1"/>
        <pt x="402" y="361" on="1"/>
        <pt x="394" y="315" on="1"/>
        <pt x="208" y="310" on="1"/>
        <pt x="199" y="251" on="1"/>
        <pt x="383" y="246" on="1"/>
        <pt x="376" y="199" on="1"/>
        <pt x="364" y="199" on="0"/>
        <pt x="325" y="198" on="0"/>
        <pt x="284" y="197" on="1"/>
        <pt x="187" y="195" on="0"/>
        <pt x="189" y="193" on="1"/>
        <pt x="185" y="170" on="0"/>
        <pt x="185" y="113" on="0"/>
        <pt x="202" y="96" on="1"/>
        <pt x="229" y="70" on="0"/>
        <pt x="274" y="70" on="1"/>
        <pt x="356" y="70" on="0"/>
        <pt x="460" y="80" on="1"/>
        <pt x="494" y="84" on="1"/>
        <pt x="484" y="23" on="1"/>
        <pt x="381" y="-5" on="0"/>
        <pt x="276" y="-5" on="1"/>
        <pt x="215" y="-5" on="0"/>
        <pt x="162" y="28" on="1"/>
        <pt x="132" y="46" on="0"/>
        <pt x="118" y="88" on="1"/>
        <pt x="111" y="113" on="0"/>
        <pt x="111" y="167" on="0"/>
        <pt x="115" y="193" on="1"/>
        <pt x="47" y="199" on="1"/>
        <pt x="54" y="246" on="1"/>
        <pt x="124" y="251" on="1"/>
        <pt x="133" y="310" on="1"/>
        <pt x="66" y="316" on="1"/>
        <pt x="72" y="360" on="1"/>
        <pt x="142" y="367" on="1"/>
        <pt x="153" y="439" on="0"/>
        <pt x="182" y="490" on="0"/>
        <pt x="218" y="533" on="0"/>
      </contour>
    </TTGlyph>
    <TTGlyph name="F" xMin="80" yMin="0" xMax="636" yMax="733">
      <contour>
        <pt x="310" y="732" on="1"/>
        <pt x="316" y="732" on="0"/>
        <pt x="322" y="732" on="1"/>
        <pt x="636" y="716" on="1"/>
        <pt x="627" y="658" on="1"/>
        <pt x="310" y="658" on="1"/>
        <pt x="278" y="658" on="0"/>
        <pt x="253" y="628" on="0"/>
        <pt x="249" y="602" on="1"/>
        <pt x="218" y="402" on="1"/>
        <pt x="545" y="392" on="1"/>
        <pt x="536" y="333" on="1"/>
        <pt x="205" y="323" on="1"/>
        <pt x="154" y="0" on="1"/>
        <pt x="80" y="0" on="1"/>
        <pt x="175" y="602" on="1"/>
        <pt x="196" y="732" on="0"/>
      </contour>
    </TTGlyph>
    <TTGlyph name="G" xMin="107" yMin="-7" xMax="650" yMax="740">
      <contour>
        <pt x="424" y="739" on="1"/>
        <pt x="496" y="739" on="0"/>
        <pt x="650" y="710" on="1"/>
        <pt x="642" y="651" on="1"/>
        <pt x="572" y="661" on="0"/>
        <pt x="400" y="664" on="0"/>
        <pt x="377" y="666" on="0"/>
        <pt x="351" y="659" on="0"/>
        <pt x="324" y="652" on="0"/>
        <pt x="296" y="630" on="0"/>
        <pt x="270" y="602" on="0"/>
        <pt x="244" y="555" on="0"/>
        <pt x="232" y="526" on="1"/>
        <pt x="208" y="465" on="0"/>
        <pt x="185" y="309" on="0"/>
        <pt x="185" y="198" on="0"/>
        <pt x="202" y="150" on="1"/>
        <pt x="230" y="67" on="0"/>
        <pt x="311" y="67" on="1"/>
        <pt x="312" y="67" on="0"/>
        <pt x="313" y="67" on="1"/>
        <pt x="348" y="67" on="0"/>
        <pt x="445" y="94" on="0"/>
        <pt x="476" y="108" on="1"/>
        <pt x="507" y="122" on="1"/>
        <pt x="541" y="314" on="1"/>
        <pt x="372" y="314" on="1"/>
        <pt x="380" y="364" on="1"/>
        <pt x="475" y="389" on="0"/>
        <pt x="559" y="389" on="1"/>
        <pt x="590" y="389" on="0"/>
        <pt x="626" y="386" on="1"/>
        <pt x="565" y="0" on="1"/>
        <pt x="508" y="0" on="1"/>
        <pt x="498" y="57" on="1"/>
        <pt x="472" y="33" on="0"/>
        <pt x="359" y="-7" on="0"/>
        <pt x="251" y="-7" on="0"/>
        <pt x="212" y="16" on="1"/>
        <pt x="140" y="58" on="0"/>
        <pt x="118" y="162" on="1"/>
        <pt x="107" y="210" on="0"/>
        <pt x="107" y="311" on="0"/>
        <pt x="133" y="461" on="0"/>
        <pt x="173" y="589" on="0"/>
        <pt x="208" y="640" on="1"/>
        <pt x="274" y="739" on="0"/>
        <pt x="419" y="739" on="1"/>
        <pt x="421" y="739" on="0"/>
      </contour>
    </TTGlyph>
    <TTGlyph name="Gbreve" xMin="107" yMin="-7" xMax="650" yMax="914">
      <contour>
        <pt x="381" y="913" on="1"/>
        <pt x="381" y="907" on="0"/>
        <pt x="381" y="878" on="0"/>
        <pt x="410" y="845" on="0"/>
        <pt x="436" y="845" on="1"/>
        <pt x="438" y="845" on="0"/>
        <pt x="439" y="845" on="1"/>
        <pt x="506" y="845" on="0"/>
        <pt x="516" y="913" on="1"/>
        <pt x="562" y="913" on="1"/>
        <pt x="547" y="799" on="0"/>
        <pt x="436" y="799" on="1"/>
        <pt x="393" y="799" on="0"/>
        <pt x="335" y="857" on="0"/>
        <pt x="335" y="901" on="1"/>
        <pt x="335" y="907" on="0"/>
        <pt x="335" y="913" on="1"/>
      </contour>
      <contour>
        <pt x="424" y="739" on="1"/>
        <pt x="496" y="739" on="0"/>
        <pt x="650" y="710" on="1"/>
        <pt x="642" y="651" on="1"/>
        <pt x="572" y="661" on="0"/>
        <pt x="400" y="664" on="0"/>
        <pt x="377" y="666" on="0"/>
        <pt x="351" y="659" on="0"/>
        <pt x="324" y="652" on="0"/>
        <pt x="296" y="630" on="0"/>
        <pt x="270" y="602" on="0"/>
        <pt x="244" y="555" on="0"/>
        <pt x="232" y="526" on="1"/>
        <pt x="208" y="465" on="0"/>
        <pt x="185" y="309" on="0"/>
        <pt x="185" y="198" on="0"/>
        <pt x="202" y="150" on="1"/>
        <pt x="230" y="67" on="0"/>
        <pt x="311" y="67" on="1"/>
        <pt x="312" y="67" on="0"/>
        <pt x="313" y="67" on="1"/>
        <pt x="348" y="67" on="0"/>
        <pt x="445" y="94" on="0"/>
        <pt x="476" y="108" on="1"/>
        <pt x="507" y="122" on="1"/>
        <pt x="541" y="314" on="1"/>
        <pt x="372" y="314" on="1"/>
        <pt x="380" y="364" on="1"/>
        <pt x="475" y="389" on="0"/>
        <pt x="559" y="389" on="1"/>
        <pt x="590" y="389" on="0"/>
        <pt x="626" y="386" on="1"/>
        <pt x="565" y="0" on="1"/>
        <pt x="508" y="0" on="1"/>
        <pt x="498" y="57" on="1"/>
        <pt x="472" y="33" on="0"/>
        <pt x="359" y="-7" on="0"/>
        <pt x="251" y="-7" on="0"/>
        <pt x="212" y="16" on="1"/>
        <pt x="140" y="58" on="0"/>
        <pt x="118" y="162" on="1"/>
        <pt x="107" y="210" on="0"/>
        <pt x="107" y="311" on="0"/>
        <pt x="133" y="461" on="0"/>
        <pt x="173" y="589" on="0"/>
        <pt x="208" y="640" on="1"/>
        <pt x="274" y="739" on="0"/>
        <pt x="419" y="739" on="1"/>
        <pt x="421" y="739" on="0"/>
      </contour>
    </TTGlyph>
    <TTGlyph name="Gcircumflex" xMin="107" yMin="-7" xMax="650" yMax="930">
      <contour>
        <pt x="285" y="799" on="1"/>
        <pt x="423" y="929" on="1"/>
        <pt x="494" y="929" on="1"/>
        <pt x="577" y="799" on="1"/>
        <pt x="512" y="799" on="1"/>
        <pt x="455" y="882" on="1"/>
        <pt x="365" y="799" on="1"/>
      </contour>
      <contour>
        <pt x="424" y="739" on="1"/>
        <pt x="496" y="739" on="0"/>
        <pt x="650" y="710" on="1"/>
        <pt x="642" y="651" on="1"/>
        <pt x="572" y="661" on="0"/>
        <pt x="400" y="664" on="0"/>
        <pt x="377" y="666" on="0"/>
        <pt x="351" y="659" on="0"/>
        <pt x="324" y="652" on="0"/>
        <pt x="296" y="630" on="0"/>
        <pt x="270" y="602" on="0"/>
        <pt x="244" y="555" on="0"/>
        <pt x="232" y="526" on="1"/>
        <pt x="208" y="465" on="0"/>
        <pt x="185" y="309" on="0"/>
        <pt x="185" y="198" on="0"/>
        <pt x="202" y="150" on="1"/>
        <pt x="230" y="67" on="0"/>
        <pt x="311" y="67" on="1"/>
        <pt x="312" y="67" on="0"/>
        <pt x="313" y="67" on="1"/>
        <pt x="348" y="67" on="0"/>
        <pt x="445" y="94" on="0"/>
        <pt x="476" y="108" on="1"/>
        <pt x="507" y="122" on="1"/>
        <pt x="541" y="314" on="1"/>
        <pt x="372" y="314" on="1"/>
        <pt x="380" y="364" on="1"/>
        <pt x="475" y="389" on="0"/>
        <pt x="559" y="389" on="1"/>
        <pt x="590" y="389" on="0"/>
        <pt x="626" y="386" on="1"/>
        <pt x="565" y="0" on="1"/>
        <pt x="508" y="0" on="1"/>
        <pt x="498" y="57" on="1"/>
        <pt x="472" y="33" on="0"/>
        <pt x="359" y="-7" on="0"/>
        <pt x="251" y="-7" on="0"/>
        <pt x="212" y="16" on="1"/>
        <pt x="140" y="58" on="0"/>
        <pt x="118" y="162" on="1"/>
        <pt x="107" y="210" on="0"/>
        <pt x="107" y="311" on="0"/>
        <pt x="133" y="461" on="0"/>
        <pt x="173" y="589" on="0"/>
        <pt x="208" y="640" on="1"/>
        <pt x="274" y="739" on="0"/>
        <pt x="419" y="739" on="1"/>
        <pt x="421" y="739" on="0"/>
      </contour>
    </TTGlyph>
    <TTGlyph name="Gcommaaccent" xMin="107" yMin="-251" xMax="650" yMax="740">
      <contour>
        <pt x="300" y="-170" on="1"/>
        <pt x="290" y="-170" on="0"/>
        <pt x="279" y="-158" on="0"/>
        <pt x="281" y="-148" on="1"/>
        <pt x="288" y="-99" on="1"/>
        <pt x="292" y="-75" on="0"/>
        <pt x="315" y="-75" on="1"/>
        <pt x="361" y="-75" on="1"/>
        <pt x="379" y="-75" on="0"/>
        <pt x="379" y="-93" on="1"/>
        <pt x="379" y="-96" on="0"/>
        <pt x="378" y="-99" on="1"/>
        <pt x="366" y="-180" on="1"/>
        <pt x="362" y="-204" on="0"/>
        <pt x="351" y="-220" on="1"/>
        <pt x="329" y="-251" on="0"/>
        <pt x="284" y="-251" on="1"/>
        <pt x="281" y="-251" on="0"/>
        <pt x="269" y="-249" on="1"/>
        <pt x="274" y="-220" on="1"/>
        <pt x="286" y="-221" on="0"/>
        <pt x="294" y="-215" on="1"/>
        <pt x="303" y="-208" on="0"/>
        <pt x="306" y="-192" on="1"/>
        <pt x="310" y="-170" on="1"/>
      </contour>
      <contour>
        <pt x="424" y="739" on="1"/>
        <pt x="496" y="739" on="0"/>
        <pt x="650" y="710" on="1"/>
        <pt x="642" y="651" on="1"/>
        <pt x="572" y="661" on="0"/>
        <pt x="400" y="664" on="0"/>
        <pt x="377" y="666" on="0"/>
        <pt x="351" y="659" on="0"/>
        <pt x="324" y="652" on="0"/>
        <pt x="296" y="630" on="0"/>
        <pt x="270" y="602" on="0"/>
        <pt x="244" y="555" on="0"/>
        <pt x="232" y="526" on="1"/>
        <pt x="208" y="465" on="0"/>
        <pt x="185" y="309" on="0"/>
        <pt x="185" y="198" on="0"/>
        <pt x="202" y="150" on="1"/>
        <pt x="230" y="67" on="0"/>
        <pt x="311" y="67" on="1"/>
        <pt x="312" y="67" on="0"/>
        <pt x="313" y="67" on="1"/>
        <pt x="348" y="67" on="0"/>
        <pt x="445" y="94" on="0"/>
        <pt x="476" y="108" on="1"/>
        <pt x="507" y="122" on="1"/>
        <pt x="541" y="314" on="1"/>
        <pt x="372" y="314" on="1"/>
        <pt x="380" y="364" on="1"/>
        <pt x="475" y="389" on="0"/>
        <pt x="559" y="389" on="1"/>
        <pt x="590" y="389" on="0"/>
        <pt x="626" y="386" on="1"/>
        <pt x="565" y="0" on="1"/>
        <pt x="508" y="0" on="1"/>
        <pt x="498" y="57" on="1"/>
        <pt x="472" y="33" on="0"/>
        <pt x="359" y="-7" on="0"/>
        <pt x="251" y="-7" on="0"/>
        <pt x="212" y="16" on="1"/>
        <pt x="140" y="58" on="0"/>
        <pt x="118" y="162" on="1"/>
        <pt x="107" y="210" on="0"/>
        <pt x="107" y="311" on="0"/>
        <pt x="133" y="461" on="0"/>
        <pt x="173" y="589" on="0"/>
        <pt x="208" y="640" on="1"/>
        <pt x="274" y="739" on="0"/>
        <pt x="419" y="739" on="1"/>
        <pt x="421" y="739" on="0"/>
      </contour>
    </TTGlyph>
    <TTGlyph name="Gdotaccent" xMin="107" yMin="-7" xMax="650" yMax="902">
      <contour>
        <pt x="428" y="902" on="1"/>
        <pt x="478" y="902" on="1"/>
        <pt x="498" y="902" on="0"/>
        <pt x="498" y="884" on="1"/>
        <pt x="498" y="881" on="0"/>
        <pt x="497" y="877" on="1"/>
        <pt x="488" y="823" on="1"/>
        <pt x="485" y="800" on="0"/>
        <pt x="462" y="800" on="1"/>
        <pt x="412" y="800" on="1"/>
        <pt x="388" y="800" on="0"/>
        <pt x="391" y="823" on="1"/>
        <pt x="400" y="877" on="1"/>
        <pt x="403" y="902" on="0"/>
      </contour>
      <contour>
        <pt x="424" y="739" on="1"/>
        <pt x="496" y="739" on="0"/>
        <pt x="650" y="710" on="1"/>
        <pt x="642" y="651" on="1"/>
        <pt x="572" y="661" on="0"/>
        <pt x="400" y="664" on="0"/>
        <pt x="377" y="666" on="0"/>
        <pt x="351" y="659" on="0"/>
        <pt x="324" y="652" on="0"/>
        <pt x="296" y="630" on="0"/>
        <pt x="270" y="602" on="0"/>
        <pt x="244" y="555" on="0"/>
        <pt x="232" y="526" on="1"/>
        <pt x="208" y="465" on="0"/>
        <pt x="185" y="309" on="0"/>
        <pt x="185" y="198" on="0"/>
        <pt x="202" y="150" on="1"/>
        <pt x="230" y="67" on="0"/>
        <pt x="311" y="67" on="1"/>
        <pt x="312" y="67" on="0"/>
        <pt x="313" y="67" on="1"/>
        <pt x="348" y="67" on="0"/>
        <pt x="445" y="94" on="0"/>
        <pt x="476" y="108" on="1"/>
        <pt x="507" y="122" on="1"/>
        <pt x="541" y="314" on="1"/>
        <pt x="372" y="314" on="1"/>
        <pt x="380" y="364" on="1"/>
        <pt x="475" y="389" on="0"/>
        <pt x="559" y="389" on="1"/>
        <pt x="590" y="389" on="0"/>
        <pt x="626" y="386" on="1"/>
        <pt x="565" y="0" on="1"/>
        <pt x="508" y="0" on="1"/>
        <pt x="498" y="57" on="1"/>
        <pt x="472" y="33" on="0"/>
        <pt x="359" y="-7" on="0"/>
        <pt x="251" y="-7" on="0"/>
        <pt x="212" y="16" on="1"/>
        <pt x="140" y="58" on="0"/>
        <pt x="118" y="162" on="1"/>
        <pt x="107" y="210" on="0"/>
        <pt x="107" y="311" on="0"/>
        <pt x="133" y="461" on="0"/>
        <pt x="173" y="589" on="0"/>
        <pt x="208" y="640" on="1"/>
        <pt x="274" y="739" on="0"/>
        <pt x="419" y="739" on="1"/>
        <pt x="421" y="739" on="0"/>
      </contour>
    </TTGlyph>
    <TTGlyph name="H" xMin="85" yMin="0" xMax="699" yMax="732">
      <contour>
        <pt x="85" y="0" on="1"/>
        <pt x="201" y="732" on="1"/>
        <pt x="275" y="732" on="1"/>
        <pt x="220" y="391" on="1"/>
        <pt x="570" y="391" on="1"/>
        <pt x="625" y="732" on="1"/>
        <pt x="699" y="732" on="1"/>
        <pt x="583" y="0" on="1"/>
        <pt x="509" y="0" on="1"/>
        <pt x="560" y="317" on="1"/>
        <pt x="210" y="317" on="1"/>
        <pt x="159" y="0" on="1"/>
      </contour>
    </TTGlyph>
    <TTGlyph name="Hbar" xMin="85" yMin="0" xMax="732" yMax="732">
      <contour>
        <pt x="85" y="0" on="1"/>
        <pt x="167" y="517" on="1"/>
        <pt x="106" y="517" on="1"/>
        <pt x="114" y="572" on="1"/>
        <pt x="175" y="572" on="1"/>
        <pt x="201" y="732" on="1"/>
        <pt x="275" y="732" on="1"/>
        <pt x="249" y="572" on="1"/>
        <pt x="599" y="572" on="1"/>
        <pt x="625" y="732" on="1"/>
        <pt x="699" y="732" on="1"/>
        <pt x="673" y="572" on="1"/>
        <pt x="732" y="572" on="1"/>
        <pt x="724" y="517" on="1"/>
        <pt x="665" y="517" on="1"/>
        <pt x="583" y="0" on="1"/>
        <pt x="509" y="0" on="1"/>
        <pt x="561" y="318" on="1"/>
        <pt x="211" y="318" on="1"/>
        <pt x="159" y="0" on="1"/>
      </contour>
      <contour>
        <pt x="221" y="393" on="1"/>
        <pt x="571" y="393" on="1"/>
        <pt x="591" y="517" on="1"/>
        <pt x="241" y="517" on="1"/>
      </contour>
    </TTGlyph>
    <TTGlyph name="Hcircumflex" xMin="85" yMin="0" xMax="699" yMax="927">
      <contour>
        <pt x="314" y="797" on="1"/>
        <pt x="452" y="927" on="1"/>
        <pt x="523" y="927" on="1"/>
        <pt x="606" y="797" on="1"/>
        <pt x="541" y="797" on="1"/>
        <pt x="484" y="880" on="1"/>
        <pt x="394" y="797" on="1"/>
      </contour>
      <contour>
        <pt x="85" y="0" on="1"/>
        <pt x="201" y="732" on="1"/>
        <pt x="275" y="732" on="1"/>
        <pt x="220" y="391" on="1"/>
        <pt x="570" y="391" on="1"/>
        <pt x="625" y="732" on="1"/>
        <pt x="699" y="732" on="1"/>
        <pt x="583" y="0" on="1"/>
        <pt x="509" y="0" on="1"/>
        <pt x="560" y="317" on="1"/>
        <pt x="210" y="317" on="1"/>
        <pt x="159" y="0" on="1"/>
      </contour>
    </TTGlyph>
    <TTGlyph name="I" xMin="90" yMin="0" xMax="280" yMax="732">
      <contour>
        <pt x="90" y="0" on="1"/>
        <pt x="206" y="732" on="1"/>
        <pt x="280" y="732" on="1"/>
        <pt x="164" y="0" on="1"/>
      </contour>
    </TTGlyph>
    <TTGlyph name="Iacute" xMin="90" yMin="0" xMax="442" yMax="930">
      <contour>
        <pt x="219" y="797" on="1"/>
        <pt x="347" y="930" on="1"/>
        <pt x="442" y="930" on="1"/>
        <pt x="288" y="797" on="1"/>
      </contour>
      <contour>
        <pt x="90" y="0" on="1"/>
        <pt x="206" y="732" on="1"/>
        <pt x="280" y="732" on="1"/>
        <pt x="164" y="0" on="1"/>
      </contour>
    </TTGlyph>
    <TTGlyph name="Icircumflex" xMin="90" yMin="0" xMax="400" yMax="927">
      <contour>
        <pt x="107" y="797" on="1"/>
        <pt x="245" y="927" on="1"/>
        <pt x="316" y="927" on="1"/>
        <pt x="399" y="797" on="1"/>
        <pt x="334" y="797" on="1"/>
        <pt x="277" y="880" on="1"/>
        <pt x="187" y="797" on="1"/>
      </contour>
      <contour>
        <pt x="90" y="0" on="1"/>
        <pt x="206" y="732" on="1"/>
        <pt x="280" y="732" on="1"/>
        <pt x="164" y="0" on="1"/>
      </contour>
    </TTGlyph>
    <TTGlyph name="Idieresis" xMin="82" yMin="0" xMax="441" yMax="898">
      <contour>
        <pt x="121" y="898" on="0"/>
        <pt x="163" y="898" on="0"/>
        <pt x="185" y="872" on="0"/>
        <pt x="185" y="852" on="0"/>
        <pt x="183" y="838" on="0"/>
        <pt x="172" y="819" on="0"/>
        <pt x="165" y="812" on="1"/>
        <pt x="148" y="797" on="0"/>
        <pt x="106" y="797" on="0"/>
        <pt x="83" y="824" on="0"/>
        <pt x="83" y="834" on="1"/>
        <pt x="83" y="866" on="0"/>
      </contour>
      <contour>
        <pt x="376" y="898" on="0"/>
        <pt x="418" y="898" on="0"/>
        <pt x="440" y="872" on="0"/>
        <pt x="440" y="862" on="1"/>
        <pt x="440" y="830" on="0"/>
        <pt x="403" y="797" on="0"/>
        <pt x="361" y="797" on="0"/>
        <pt x="338" y="824" on="0"/>
        <pt x="338" y="834" on="1"/>
        <pt x="338" y="866" on="0"/>
      </contour>
      <contour>
        <pt x="90" y="0" on="1"/>
        <pt x="206" y="732" on="1"/>
        <pt x="280" y="732" on="1"/>
        <pt x="164" y="0" on="1"/>
      </contour>
    </TTGlyph>
    <TTGlyph name="Idotaccent" xMin="90" yMin="0" xMax="315" yMax="899">
      <contour>
        <pt x="295" y="899" on="1"/>
        <pt x="315" y="899" on="0"/>
        <pt x="315" y="879" on="1"/>
        <pt x="315" y="877" on="0"/>
        <pt x="314" y="874" on="1"/>
        <pt x="305" y="820" on="1"/>
        <pt x="302" y="797" on="0"/>
        <pt x="279" y="797" on="1"/>
        <pt x="229" y="797" on="1"/>
        <pt x="219" y="797" on="0"/>
        <pt x="207" y="810" on="0"/>
        <pt x="208" y="820" on="1"/>
        <pt x="217" y="874" on="1"/>
        <pt x="221" y="899" on="0"/>
        <pt x="245" y="899" on="1"/>
      </contour>
      <contour>
        <pt x="90" y="0" on="1"/>
        <pt x="206" y="732" on="1"/>
        <pt x="280" y="732" on="1"/>
        <pt x="164" y="0" on="1"/>
      </contour>
    </TTGlyph>
    <TTGlyph name="Idotaccent.smcp" xMin="60" yMin="0" xMax="258" yMax="734">
      <contour>
        <pt x="60" y="0" on="1"/>
        <pt x="150" y="570" on="1"/>
        <pt x="224" y="570" on="1"/>
        <pt x="134" y="0" on="1"/>
      </contour>
      <contour>
        <pt x="188" y="734" on="1"/>
        <pt x="238" y="734" on="1"/>
        <pt x="258" y="734" on="0"/>
        <pt x="258" y="716" on="1"/>
        <pt x="258" y="713" on="0"/>
        <pt x="257" y="709" on="1"/>
        <pt x="248" y="655" on="1"/>
        <pt x="245" y="632" on="0"/>
        <pt x="222" y="632" on="1"/>
        <pt x="172" y="632" on="1"/>
        <pt x="148" y="632" on="0"/>
        <pt x="151" y="655" on="1"/>
        <pt x="160" y="709" on="1"/>
        <pt x="163" y="734" on="0"/>
      </contour>
    </TTGlyph>
    <TTGlyph name="Igrave" xMin="90" yMin="0" xMax="288" yMax="930">
      <contour>
        <pt x="95" y="930" on="1"/>
        <pt x="182" y="930" on="1"/>
        <pt x="288" y="797" on="1"/>
        <pt x="219" y="797" on="1"/>
      </contour>
      <contour>
        <pt x="90" y="0" on="1"/>
        <pt x="206" y="732" on="1"/>
        <pt x="280" y="732" on="1"/>
        <pt x="164" y="0" on="1"/>
      </contour>
    </TTGlyph>
    <TTGlyph name="Imacron" xMin="42" yMin="0" xMax="350" yMax="855">
      <contour>
        <pt x="48" y="792" on="1"/>
        <pt x="58" y="855" on="1"/>
        <pt x="350" y="855" on="1"/>
        <pt x="340" y="792" on="1"/>
      </contour>
      <contour>
        <pt x="42" y="0" on="1"/>
        <pt x="158" y="732" on="1"/>
        <pt x="232" y="732" on="1"/>
        <pt x="116" y="0" on="1"/>
      </contour>
    </TTGlyph>
    <TTGlyph name="Iogonek" xMin="9" yMin="-183" xMax="280" yMax="732">
      <contour>
        <pt x="9" y="-109" on="1"/>
        <pt x="9" y="-40" on="0"/>
        <pt x="110" y="0" on="1"/>
        <pt x="149" y="0" on="1"/>
        <pt x="75" y="-54" on="0"/>
        <pt x="75" y="-91" on="1"/>
        <pt x="75" y="-121" on="0"/>
        <pt x="124" y="-121" on="1"/>
        <pt x="128" y="-121" on="0"/>
        <pt x="133" y="-121" on="1"/>
        <pt x="123" y="-181" on="1"/>
        <pt x="111" y="-182" on="0"/>
        <pt x="101" y="-182" on="1"/>
        <pt x="58" y="-182" on="0"/>
        <pt x="9" y="-136" on="0"/>
      </contour>
      <contour>
        <pt x="90" y="0" on="1"/>
        <pt x="206" y="732" on="1"/>
        <pt x="280" y="732" on="1"/>
        <pt x="164" y="0" on="1"/>
      </contour>
    </TTGlyph>
    <TTGlyph name="Itilde" xMin="90" yMin="0" xMax="434" yMax="902">
      <contour>
        <pt x="246" y="900" on="0"/>
        <pt x="307" y="868" on="0"/>
        <pt x="319" y="868" on="0"/>
        <pt x="330" y="868" on="0"/>
        <pt x="354" y="876" on="1"/>
        <pt x="403" y="892" on="0"/>
        <pt x="418" y="902" on="1"/>
        <pt x="433" y="860" on="1"/>
        <pt x="424" y="854" on="0"/>
        <pt x="403" y="839" on="1"/>
        <pt x="342" y="798" on="0"/>
        <pt x="309" y="798" on="1"/>
        <pt x="278" y="798" on="0"/>
        <pt x="222" y="832" on="0"/>
        <pt x="206" y="832" on="1"/>
        <pt x="173" y="832" on="0"/>
        <pt x="111" y="800" on="0"/>
        <pt x="105" y="797" on="1"/>
        <pt x="90" y="838" on="1"/>
        <pt x="120" y="860" on="0"/>
        <pt x="136" y="870" on="1"/>
        <pt x="183" y="902" on="0"/>
      </contour>
      <contour>
        <pt x="90" y="0" on="1"/>
        <pt x="206" y="732" on="1"/>
        <pt x="280" y="732" on="1"/>
        <pt x="164" y="0" on="1"/>
      </contour>
    </TTGlyph>
    <TTGlyph name="J" xMin="38" yMin="-7" xMax="415" yMax="732">
      <contour>
        <pt x="51" y="75" on="1"/>
        <pt x="112" y="60" on="0"/>
        <pt x="160" y="60" on="0"/>
        <pt x="187" y="68" on="0"/>
        <pt x="205" y="78" on="1"/>
        <pt x="240" y="98" on="0"/>
        <pt x="251" y="165" on="1"/>
        <pt x="341" y="732" on="1"/>
        <pt x="415" y="732" on="1"/>
        <pt x="325" y="165" on="1"/>
        <pt x="308" y="52" on="0"/>
        <pt x="250" y="18" on="1"/>
        <pt x="208" y="-6" on="0"/>
        <pt x="145" y="-6" on="1"/>
        <pt x="75" y="-6" on="0"/>
        <pt x="38" y="21" on="1"/>
      </contour>
    </TTGlyph>
    <TTGlyph name="Jcircumflex" xMin="38" yMin="-7" xMax="535" yMax="927">
      <contour>
        <pt x="242" y="797" on="1"/>
        <pt x="380" y="927" on="1"/>
        <pt x="451" y="927" on="1"/>
        <pt x="534" y="797" on="1"/>
        <pt x="469" y="797" on="1"/>
        <pt x="412" y="880" on="1"/>
        <pt x="322" y="797" on="1"/>
      </contour>
      <contour>
        <pt x="51" y="75" on="1"/>
        <pt x="112" y="60" on="0"/>
        <pt x="160" y="60" on="0"/>
        <pt x="187" y="68" on="0"/>
        <pt x="205" y="78" on="1"/>
        <pt x="240" y="98" on="0"/>
        <pt x="251" y="165" on="1"/>
        <pt x="341" y="732" on="1"/>
        <pt x="415" y="732" on="1"/>
        <pt x="325" y="165" on="1"/>
        <pt x="308" y="52" on="0"/>
        <pt x="250" y="18" on="1"/>
        <pt x="208" y="-6" on="0"/>
        <pt x="145" y="-6" on="1"/>
        <pt x="75" y="-6" on="0"/>
        <pt x="38" y="21" on="1"/>
      </contour>
    </TTGlyph>
    <TTGlyph name="K" xMin="80" yMin="0" xMax="672" yMax="732">
      <contour>
        <pt x="80" y="0" on="1"/>
        <pt x="196" y="732" on="1"/>
        <pt x="270" y="732" on="1"/>
        <pt x="218" y="404" on="1"/>
        <pt x="305" y="404" on="1"/>
        <pt x="580" y="732" on="1"/>
        <pt x="672" y="732" on="1"/>
        <pt x="368" y="362" on="1"/>
        <pt x="556" y="0" on="1"/>
        <pt x="467" y="0" on="1"/>
        <pt x="298" y="330" on="1"/>
        <pt x="207" y="330" on="1"/>
        <pt x="155" y="0" on="1"/>
      </contour>
    </TTGlyph>
    <TTGlyph name="Kcommaaccent" xMin="80" yMin="-246" xMax="672" yMax="732">
      <contour>
        <pt x="265" y="-165" on="1"/>
        <pt x="255" y="-165" on="0"/>
        <pt x="244" y="-153" on="0"/>
        <pt x="246" y="-142" on="1"/>
        <pt x="253" y="-94" on="1"/>
        <pt x="257" y="-70" on="0"/>
        <pt x="280" y="-70" on="1"/>
        <pt x="326" y="-70" on="1"/>
        <pt x="344" y="-70" on="0"/>
        <pt x="344" y="-88" on="1"/>
        <pt x="344" y="-91" on="0"/>
        <pt x="343" y="-94" on="1"/>
        <pt x="331" y="-175" on="1"/>
        <pt x="327" y="-199" on="0"/>
        <pt x="316" y="-215" on="1"/>
        <pt x="294" y="-246" on="0"/>
        <pt x="249" y="-246" on="1"/>
        <pt x="246" y="-246" on="0"/>
        <pt x="234" y="-244" on="1"/>
        <pt x="239" y="-215" on="1"/>
        <pt x="251" y="-216" on="0"/>
        <pt x="259" y="-210" on="1"/>
        <pt x="268" y="-203" on="0"/>
        <pt x="271" y="-188" on="1"/>
        <pt x="275" y="-165" on="1"/>
      </contour>
      <contour>
        <pt x="80" y="0" on="1"/>
        <pt x="196" y="732" on="1"/>
        <pt x="270" y="732" on="1"/>
        <pt x="218" y="404" on="1"/>
        <pt x="305" y="404" on="1"/>
        <pt x="580" y="732" on="1"/>
        <pt x="672" y="732" on="1"/>
        <pt x="368" y="362" on="1"/>
        <pt x="556" y="0" on="1"/>
        <pt x="467" y="0" on="1"/>
        <pt x="298" y="330" on="1"/>
        <pt x="207" y="330" on="1"/>
        <pt x="155" y="0" on="1"/>
      </contour>
    </TTGlyph>
    <TTGlyph name="L" xMin="96" yMin="0" xMax="534" yMax="732">
      <contour>
        <pt x="228" y="74" on="1"/>
        <pt x="534" y="74" on="1"/>
        <pt x="523" y="0" on="1"/>
        <pt x="215" y="0" on="1"/>
        <pt x="158" y="0" on="0"/>
        <pt x="97" y="54" on="0"/>
        <pt x="97" y="99" on="1"/>
        <pt x="97" y="111" on="0"/>
        <pt x="99" y="126" on="1"/>
        <pt x="197" y="732" on="1"/>
        <pt x="270" y="732" on="1"/>
        <pt x="173" y="126" on="1"/>
        <pt x="167" y="88" on="0"/>
        <pt x="188" y="80" on="1"/>
        <pt x="203" y="74" on="0"/>
      </contour>
    </TTGlyph>
    <TTGlyph name="Lacute" xMin="34" yMin="0" xMax="472" yMax="925">
      <contour>
        <pt x="148" y="792" on="1"/>
        <pt x="276" y="925" on="1"/>
        <pt x="371" y="925" on="1"/>
        <pt x="217" y="792" on="1"/>
      </contour>
      <contour>
        <pt x="166" y="74" on="1"/>
        <pt x="472" y="74" on="1"/>
        <pt x="461" y="0" on="1"/>
        <pt x="153" y="0" on="1"/>
        <pt x="96" y="0" on="0"/>
        <pt x="35" y="54" on="0"/>
        <pt x="35" y="99" on="1"/>
        <pt x="35" y="111" on="0"/>
        <pt x="37" y="126" on="1"/>
        <pt x="135" y="732" on="1"/>
        <pt x="208" y="732" on="1"/>
        <pt x="111" y="126" on="1"/>
        <pt x="105" y="88" on="0"/>
        <pt x="126" y="80" on="1"/>
        <pt x="141" y="74" on="0"/>
      </contour>
    </TTGlyph>
    <TTGlyph name="Lcaron" xMin="96" yMin="0" xMax="534" yMax="772">
      <contour>
        <pt x="228" y="74" on="1"/>
        <pt x="534" y="74" on="1"/>
        <pt x="523" y="0" on="1"/>
        <pt x="215" y="0" on="1"/>
        <pt x="158" y="0" on="0"/>
        <pt x="97" y="54" on="0"/>
        <pt x="97" y="99" on="1"/>
        <pt x="97" y="111" on="0"/>
        <pt x="99" y="126" on="1"/>
        <pt x="197" y="732" on="1"/>
        <pt x="270" y="732" on="1"/>
        <pt x="173" y="126" on="1"/>
        <pt x="167" y="88" on="0"/>
        <pt x="188" y="80" on="1"/>
        <pt x="203" y="74" on="0"/>
      </contour>
      <contour>
        <pt x="327" y="571" on="1"/>
        <pt x="337" y="705" on="1"/>
        <pt x="348" y="772" on="1"/>
        <pt x="422" y="772" on="1"/>
        <pt x="411" y="705" on="1"/>
        <pt x="380" y="571" on="1"/>
      </contour>
    </TTGlyph>
    <TTGlyph name="Lcommaaccent" xMin="96" yMin="-246" xMax="534" yMax="732">
      <contour>
        <pt x="270" y="-165" on="1"/>
        <pt x="260" y="-165" on="0"/>
        <pt x="249" y="-153" on="0"/>
        <pt x="251" y="-142" on="1"/>
        <pt x="258" y="-94" on="1"/>
        <pt x="262" y="-70" on="0"/>
        <pt x="285" y="-70" on="1"/>
        <pt x="331" y="-70" on="1"/>
        <pt x="349" y="-70" on="0"/>
        <pt x="349" y="-88" on="1"/>
        <pt x="349" y="-91" on="0"/>
        <pt x="348" y="-94" on="1"/>
        <pt x="336" y="-175" on="1"/>
        <pt x="332" y="-199" on="0"/>
        <pt x="321" y="-215" on="1"/>
        <pt x="299" y="-246" on="0"/>
        <pt x="254" y="-246" on="1"/>
        <pt x="251" y="-246" on="0"/>
        <pt x="239" y="-244" on="1"/>
        <pt x="244" y="-215" on="1"/>
        <pt x="256" y="-216" on="0"/>
        <pt x="264" y="-210" on="1"/>
        <pt x="273" y="-203" on="0"/>
        <pt x="276" y="-188" on="1"/>
        <pt x="280" y="-165" on="1"/>
      </contour>
      <contour>
        <pt x="228" y="74" on="1"/>
        <pt x="534" y="74" on="1"/>
        <pt x="523" y="0" on="1"/>
        <pt x="215" y="0" on="1"/>
        <pt x="158" y="0" on="0"/>
        <pt x="97" y="54" on="0"/>
        <pt x="97" y="99" on="1"/>
        <pt x="97" y="111" on="0"/>
        <pt x="99" y="126" on="1"/>
        <pt x="197" y="732" on="1"/>
        <pt x="270" y="732" on="1"/>
        <pt x="173" y="126" on="1"/>
        <pt x="167" y="88" on="0"/>
        <pt x="188" y="80" on="1"/>
        <pt x="203" y="74" on="0"/>
      </contour>
    </TTGlyph>
    <TTGlyph name="Lslash" xMin="44" yMin="0" xMax="532" yMax="732">
      <contour>
        <pt x="225" y="74" on="1"/>
        <pt x="532" y="74" on="1"/>
        <pt x="520" y="0" on="1"/>
        <pt x="213" y="0" on="1"/>
        <pt x="156" y="0" on="0"/>
        <pt x="95" y="54" on="0"/>
        <pt x="95" y="99" on="1"/>
        <pt x="95" y="111" on="0"/>
        <pt x="97" y="126" on="1"/>
        <pt x="134" y="357" on="1"/>
        <pt x="44" y="320" on="1"/>
        <pt x="54" y="381" on="1"/>
        <pt x="144" y="417" on="1"/>
        <pt x="194" y="732" on="1"/>
        <pt x="267" y="732" on="1"/>
        <pt x="222" y="449" on="1"/>
        <pt x="371" y="509" on="1"/>
        <pt x="360" y="449" on="1"/>
        <pt x="213" y="389" on="1"/>
        <pt x="171" y="126" on="1"/>
        <pt x="165" y="87" on="0"/>
        <pt x="184" y="80" on="1"/>
        <pt x="200" y="74" on="0"/>
      </contour>
    </TTGlyph>
    <TTGlyph name="M" xMin="71" yMin="0" xMax="822" yMax="732">
      <contour>
        <pt x="71" y="0" on="1"/>
        <pt x="235" y="732" on="1"/>
        <pt x="331" y="732" on="1"/>
        <pt x="433" y="123" on="1"/>
        <pt x="721" y="732" on="1"/>
        <pt x="822" y="732" on="1"/>
        <pt x="762" y="0" on="1"/>
        <pt x="688" y="0" on="1"/>
        <pt x="740" y="599" on="1"/>
        <pt x="455" y="0" on="1"/>
        <pt x="379" y="0" on="1"/>
        <pt x="280" y="598" on="1"/>
        <pt x="145" y="0" on="1"/>
      </contour>
    </TTGlyph>
    <TTGlyph name="M.salt" xMin="55" yMin="0" xMax="801" yMax="740">
      <contour>
        <pt x="627" y="681" on="1"/>
        <pt x="654" y="739" on="0"/>
        <pt x="725" y="739" on="1"/>
        <pt x="745" y="739" on="0"/>
        <pt x="800" y="699" on="0"/>
        <pt x="800" y="657" on="1"/>
        <pt x="800" y="652" on="0"/>
        <pt x="800" y="647" on="1"/>
        <pt x="748" y="0" on="1"/>
        <pt x="672" y="0" on="1"/>
        <pt x="725" y="646" on="1"/>
        <pt x="727" y="659" on="0"/>
        <pt x="702" y="665" on="0"/>
        <pt x="697" y="653" on="1"/>
        <pt x="525" y="243" on="1"/>
        <pt x="512" y="212" on="0"/>
        <pt x="461" y="179" on="0"/>
        <pt x="436" y="179" on="1"/>
        <pt x="408" y="179" on="0"/>
        <pt x="363" y="222" on="0"/>
        <pt x="357" y="261" on="1"/>
        <pt x="300" y="647" on="1"/>
        <pt x="298" y="660" on="0"/>
        <pt x="276" y="662" on="0"/>
        <pt x="272" y="645" on="1"/>
        <pt x="128" y="0" on="1"/>
        <pt x="55" y="0" on="1"/>
        <pt x="198" y="652" on="1"/>
        <pt x="206" y="701" on="0"/>
        <pt x="246" y="724" on="1"/>
        <pt x="268" y="736" on="0"/>
        <pt x="290" y="736" on="1"/>
        <pt x="324" y="728" on="1"/>
        <pt x="364" y="711" on="0"/>
        <pt x="373" y="660" on="1"/>
        <pt x="431" y="270" on="1"/>
        <pt x="432" y="261" on="0"/>
        <pt x="442" y="256" on="0"/>
        <pt x="453" y="263" on="0"/>
        <pt x="456" y="270" on="1"/>
      </contour>
    </TTGlyph>
    <TTGlyph name="N" xMin="80" yMin="0" xMax="715" yMax="732">
      <contour>
        <pt x="80" y="0" on="1"/>
        <pt x="196" y="732" on="1"/>
        <pt x="268" y="732" on="1"/>
        <pt x="547" y="138" on="1"/>
        <pt x="641" y="732" on="1"/>
        <pt x="715" y="732" on="1"/>
        <pt x="599" y="0" on="1"/>
        <pt x="529" y="0" on="1"/>
        <pt x="249" y="594" on="1"/>
        <pt x="155" y="0" on="1"/>
      </contour>
    </TTGlyph>
    <TTGlyph name="N.salt" xMin="80" yMin="0" xMax="730" yMax="738">
      <contour>
        <pt x="224" y="724" on="1"/>
        <pt x="248" y="738" on="0"/>
        <pt x="268" y="738" on="1"/>
        <pt x="336" y="738" on="0"/>
        <pt x="353" y="680" on="1"/>
        <pt x="529" y="86" on="1"/>
        <pt x="533" y="72" on="0"/>
        <pt x="551" y="72" on="0"/>
        <pt x="554" y="89" on="1"/>
        <pt x="656" y="732" on="1"/>
        <pt x="730" y="732" on="1"/>
        <pt x="630" y="80" on="1"/>
        <pt x="622" y="28" on="0"/>
        <pt x="549" y="-18" on="0"/>
        <pt x="469" y="18" on="0"/>
        <pt x="454" y="70" on="1"/>
        <pt x="282" y="652" on="1"/>
        <pt x="280" y="659" on="0"/>
        <pt x="269" y="662" on="0"/>
        <pt x="257" y="653" on="0"/>
        <pt x="256" y="645" on="1"/>
        <pt x="154" y="0" on="1"/>
        <pt x="80" y="0" on="1"/>
        <pt x="181" y="652" on="1"/>
        <pt x="187" y="701" on="0"/>
      </contour>
    </TTGlyph>
    <TTGlyph name="Nacute" xMin="80" yMin="0" xMax="715" yMax="930">
      <contour>
        <pt x="431" y="797" on="1"/>
        <pt x="559" y="930" on="1"/>
        <pt x="654" y="930" on="1"/>
        <pt x="500" y="797" on="1"/>
      </contour>
      <contour>
        <pt x="80" y="0" on="1"/>
        <pt x="196" y="732" on="1"/>
        <pt x="268" y="732" on="1"/>
        <pt x="547" y="138" on="1"/>
        <pt x="641" y="732" on="1"/>
        <pt x="715" y="732" on="1"/>
        <pt x="599" y="0" on="1"/>
        <pt x="529" y="0" on="1"/>
        <pt x="249" y="594" on="1"/>
        <pt x="155" y="0" on="1"/>
      </contour>
    </TTGlyph>
    <TTGlyph name="Nacute.salt" xMin="80" yMin="0" xMax="730" yMax="930">
      <contour>
        <pt x="447" y="797" on="1"/>
        <pt x="575" y="930" on="1"/>
        <pt x="670" y="930" on="1"/>
        <pt x="516" y="797" on="1"/>
      </contour>
      <contour>
        <pt x="224" y="724" on="1"/>
        <pt x="248" y="738" on="0"/>
        <pt x="268" y="738" on="1"/>
        <pt x="336" y="738" on="0"/>
        <pt x="353" y="680" on="1"/>
        <pt x="529" y="86" on="1"/>
        <pt x="533" y="72" on="0"/>
        <pt x="551" y="72" on="0"/>
        <pt x="554" y="89" on="1"/>
        <pt x="656" y="732" on="1"/>
        <pt x="730" y="732" on="1"/>
        <pt x="630" y="80" on="1"/>
        <pt x="622" y="28" on="0"/>
        <pt x="549" y="-18" on="0"/>
        <pt x="469" y="18" on="0"/>
        <pt x="454" y="70" on="1"/>
        <pt x="282" y="652" on="1"/>
        <pt x="280" y="659" on="0"/>
        <pt x="269" y="662" on="0"/>
        <pt x="257" y="653" on="0"/>
        <pt x="256" y="645" on="1"/>
        <pt x="154" y="0" on="1"/>
        <pt x="80" y="0" on="1"/>
        <pt x="181" y="652" on="1"/>
        <pt x="187" y="701" on="0"/>
      </contour>
    </TTGlyph>
    <TTGlyph name="Ncaron" xMin="80" yMin="0" xMax="715" yMax="927">
      <contour>
        <pt x="341" y="927" on="1"/>
        <pt x="406" y="927" on="1"/>
        <pt x="463" y="844" on="1"/>
        <pt x="553" y="927" on="1"/>
        <pt x="633" y="927" on="1"/>
        <pt x="495" y="797" on="1"/>
        <pt x="424" y="797" on="1"/>
      </contour>
      <contour>
        <pt x="80" y="0" on="1"/>
        <pt x="196" y="732" on="1"/>
        <pt x="268" y="732" on="1"/>
        <pt x="547" y="138" on="1"/>
        <pt x="641" y="732" on="1"/>
        <pt x="715" y="732" on="1"/>
        <pt x="599" y="0" on="1"/>
        <pt x="529" y="0" on="1"/>
        <pt x="249" y="594" on="1"/>
        <pt x="155" y="0" on="1"/>
      </contour>
    </TTGlyph>
    <TTGlyph name="Ncaron.salt" xMin="80" yMin="0" xMax="730" yMax="927">
      <contour>
        <pt x="374" y="927" on="1"/>
        <pt x="439" y="927" on="1"/>
        <pt x="496" y="844" on="1"/>
        <pt x="586" y="927" on="1"/>
        <pt x="666" y="927" on="1"/>
        <pt x="528" y="797" on="1"/>
        <pt x="457" y="797" on="1"/>
      </contour>
      <contour>
        <pt x="224" y="724" on="1"/>
        <pt x="248" y="738" on="0"/>
        <pt x="268" y="738" on="1"/>
        <pt x="336" y="738" on="0"/>
        <pt x="353" y="680" on="1"/>
        <pt x="529" y="86" on="1"/>
        <pt x="533" y="72" on="0"/>
        <pt x="551" y="72" on="0"/>
        <pt x="554" y="89" on="1"/>
        <pt x="656" y="732" on="1"/>
        <pt x="730" y="732" on="1"/>
        <pt x="630" y="80" on="1"/>
        <pt x="622" y="28" on="0"/>
        <pt x="549" y="-18" on="0"/>
        <pt x="469" y="18" on="0"/>
        <pt x="454" y="70" on="1"/>
        <pt x="282" y="652" on="1"/>
        <pt x="280" y="659" on="0"/>
        <pt x="269" y="662" on="0"/>
        <pt x="257" y="653" on="0"/>
        <pt x="256" y="645" on="1"/>
        <pt x="154" y="0" on="1"/>
        <pt x="80" y="0" on="1"/>
        <pt x="181" y="652" on="1"/>
        <pt x="187" y="701" on="0"/>
      </contour>
    </TTGlyph>
    <TTGlyph name="Ncommaaccent" xMin="80" yMin="-246" xMax="715" yMax="732">
      <contour>
        <pt x="311" y="-165" on="1"/>
        <pt x="301" y="-165" on="0"/>
        <pt x="290" y="-153" on="0"/>
        <pt x="292" y="-142" on="1"/>
        <pt x="299" y="-94" on="1"/>
        <pt x="303" y="-70" on="0"/>
        <pt x="326" y="-70" on="1"/>
        <pt x="372" y="-70" on="1"/>
        <pt x="390" y="-70" on="0"/>
        <pt x="390" y="-88" on="1"/>
        <pt x="390" y="-91" on="0"/>
        <pt x="389" y="-94" on="1"/>
        <pt x="377" y="-175" on="1"/>
        <pt x="373" y="-199" on="0"/>
        <pt x="362" y="-215" on="1"/>
        <pt x="340" y="-246" on="0"/>
        <pt x="295" y="-246" on="1"/>
        <pt x="292" y="-246" on="0"/>
        <pt x="280" y="-244" on="1"/>
        <pt x="285" y="-215" on="1"/>
        <pt x="297" y="-216" on="0"/>
        <pt x="305" y="-210" on="1"/>
        <pt x="314" y="-203" on="0"/>
        <pt x="317" y="-188" on="1"/>
        <pt x="321" y="-165" on="1"/>
      </contour>
      <contour>
        <pt x="80" y="0" on="1"/>
        <pt x="196" y="732" on="1"/>
        <pt x="268" y="732" on="1"/>
        <pt x="547" y="138" on="1"/>
        <pt x="641" y="732" on="1"/>
        <pt x="715" y="732" on="1"/>
        <pt x="599" y="0" on="1"/>
        <pt x="529" y="0" on="1"/>
        <pt x="249" y="594" on="1"/>
        <pt x="155" y="0" on="1"/>
      </contour>
    </TTGlyph>
    <TTGlyph name="Ncommaaccent.salt" xMin="80" yMin="-253" xMax="730" yMax="738">
      <contour>
        <pt x="295" y="-172" on="1"/>
        <pt x="285" y="-172" on="0"/>
        <pt x="274" y="-160" on="0"/>
        <pt x="276" y="-150" on="1"/>
        <pt x="283" y="-101" on="1"/>
        <pt x="287" y="-77" on="0"/>
        <pt x="310" y="-77" on="1"/>
        <pt x="356" y="-77" on="1"/>
        <pt x="374" y="-77" on="0"/>
        <pt x="374" y="-95" on="1"/>
        <pt x="374" y="-98" on="0"/>
        <pt x="373" y="-101" on="1"/>
        <pt x="361" y="-182" on="1"/>
        <pt x="357" y="-206" on="0"/>
        <pt x="346" y="-222" on="1"/>
        <pt x="324" y="-253" on="0"/>
        <pt x="279" y="-253" on="1"/>
        <pt x="276" y="-253" on="0"/>
        <pt x="264" y="-251" on="1"/>
        <pt x="269" y="-222" on="1"/>
        <pt x="281" y="-223" on="0"/>
        <pt x="289" y="-217" on="1"/>
        <pt x="298" y="-210" on="0"/>
        <pt x="301" y="-194" on="1"/>
        <pt x="305" y="-172" on="1"/>
      </contour>
      <contour>
        <pt x="224" y="724" on="1"/>
        <pt x="248" y="738" on="0"/>
        <pt x="268" y="738" on="1"/>
        <pt x="336" y="738" on="0"/>
        <pt x="353" y="680" on="1"/>
        <pt x="529" y="86" on="1"/>
        <pt x="533" y="72" on="0"/>
        <pt x="551" y="72" on="0"/>
        <pt x="554" y="89" on="1"/>
        <pt x="656" y="732" on="1"/>
        <pt x="730" y="732" on="1"/>
        <pt x="630" y="80" on="1"/>
        <pt x="622" y="28" on="0"/>
        <pt x="549" y="-18" on="0"/>
        <pt x="469" y="18" on="0"/>
        <pt x="454" y="70" on="1"/>
        <pt x="282" y="652" on="1"/>
        <pt x="280" y="659" on="0"/>
        <pt x="269" y="662" on="0"/>
        <pt x="257" y="653" on="0"/>
        <pt x="256" y="645" on="1"/>
        <pt x="154" y="0" on="1"/>
        <pt x="80" y="0" on="1"/>
        <pt x="181" y="652" on="1"/>
        <pt x="187" y="701" on="0"/>
      </contour>
    </TTGlyph>
    <TTGlyph name="Ntilde" xMin="80" yMin="0" xMax="715" yMax="897">
      <contour>
        <pt x="451" y="895" on="0"/>
        <pt x="511" y="863" on="0"/>
        <pt x="524" y="863" on="0"/>
        <pt x="541" y="863" on="0"/>
        <pt x="615" y="892" on="0"/>
        <pt x="623" y="897" on="1"/>
        <pt x="638" y="855" on="1"/>
        <pt x="629" y="849" on="0"/>
        <pt x="586" y="820" on="0"/>
        <pt x="574" y="813" on="1"/>
        <pt x="513" y="776" on="0"/>
        <pt x="454" y="810" on="1"/>
        <pt x="426" y="827" on="0"/>
        <pt x="390" y="827" on="0"/>
        <pt x="359" y="817" on="0"/>
        <pt x="316" y="795" on="0"/>
        <pt x="310" y="792" on="1"/>
        <pt x="295" y="833" on="1"/>
        <pt x="325" y="855" on="0"/>
        <pt x="340" y="866" on="1"/>
        <pt x="387" y="897" on="0"/>
        <pt x="423" y="897" on="1"/>
      </contour>
      <contour>
        <pt x="80" y="0" on="1"/>
        <pt x="196" y="732" on="1"/>
        <pt x="268" y="732" on="1"/>
        <pt x="547" y="138" on="1"/>
        <pt x="641" y="732" on="1"/>
        <pt x="715" y="732" on="1"/>
        <pt x="599" y="0" on="1"/>
        <pt x="529" y="0" on="1"/>
        <pt x="249" y="594" on="1"/>
        <pt x="155" y="0" on="1"/>
      </contour>
    </TTGlyph>
    <TTGlyph name="Ntilde.salt" xMin="80" yMin="0" xMax="730" yMax="902">
      <contour>
        <pt x="439" y="900" on="0"/>
        <pt x="499" y="868" on="0"/>
        <pt x="512" y="868" on="0"/>
        <pt x="529" y="868" on="0"/>
        <pt x="603" y="897" on="0"/>
        <pt x="611" y="902" on="1"/>
        <pt x="626" y="860" on="1"/>
        <pt x="617" y="854" on="0"/>
        <pt x="574" y="825" on="0"/>
        <pt x="562" y="818" on="1"/>
        <pt x="501" y="781" on="0"/>
        <pt x="442" y="816" on="1"/>
        <pt x="414" y="832" on="0"/>
        <pt x="378" y="832" on="0"/>
        <pt x="347" y="822" on="0"/>
        <pt x="304" y="800" on="0"/>
        <pt x="298" y="797" on="1"/>
        <pt x="283" y="838" on="1"/>
        <pt x="313" y="860" on="0"/>
        <pt x="328" y="870" on="1"/>
        <pt x="375" y="902" on="0"/>
        <pt x="411" y="902" on="1"/>
      </contour>
      <contour>
        <pt x="224" y="724" on="1"/>
        <pt x="248" y="738" on="0"/>
        <pt x="268" y="738" on="1"/>
        <pt x="336" y="738" on="0"/>
        <pt x="353" y="680" on="1"/>
        <pt x="529" y="86" on="1"/>
        <pt x="533" y="72" on="0"/>
        <pt x="551" y="72" on="0"/>
        <pt x="554" y="89" on="1"/>
        <pt x="656" y="732" on="1"/>
        <pt x="730" y="732" on="1"/>
        <pt x="630" y="80" on="1"/>
        <pt x="622" y="28" on="0"/>
        <pt x="549" y="-18" on="0"/>
        <pt x="469" y="18" on="0"/>
        <pt x="454" y="70" on="1"/>
        <pt x="282" y="652" on="1"/>
        <pt x="280" y="659" on="0"/>
        <pt x="269" y="662" on="0"/>
        <pt x="257" y="653" on="0"/>
        <pt x="256" y="645" on="1"/>
        <pt x="154" y="0" on="1"/>
        <pt x="80" y="0" on="1"/>
        <pt x="181" y="652" on="1"/>
        <pt x="187" y="701" on="0"/>
      </contour>
    </TTGlyph>
    <TTGlyph name="O" xMin="102" yMin="-4" xMax="694" yMax="737">
      <contour>
        <pt x="312" y="725" on="0"/>
        <pt x="389" y="737" on="0"/>
        <pt x="488" y="737" on="0"/>
        <pt x="549" y="730" on="0"/>
        <pt x="609" y="710" on="0"/>
        <pt x="629" y="693" on="1"/>
        <pt x="675" y="653" on="0"/>
        <pt x="688" y="580" on="1"/>
        <pt x="693" y="546" on="0"/>
        <pt x="693" y="493" on="0"/>
        <pt x="692" y="431" on="0"/>
        <pt x="669" y="281" on="0"/>
        <pt x="635" y="163" on="0"/>
        <pt x="588" y="83" on="0"/>
        <pt x="537" y="32" on="0"/>
        <pt x="502" y="18" on="1"/>
        <pt x="442" y="-4" on="0"/>
        <pt x="350" y="-4" on="1"/>
        <pt x="223" y="-4" on="0"/>
        <pt x="172" y="34" on="1"/>
        <pt x="124" y="71" on="0"/>
        <pt x="110" y="143" on="1"/>
        <pt x="103" y="177" on="0"/>
        <pt x="103" y="230" on="0"/>
        <pt x="104" y="291" on="0"/>
        <pt x="131" y="462" on="0"/>
        <pt x="178" y="601" on="0"/>
        <pt x="231" y="682" on="0"/>
      </contour>
      <contour>
        <pt x="224" y="519" on="0"/>
        <pt x="199" y="424" on="0"/>
        <pt x="177" y="284" on="0"/>
        <pt x="176" y="229" on="0"/>
        <pt x="176" y="178" on="0"/>
        <pt x="194" y="115" on="0"/>
        <pt x="243" y="81" on="0"/>
        <pt x="303" y="70" on="0"/>
        <pt x="410" y="70" on="0"/>
        <pt x="484" y="91" on="0"/>
        <pt x="517" y="122" on="1"/>
        <pt x="580" y="181" on="0"/>
        <pt x="607" y="361" on="1"/>
        <pt x="620" y="441" on="0"/>
        <pt x="620" y="550" on="0"/>
        <pt x="607" y="595" on="0"/>
        <pt x="594" y="625" on="0"/>
        <pt x="565" y="646" on="0"/>
        <pt x="543" y="657" on="0"/>
        <pt x="522" y="660" on="1"/>
        <pt x="491" y="663" on="0"/>
        <pt x="410" y="663" on="0"/>
        <pt x="373" y="661" on="0"/>
        <pt x="318" y="650" on="0"/>
        <pt x="288" y="627" on="0"/>
        <pt x="249" y="584" on="0"/>
      </contour>
    </TTGlyph>
    <TTGlyph name="OE" xMin="91" yMin="-4" xMax="1096" yMax="737">
      <contour>
        <pt x="301" y="725" on="0"/>
        <pt x="378" y="737" on="0"/>
        <pt x="517" y="737" on="0"/>
        <pt x="621" y="702" on="0"/>
        <pt x="650" y="655" on="1"/>
        <pt x="678" y="732" on="0"/>
        <pt x="771" y="732" on="1"/>
        <pt x="776" y="732" on="0"/>
        <pt x="782" y="732" on="1"/>
        <pt x="1096" y="716" on="1"/>
        <pt x="1087" y="658" on="1"/>
        <pt x="770" y="658" on="1"/>
        <pt x="738" y="658" on="0"/>
        <pt x="713" y="628" on="0"/>
        <pt x="709" y="602" on="1"/>
        <pt x="678" y="402" on="1"/>
        <pt x="1005" y="392" on="1"/>
        <pt x="996" y="333" on="1"/>
        <pt x="665" y="323" on="1"/>
        <pt x="633" y="123" on="1"/>
        <pt x="629" y="84" on="0"/>
        <pt x="648" y="77" on="1"/>
        <pt x="663" y="71" on="0"/>
        <pt x="688" y="71" on="1"/>
        <pt x="995" y="71" on="1"/>
        <pt x="985" y="14" on="1"/>
        <pt x="676" y="-3" on="1"/>
        <pt x="672" y="-3" on="0"/>
        <pt x="668" y="-3" on="1"/>
        <pt x="632" y="-3" on="0"/>
        <pt x="571" y="30" on="0"/>
        <pt x="561" y="67" on="1"/>
        <pt x="522" y="26" on="0"/>
        <pt x="416" y="-4" on="0"/>
        <pt x="300" y="-4" on="0"/>
        <pt x="244" y="1" on="0"/>
        <pt x="182" y="19" on="0"/>
        <pt x="162" y="34" on="1"/>
        <pt x="113" y="71" on="0"/>
        <pt x="98" y="143" on="1"/>
        <pt x="92" y="177" on="0"/>
        <pt x="92" y="230" on="0"/>
        <pt x="93" y="291" on="0"/>
        <pt x="120" y="462" on="0"/>
        <pt x="167" y="601" on="0"/>
        <pt x="220" y="682" on="0"/>
      </contour>
      <contour>
        <pt x="213" y="519" on="0"/>
        <pt x="188" y="424" on="0"/>
        <pt x="166" y="284" on="0"/>
        <pt x="165" y="229" on="0"/>
        <pt x="165" y="178" on="0"/>
        <pt x="183" y="115" on="0"/>
        <pt x="232" y="81" on="0"/>
        <pt x="292" y="70" on="0"/>
        <pt x="399" y="70" on="0"/>
        <pt x="473" y="91" on="0"/>
        <pt x="506" y="122" on="1"/>
        <pt x="569" y="181" on="0"/>
        <pt x="596" y="361" on="1"/>
        <pt x="609" y="441" on="0"/>
        <pt x="609" y="550" on="0"/>
        <pt x="596" y="595" on="0"/>
        <pt x="583" y="625" on="0"/>
        <pt x="554" y="646" on="0"/>
        <pt x="532" y="657" on="0"/>
        <pt x="510" y="660" on="1"/>
        <pt x="480" y="663" on="0"/>
        <pt x="399" y="663" on="0"/>
        <pt x="362" y="661" on="0"/>
        <pt x="307" y="650" on="0"/>
        <pt x="277" y="627" on="0"/>
        <pt x="238" y="584" on="0"/>
      </contour>
    </TTGlyph>
    <TTGlyph name="Oacute" xMin="102" yMin="-4" xMax="694" yMax="930">
      <contour>
        <pt x="423" y="797" on="1"/>
        <pt x="551" y="930" on="1"/>
        <pt x="646" y="930" on="1"/>
        <pt x="492" y="797" on="1"/>
      </contour>
      <contour>
        <pt x="312" y="725" on="0"/>
        <pt x="389" y="737" on="0"/>
        <pt x="488" y="737" on="0"/>
        <pt x="549" y="730" on="0"/>
        <pt x="609" y="710" on="0"/>
        <pt x="629" y="693" on="1"/>
        <pt x="675" y="653" on="0"/>
        <pt x="688" y="580" on="1"/>
        <pt x="693" y="546" on="0"/>
        <pt x="693" y="493" on="0"/>
        <pt x="692" y="431" on="0"/>
        <pt x="669" y="281" on="0"/>
        <pt x="635" y="163" on="0"/>
        <pt x="588" y="83" on="0"/>
        <pt x="537" y="32" on="0"/>
        <pt x="502" y="18" on="1"/>
        <pt x="442" y="-4" on="0"/>
        <pt x="350" y="-4" on="1"/>
        <pt x="223" y="-4" on="0"/>
        <pt x="172" y="34" on="1"/>
        <pt x="124" y="71" on="0"/>
        <pt x="110" y="143" on="1"/>
        <pt x="103" y="177" on="0"/>
        <pt x="103" y="230" on="0"/>
        <pt x="104" y="291" on="0"/>
        <pt x="131" y="462" on="0"/>
        <pt x="178" y="601" on="0"/>
        <pt x="231" y="682" on="0"/>
      </contour>
      <contour>
        <pt x="224" y="519" on="0"/>
        <pt x="199" y="424" on="0"/>
        <pt x="177" y="284" on="0"/>
        <pt x="176" y="229" on="0"/>
        <pt x="176" y="178" on="0"/>
        <pt x="194" y="115" on="0"/>
        <pt x="243" y="81" on="0"/>
        <pt x="303" y="70" on="0"/>
        <pt x="410" y="70" on="0"/>
        <pt x="484" y="91" on="0"/>
        <pt x="517" y="122" on="1"/>
        <pt x="580" y="181" on="0"/>
        <pt x="607" y="361" on="1"/>
        <pt x="620" y="441" on="0"/>
        <pt x="620" y="550" on="0"/>
        <pt x="607" y="595" on="0"/>
        <pt x="594" y="625" on="0"/>
        <pt x="565" y="646" on="0"/>
        <pt x="543" y="657" on="0"/>
        <pt x="522" y="660" on="1"/>
        <pt x="491" y="663" on="0"/>
        <pt x="410" y="663" on="0"/>
        <pt x="373" y="661" on="0"/>
        <pt x="318" y="650" on="0"/>
        <pt x="288" y="627" on="0"/>
        <pt x="249" y="584" on="0"/>
      </contour>
    </TTGlyph>
    <TTGlyph name="Ocircumflex" xMin="102" yMin="-4" xMax="694" yMax="927">
      <contour>
        <pt x="312" y="797" on="1"/>
        <pt x="450" y="927" on="1"/>
        <pt x="521" y="927" on="1"/>
        <pt x="604" y="797" on="1"/>
        <pt x="539" y="797" on="1"/>
        <pt x="482" y="880" on="1"/>
        <pt x="392" y="797" on="1"/>
      </contour>
      <contour>
        <pt x="312" y="725" on="0"/>
        <pt x="389" y="737" on="0"/>
        <pt x="488" y="737" on="0"/>
        <pt x="549" y="730" on="0"/>
        <pt x="609" y="710" on="0"/>
        <pt x="629" y="693" on="1"/>
        <pt x="675" y="653" on="0"/>
        <pt x="688" y="580" on="1"/>
        <pt x="693" y="546" on="0"/>
        <pt x="693" y="493" on="0"/>
        <pt x="692" y="431" on="0"/>
        <pt x="669" y="281" on="0"/>
        <pt x="635" y="163" on="0"/>
        <pt x="588" y="83" on="0"/>
        <pt x="537" y="32" on="0"/>
        <pt x="502" y="18" on="1"/>
        <pt x="442" y="-4" on="0"/>
        <pt x="350" y="-4" on="1"/>
        <pt x="223" y="-4" on="0"/>
        <pt x="172" y="34" on="1"/>
        <pt x="124" y="71" on="0"/>
        <pt x="110" y="143" on="1"/>
        <pt x="103" y="177" on="0"/>
        <pt x="103" y="230" on="0"/>
        <pt x="104" y="291" on="0"/>
        <pt x="131" y="462" on="0"/>
        <pt x="178" y="601" on="0"/>
        <pt x="231" y="682" on="0"/>
      </contour>
      <contour>
        <pt x="224" y="519" on="0"/>
        <pt x="199" y="424" on="0"/>
        <pt x="177" y="284" on="0"/>
        <pt x="176" y="229" on="0"/>
        <pt x="176" y="178" on="0"/>
        <pt x="194" y="115" on="0"/>
        <pt x="243" y="81" on="0"/>
        <pt x="303" y="70" on="0"/>
        <pt x="410" y="70" on="0"/>
        <pt x="484" y="91" on="0"/>
        <pt x="517" y="122" on="1"/>
        <pt x="580" y="181" on="0"/>
        <pt x="607" y="361" on="1"/>
        <pt x="620" y="441" on="0"/>
        <pt x="620" y="550" on="0"/>
        <pt x="607" y="595" on="0"/>
        <pt x="594" y="625" on="0"/>
        <pt x="565" y="646" on="0"/>
        <pt x="543" y="657" on="0"/>
        <pt x="522" y="660" on="1"/>
        <pt x="491" y="663" on="0"/>
        <pt x="410" y="663" on="0"/>
        <pt x="373" y="661" on="0"/>
        <pt x="318" y="650" on="0"/>
        <pt x="288" y="627" on="0"/>
        <pt x="249" y="584" on="0"/>
      </contour>
    </TTGlyph>
    <TTGlyph name="Odieresis" xMin="102" yMin="-4" xMax="694" yMax="898">
      <contour>
        <pt x="326" y="898" on="0"/>
        <pt x="368" y="898" on="0"/>
        <pt x="389" y="872" on="0"/>
        <pt x="389" y="852" on="0"/>
        <pt x="387" y="834" on="0"/>
        <pt x="378" y="822" on="1"/>
        <pt x="360" y="797" on="0"/>
        <pt x="310" y="797" on="0"/>
        <pt x="287" y="824" on="0"/>
        <pt x="287" y="834" on="1"/>
        <pt x="287" y="866" on="0"/>
      </contour>
      <contour>
        <pt x="581" y="898" on="0"/>
        <pt x="623" y="898" on="0"/>
        <pt x="644" y="872" on="0"/>
        <pt x="644" y="862" on="1"/>
        <pt x="644" y="830" on="0"/>
        <pt x="607" y="797" on="0"/>
        <pt x="565" y="797" on="0"/>
        <pt x="542" y="824" on="0"/>
        <pt x="542" y="834" on="1"/>
        <pt x="542" y="866" on="0"/>
      </contour>
      <contour>
        <pt x="312" y="725" on="0"/>
        <pt x="389" y="737" on="0"/>
        <pt x="488" y="737" on="0"/>
        <pt x="549" y="730" on="0"/>
        <pt x="609" y="710" on="0"/>
        <pt x="629" y="693" on="1"/>
        <pt x="675" y="653" on="0"/>
        <pt x="688" y="580" on="1"/>
        <pt x="693" y="546" on="0"/>
        <pt x="693" y="493" on="0"/>
        <pt x="692" y="431" on="0"/>
        <pt x="669" y="281" on="0"/>
        <pt x="635" y="163" on="0"/>
        <pt x="588" y="83" on="0"/>
        <pt x="537" y="32" on="0"/>
        <pt x="502" y="18" on="1"/>
        <pt x="442" y="-4" on="0"/>
        <pt x="350" y="-4" on="1"/>
        <pt x="223" y="-4" on="0"/>
        <pt x="172" y="34" on="1"/>
        <pt x="124" y="71" on="0"/>
        <pt x="110" y="143" on="1"/>
        <pt x="103" y="177" on="0"/>
        <pt x="103" y="230" on="0"/>
        <pt x="104" y="291" on="0"/>
        <pt x="131" y="462" on="0"/>
        <pt x="178" y="601" on="0"/>
        <pt x="231" y="682" on="0"/>
      </contour>
      <contour>
        <pt x="224" y="519" on="0"/>
        <pt x="199" y="424" on="0"/>
        <pt x="177" y="284" on="0"/>
        <pt x="176" y="229" on="0"/>
        <pt x="176" y="178" on="0"/>
        <pt x="194" y="115" on="0"/>
        <pt x="243" y="81" on="0"/>
        <pt x="303" y="70" on="0"/>
        <pt x="410" y="70" on="0"/>
        <pt x="484" y="91" on="0"/>
        <pt x="517" y="122" on="1"/>
        <pt x="580" y="181" on="0"/>
        <pt x="607" y="361" on="1"/>
        <pt x="620" y="441" on="0"/>
        <pt x="620" y="550" on="0"/>
        <pt x="607" y="595" on="0"/>
        <pt x="594" y="625" on="0"/>
        <pt x="565" y="646" on="0"/>
        <pt x="543" y="657" on="0"/>
        <pt x="522" y="660" on="1"/>
        <pt x="491" y="663" on="0"/>
        <pt x="410" y="663" on="0"/>
        <pt x="373" y="661" on="0"/>
        <pt x="318" y="650" on="0"/>
        <pt x="288" y="627" on="0"/>
        <pt x="249" y="584" on="0"/>
      </contour>
    </TTGlyph>
    <TTGlyph name="Ograve" xMin="102" yMin="-4" xMax="694" yMax="930">
      <contour>
        <pt x="299" y="930" on="1"/>
        <pt x="386" y="930" on="1"/>
        <pt x="492" y="797" on="1"/>
        <pt x="423" y="797" on="1"/>
      </contour>
      <contour>
        <pt x="312" y="725" on="0"/>
        <pt x="389" y="737" on="0"/>
        <pt x="488" y="737" on="0"/>
        <pt x="549" y="730" on="0"/>
        <pt x="609" y="710" on="0"/>
        <pt x="629" y="693" on="1"/>
        <pt x="675" y="653" on="0"/>
        <pt x="688" y="580" on="1"/>
        <pt x="693" y="546" on="0"/>
        <pt x="693" y="493" on="0"/>
        <pt x="692" y="431" on="0"/>
        <pt x="669" y="281" on="0"/>
        <pt x="635" y="163" on="0"/>
        <pt x="588" y="83" on="0"/>
        <pt x="537" y="32" on="0"/>
        <pt x="502" y="18" on="1"/>
        <pt x="442" y="-4" on="0"/>
        <pt x="350" y="-4" on="1"/>
        <pt x="223" y="-4" on="0"/>
        <pt x="172" y="34" on="1"/>
        <pt x="124" y="71" on="0"/>
        <pt x="110" y="143" on="1"/>
        <pt x="103" y="177" on="0"/>
        <pt x="103" y="230" on="0"/>
        <pt x="104" y="291" on="0"/>
        <pt x="131" y="462" on="0"/>
        <pt x="178" y="601" on="0"/>
        <pt x="231" y="682" on="0"/>
      </contour>
      <contour>
        <pt x="224" y="519" on="0"/>
        <pt x="199" y="424" on="0"/>
        <pt x="177" y="284" on="0"/>
        <pt x="176" y="229" on="0"/>
        <pt x="176" y="178" on="0"/>
        <pt x="194" y="115" on="0"/>
        <pt x="243" y="81" on="0"/>
        <pt x="303" y="70" on="0"/>
        <pt x="410" y="70" on="0"/>
        <pt x="484" y="91" on="0"/>
        <pt x="517" y="122" on="1"/>
        <pt x="580" y="181" on="0"/>
        <pt x="607" y="361" on="1"/>
        <pt x="620" y="441" on="0"/>
        <pt x="620" y="550" on="0"/>
        <pt x="607" y="595" on="0"/>
        <pt x="594" y="625" on="0"/>
        <pt x="565" y="646" on="0"/>
        <pt x="543" y="657" on="0"/>
        <pt x="522" y="660" on="1"/>
        <pt x="491" y="663" on="0"/>
        <pt x="410" y="663" on="0"/>
        <pt x="373" y="661" on="0"/>
        <pt x="318" y="650" on="0"/>
        <pt x="288" y="627" on="0"/>
        <pt x="249" y="584" on="0"/>
      </contour>
    </TTGlyph>
    <TTGlyph name="Ohungarumlaut" xMin="102" yMin="-4" xMax="714" yMax="930">
      <contour>
        <pt x="356" y="797" on="1"/>
        <pt x="484" y="930" on="1"/>
        <pt x="579" y="930" on="1"/>
        <pt x="425" y="797" on="1"/>
      </contour>
      <contour>
        <pt x="491" y="797" on="1"/>
        <pt x="619" y="930" on="1"/>
        <pt x="714" y="930" on="1"/>
        <pt x="560" y="797" on="1"/>
      </contour>
      <contour>
        <pt x="312" y="725" on="0"/>
        <pt x="389" y="737" on="0"/>
        <pt x="488" y="737" on="0"/>
        <pt x="549" y="730" on="0"/>
        <pt x="609" y="710" on="0"/>
        <pt x="629" y="693" on="1"/>
        <pt x="675" y="653" on="0"/>
        <pt x="688" y="580" on="1"/>
        <pt x="693" y="546" on="0"/>
        <pt x="693" y="493" on="0"/>
        <pt x="692" y="431" on="0"/>
        <pt x="669" y="281" on="0"/>
        <pt x="635" y="163" on="0"/>
        <pt x="588" y="83" on="0"/>
        <pt x="537" y="32" on="0"/>
        <pt x="502" y="18" on="1"/>
        <pt x="442" y="-4" on="0"/>
        <pt x="350" y="-4" on="1"/>
        <pt x="223" y="-4" on="0"/>
        <pt x="172" y="34" on="1"/>
        <pt x="124" y="71" on="0"/>
        <pt x="110" y="143" on="1"/>
        <pt x="103" y="177" on="0"/>
        <pt x="103" y="230" on="0"/>
        <pt x="104" y="291" on="0"/>
        <pt x="131" y="462" on="0"/>
        <pt x="178" y="601" on="0"/>
        <pt x="231" y="682" on="0"/>
      </contour>
      <contour>
        <pt x="224" y="519" on="0"/>
        <pt x="199" y="424" on="0"/>
        <pt x="177" y="284" on="0"/>
        <pt x="176" y="229" on="0"/>
        <pt x="176" y="178" on="0"/>
        <pt x="194" y="115" on="0"/>
        <pt x="243" y="81" on="0"/>
        <pt x="303" y="70" on="0"/>
        <pt x="410" y="70" on="0"/>
        <pt x="484" y="91" on="0"/>
        <pt x="517" y="122" on="1"/>
        <pt x="580" y="181" on="0"/>
        <pt x="607" y="361" on="1"/>
        <pt x="620" y="441" on="0"/>
        <pt x="620" y="550" on="0"/>
        <pt x="607" y="595" on="0"/>
        <pt x="594" y="625" on="0"/>
        <pt x="565" y="646" on="0"/>
        <pt x="543" y="657" on="0"/>
        <pt x="522" y="660" on="1"/>
        <pt x="491" y="663" on="0"/>
        <pt x="410" y="663" on="0"/>
        <pt x="373" y="661" on="0"/>
        <pt x="318" y="650" on="0"/>
        <pt x="288" y="627" on="0"/>
        <pt x="249" y="584" on="0"/>
      </contour>
    </TTGlyph>
    <TTGlyph name="Omacron" xMin="102" yMin="-4" xMax="694" yMax="855">
      <contour>
        <pt x="319" y="792" on="1"/>
        <pt x="329" y="855" on="1"/>
        <pt x="621" y="855" on="1"/>
        <pt x="611" y="792" on="1"/>
      </contour>
      <contour>
        <pt x="312" y="725" on="0"/>
        <pt x="389" y="737" on="0"/>
        <pt x="488" y="737" on="0"/>
        <pt x="549" y="730" on="0"/>
        <pt x="609" y="710" on="0"/>
        <pt x="629" y="693" on="1"/>
        <pt x="675" y="653" on="0"/>
        <pt x="688" y="580" on="1"/>
        <pt x="693" y="546" on="0"/>
        <pt x="693" y="493" on="0"/>
        <pt x="692" y="431" on="0"/>
        <pt x="669" y="281" on="0"/>
        <pt x="635" y="163" on="0"/>
        <pt x="588" y="83" on="0"/>
        <pt x="537" y="32" on="0"/>
        <pt x="502" y="18" on="1"/>
        <pt x="442" y="-4" on="0"/>
        <pt x="350" y="-4" on="1"/>
        <pt x="223" y="-4" on="0"/>
        <pt x="172" y="34" on="1"/>
        <pt x="124" y="71" on="0"/>
        <pt x="110" y="143" on="1"/>
        <pt x="103" y="177" on="0"/>
        <pt x="103" y="230" on="0"/>
        <pt x="104" y="291" on="0"/>
        <pt x="131" y="462" on="0"/>
        <pt x="178" y="601" on="0"/>
        <pt x="231" y="682" on="0"/>
      </contour>
      <contour>
        <pt x="224" y="519" on="0"/>
        <pt x="199" y="424" on="0"/>
        <pt x="177" y="284" on="0"/>
        <pt x="176" y="229" on="0"/>
        <pt x="176" y="178" on="0"/>
        <pt x="194" y="115" on="0"/>
        <pt x="243" y="81" on="0"/>
        <pt x="303" y="70" on="0"/>
        <pt x="410" y="70" on="0"/>
        <pt x="484" y="91" on="0"/>
        <pt x="517" y="122" on="1"/>
        <pt x="580" y="181" on="0"/>
        <pt x="607" y="361" on="1"/>
        <pt x="620" y="441" on="0"/>
        <pt x="620" y="550" on="0"/>
        <pt x="607" y="595" on="0"/>
        <pt x="594" y="625" on="0"/>
        <pt x="565" y="646" on="0"/>
        <pt x="543" y="657" on="0"/>
        <pt x="522" y="660" on="1"/>
        <pt x="491" y="663" on="0"/>
        <pt x="410" y="663" on="0"/>
        <pt x="373" y="661" on="0"/>
        <pt x="318" y="650" on="0"/>
        <pt x="288" y="627" on="0"/>
        <pt x="249" y="584" on="0"/>
      </contour>
    </TTGlyph>
    <TTGlyph name="Omega" xMin="71" yMin="0" xMax="778" yMax="739">
      <contour>
        <pt x="135" y="178" on="0"/>
        <pt x="117" y="239" on="0"/>
        <pt x="116" y="283" on="0"/>
        <pt x="116" y="301" on="1"/>
        <pt x="116" y="335" on="0"/>
        <pt x="137" y="439" on="0"/>
        <pt x="168" y="529" on="0"/>
        <pt x="228" y="626" on="0"/>
        <pt x="308" y="694" on="0"/>
        <pt x="432" y="739" on="0"/>
        <pt x="589" y="739" on="0"/>
        <pt x="706" y="679" on="0"/>
        <pt x="734" y="630" on="1"/>
        <pt x="778" y="552" on="0"/>
        <pt x="778" y="458" on="1"/>
        <pt x="778" y="421" on="0"/>
        <pt x="761" y="329" on="0"/>
        <pt x="745" y="262" on="0"/>
        <pt x="727" y="219" on="1"/>
        <pt x="693" y="138" on="0"/>
        <pt x="598" y="77" on="1"/>
        <pt x="725" y="67" on="1"/>
        <pt x="714" y="0" on="1"/>
        <pt x="486" y="0" on="1"/>
        <pt x="499" y="78" on="1"/>
        <pt x="577" y="124" on="0"/>
        <pt x="615" y="170" on="1"/>
        <pt x="656" y="221" on="0"/>
        <pt x="668" y="259" on="1"/>
        <pt x="704" y="374" on="0"/>
        <pt x="704" y="479" on="1"/>
        <pt x="704" y="555" on="0"/>
        <pt x="659" y="608" on="1"/>
        <pt x="612" y="665" on="0"/>
        <pt x="364" y="665" on="0"/>
        <pt x="218" y="504" on="0"/>
        <pt x="199" y="380" on="1"/>
        <pt x="188" y="315" on="0"/>
        <pt x="188" y="222" on="0"/>
        <pt x="240" y="135" on="0"/>
        <pt x="304" y="78" on="1"/>
        <pt x="291" y="0" on="1"/>
        <pt x="71" y="0" on="1"/>
        <pt x="82" y="68" on="1"/>
        <pt x="217" y="78" on="1"/>
        <pt x="181" y="107" on="0"/>
      </contour>
    </TTGlyph>
    <TTGlyph name="Oslash" xMin="69" yMin="-4" xMax="716" yMax="737">
      <contour>
        <pt x="100" y="225" on="1"/>
        <pt x="100" y="285" on="0"/>
        <pt x="128" y="462" on="0"/>
        <pt x="175" y="601" on="0"/>
        <pt x="228" y="682" on="0"/>
        <pt x="309" y="725" on="0"/>
        <pt x="386" y="737" on="0"/>
        <pt x="445" y="737" on="1"/>
        <pt x="572" y="737" on="0"/>
        <pt x="625" y="694" on="1"/>
        <pt x="655" y="732" on="1"/>
        <pt x="716" y="732" on="1"/>
        <pt x="657" y="658" on="1"/>
        <pt x="690" y="604" on="0"/>
        <pt x="690" y="502" on="1"/>
        <pt x="690" y="440" on="0"/>
        <pt x="666" y="281" on="0"/>
        <pt x="632" y="163" on="0"/>
        <pt x="585" y="83" on="0"/>
        <pt x="534" y="32" on="0"/>
        <pt x="498" y="18" on="1"/>
        <pt x="439" y="-4" on="0"/>
        <pt x="347" y="-4" on="1"/>
        <pt x="216" y="-4" on="0"/>
        <pt x="163" y="41" on="1"/>
        <pt x="130" y="0" on="1"/>
        <pt x="69" y="0" on="1"/>
        <pt x="131" y="78" on="1"/>
        <pt x="100" y="130" on="0"/>
      </contour>
      <contour>
        <pt x="221" y="519" on="0"/>
        <pt x="196" y="424" on="0"/>
        <pt x="173" y="281" on="0"/>
        <pt x="173" y="175" on="0"/>
        <pt x="184" y="144" on="1"/>
        <pt x="577" y="635" on="1"/>
        <pt x="556" y="653" on="0"/>
        <pt x="495" y="663" on="0"/>
        <pt x="407" y="663" on="0"/>
        <pt x="370" y="661" on="0"/>
        <pt x="315" y="650" on="0"/>
        <pt x="285" y="627" on="0"/>
        <pt x="246" y="584" on="0"/>
      </contour>
      <contour>
        <pt x="247" y="70" on="0"/>
        <pt x="349" y="70" on="1"/>
        <pt x="407" y="70" on="0"/>
        <pt x="481" y="91" on="0"/>
        <pt x="514" y="122" on="1"/>
        <pt x="577" y="181" on="0"/>
        <pt x="604" y="361" on="1"/>
        <pt x="617" y="445" on="0"/>
        <pt x="617" y="560" on="0"/>
        <pt x="605" y="593" on="1"/>
        <pt x="211" y="102" on="1"/>
      </contour>
    </TTGlyph>
    <TTGlyph name="Otilde" xMin="102" yMin="-4" xMax="694" yMax="902">
      <contour>
        <pt x="450" y="900" on="0"/>
        <pt x="511" y="868" on="0"/>
        <pt x="523" y="868" on="0"/>
        <pt x="535" y="868" on="0"/>
        <pt x="558" y="876" on="1"/>
        <pt x="607" y="892" on="0"/>
        <pt x="622" y="902" on="1"/>
        <pt x="637" y="860" on="1"/>
        <pt x="628" y="854" on="0"/>
        <pt x="607" y="839" on="1"/>
        <pt x="546" y="798" on="0"/>
        <pt x="513" y="798" on="1"/>
        <pt x="477" y="798" on="0"/>
        <pt x="453" y="816" on="1"/>
        <pt x="409" y="848" on="0"/>
        <pt x="337" y="811" on="1"/>
        <pt x="316" y="800" on="0"/>
        <pt x="309" y="797" on="1"/>
        <pt x="294" y="838" on="1"/>
        <pt x="324" y="860" on="0"/>
        <pt x="340" y="870" on="1"/>
        <pt x="387" y="902" on="0"/>
      </contour>
      <contour>
        <pt x="312" y="725" on="0"/>
        <pt x="389" y="737" on="0"/>
        <pt x="488" y="737" on="0"/>
        <pt x="549" y="730" on="0"/>
        <pt x="609" y="710" on="0"/>
        <pt x="629" y="693" on="1"/>
        <pt x="675" y="653" on="0"/>
        <pt x="688" y="580" on="1"/>
        <pt x="693" y="546" on="0"/>
        <pt x="693" y="493" on="0"/>
        <pt x="692" y="431" on="0"/>
        <pt x="669" y="281" on="0"/>
        <pt x="635" y="163" on="0"/>
        <pt x="588" y="83" on="0"/>
        <pt x="537" y="32" on="0"/>
        <pt x="502" y="18" on="1"/>
        <pt x="442" y="-4" on="0"/>
        <pt x="350" y="-4" on="1"/>
        <pt x="223" y="-4" on="0"/>
        <pt x="172" y="34" on="1"/>
        <pt x="124" y="71" on="0"/>
        <pt x="110" y="143" on="1"/>
        <pt x="103" y="177" on="0"/>
        <pt x="103" y="230" on="0"/>
        <pt x="104" y="291" on="0"/>
        <pt x="131" y="462" on="0"/>
        <pt x="178" y="601" on="0"/>
        <pt x="231" y="682" on="0"/>
      </contour>
      <contour>
        <pt x="224" y="519" on="0"/>
        <pt x="199" y="424" on="0"/>
        <pt x="177" y="284" on="0"/>
        <pt x="176" y="229" on="0"/>
        <pt x="176" y="178" on="0"/>
        <pt x="194" y="115" on="0"/>
        <pt x="243" y="81" on="0"/>
        <pt x="303" y="70" on="0"/>
        <pt x="410" y="70" on="0"/>
        <pt x="484" y="91" on="0"/>
        <pt x="517" y="122" on="1"/>
        <pt x="580" y="181" on="0"/>
        <pt x="607" y="361" on="1"/>
        <pt x="620" y="441" on="0"/>
        <pt x="620" y="550" on="0"/>
        <pt x="607" y="595" on="0"/>
        <pt x="594" y="625" on="0"/>
        <pt x="565" y="646" on="0"/>
        <pt x="543" y="657" on="0"/>
        <pt x="522" y="660" on="1"/>
        <pt x="491" y="663" on="0"/>
        <pt x="410" y="663" on="0"/>
        <pt x="373" y="661" on="0"/>
        <pt x="318" y="650" on="0"/>
        <pt x="288" y="627" on="0"/>
        <pt x="249" y="584" on="0"/>
      </contour>
    </TTGlyph>
    <TTGlyph name="P" xMin="75" yMin="0" xMax="643" yMax="732">
      <contour>
        <pt x="497" y="732" on="1"/>
        <pt x="567" y="732" on="0"/>
        <pt x="610" y="682" on="1"/>
        <pt x="643" y="645" on="0"/>
        <pt x="643" y="573" on="1"/>
        <pt x="643" y="467" on="0"/>
        <pt x="597" y="378" on="1"/>
        <pt x="577" y="339" on="0"/>
        <pt x="534" y="314" on="1"/>
        <pt x="504" y="298" on="0"/>
        <pt x="429" y="298" on="1"/>
        <pt x="400" y="298" on="0"/>
        <pt x="204" y="313" on="0"/>
        <pt x="200" y="315" on="1"/>
        <pt x="149" y="0" on="1"/>
        <pt x="75" y="0" on="1"/>
        <pt x="191" y="732" on="1"/>
      </contour>
      <contour>
        <pt x="439" y="372" on="1"/>
        <pt x="487" y="372" on="0"/>
        <pt x="550" y="430" on="0"/>
        <pt x="564" y="520" on="1"/>
        <pt x="568" y="540" on="0"/>
        <pt x="568" y="563" on="0"/>
        <pt x="565" y="590" on="0"/>
        <pt x="561" y="619" on="0"/>
        <pt x="545" y="639" on="0"/>
        <pt x="532" y="650" on="0"/>
        <pt x="521" y="653" on="1"/>
        <pt x="506" y="657" on="0"/>
        <pt x="485" y="657" on="1"/>
        <pt x="253" y="657" on="1"/>
        <pt x="208" y="372" on="1"/>
      </contour>
    </TTGlyph>
    <TTGlyph name="Q" xMin="106" yMin="-142" xMax="698" yMax="737">
      <contour>
        <pt x="316" y="725" on="0"/>
        <pt x="393" y="737" on="0"/>
        <pt x="492" y="737" on="0"/>
        <pt x="553" y="730" on="0"/>
        <pt x="613" y="710" on="0"/>
        <pt x="633" y="693" on="1"/>
        <pt x="679" y="653" on="0"/>
        <pt x="692" y="580" on="1"/>
        <pt x="697" y="546" on="0"/>
        <pt x="697" y="493" on="0"/>
        <pt x="696" y="431" on="0"/>
        <pt x="673" y="281" on="0"/>
        <pt x="639" y="163" on="0"/>
        <pt x="592" y="83" on="0"/>
        <pt x="541" y="32" on="0"/>
        <pt x="506" y="18" on="1"/>
        <pt x="446" y="-4" on="0"/>
        <pt x="354" y="-4" on="1"/>
        <pt x="227" y="-4" on="0"/>
        <pt x="176" y="34" on="1"/>
        <pt x="128" y="71" on="0"/>
        <pt x="114" y="143" on="1"/>
        <pt x="107" y="177" on="0"/>
        <pt x="107" y="230" on="0"/>
        <pt x="108" y="291" on="0"/>
        <pt x="135" y="462" on="0"/>
        <pt x="182" y="601" on="0"/>
        <pt x="235" y="682" on="0"/>
      </contour>
      <contour>
        <pt x="228" y="519" on="0"/>
        <pt x="203" y="424" on="0"/>
        <pt x="181" y="284" on="0"/>
        <pt x="180" y="229" on="0"/>
        <pt x="180" y="178" on="0"/>
        <pt x="198" y="115" on="0"/>
        <pt x="247" y="81" on="0"/>
        <pt x="307" y="70" on="0"/>
        <pt x="414" y="70" on="0"/>
        <pt x="488" y="91" on="0"/>
        <pt x="521" y="122" on="1"/>
        <pt x="584" y="181" on="0"/>
        <pt x="611" y="361" on="1"/>
        <pt x="624" y="441" on="0"/>
        <pt x="624" y="550" on="0"/>
        <pt x="611" y="595" on="0"/>
        <pt x="598" y="625" on="0"/>
        <pt x="569" y="646" on="0"/>
        <pt x="547" y="657" on="0"/>
        <pt x="526" y="660" on="1"/>
        <pt x="495" y="663" on="0"/>
        <pt x="414" y="663" on="0"/>
        <pt x="377" y="661" on="0"/>
        <pt x="322" y="650" on="0"/>
        <pt x="292" y="627" on="0"/>
        <pt x="253" y="584" on="0"/>
      </contour>
      <contour>
        <pt x="361" y="-33" on="1"/>
        <pt x="405" y="-68" on="0"/>
        <pt x="490" y="-68" on="0"/>
        <pt x="526" y="-53" on="1"/>
        <pt x="513" y="-133" on="1"/>
        <pt x="480" y="-142" on="0"/>
        <pt x="435" y="-142" on="0"/>
        <pt x="426" y="-142" on="1"/>
        <pt x="381" y="-139" on="0"/>
        <pt x="309" y="-80" on="0"/>
        <pt x="309" y="-33" on="1"/>
      </contour>
    </TTGlyph>
    <TTGlyph name="R" xMin="75" yMin="0" xMax="640" yMax="732">
      <contour>
        <pt x="503" y="732" on="1"/>
        <pt x="640" y="732" on="0"/>
        <pt x="640" y="563" on="1"/>
        <pt x="640" y="539" on="0"/>
        <pt x="637" y="512" on="1"/>
        <pt x="618" y="321" on="0"/>
        <pt x="478" y="302" on="1"/>
        <pt x="584" y="0" on="1"/>
        <pt x="503" y="0" on="1"/>
        <pt x="404" y="294" on="1"/>
        <pt x="198" y="308" on="1"/>
        <pt x="149" y="0" on="1"/>
        <pt x="75" y="0" on="1"/>
        <pt x="191" y="732" on="1"/>
      </contour>
      <contour>
        <pt x="441" y="372" on="1"/>
        <pt x="488" y="372" on="0"/>
        <pt x="556" y="437" on="0"/>
        <pt x="562" y="512" on="1"/>
        <pt x="565" y="535" on="0"/>
        <pt x="565" y="567" on="0"/>
        <pt x="560" y="604" on="0"/>
        <pt x="553" y="636" on="0"/>
        <pt x="542" y="644" on="1"/>
        <pt x="523" y="657" on="0"/>
        <pt x="491" y="657" on="1"/>
        <pt x="254" y="657" on="1"/>
        <pt x="209" y="372" on="1"/>
      </contour>
    </TTGlyph>
    <TTGlyph name="Racute" xMin="75" yMin="0" xMax="640" yMax="930">
      <contour>
        <pt x="383" y="797" on="1"/>
        <pt x="511" y="930" on="1"/>
        <pt x="606" y="930" on="1"/>
        <pt x="452" y="797" on="1"/>
      </contour>
      <contour>
        <pt x="503" y="732" on="1"/>
        <pt x="640" y="732" on="0"/>
        <pt x="640" y="563" on="1"/>
        <pt x="640" y="539" on="0"/>
        <pt x="637" y="512" on="1"/>
        <pt x="618" y="321" on="0"/>
        <pt x="478" y="302" on="1"/>
        <pt x="584" y="0" on="1"/>
        <pt x="503" y="0" on="1"/>
        <pt x="404" y="294" on="1"/>
        <pt x="198" y="308" on="1"/>
        <pt x="149" y="0" on="1"/>
        <pt x="75" y="0" on="1"/>
        <pt x="191" y="732" on="1"/>
      </contour>
      <contour>
        <pt x="441" y="372" on="1"/>
        <pt x="488" y="372" on="0"/>
        <pt x="556" y="437" on="0"/>
        <pt x="562" y="512" on="1"/>
        <pt x="565" y="535" on="0"/>
        <pt x="565" y="567" on="0"/>
        <pt x="560" y="604" on="0"/>
        <pt x="553" y="636" on="0"/>
        <pt x="542" y="644" on="1"/>
        <pt x="523" y="657" on="0"/>
        <pt x="491" y="657" on="1"/>
        <pt x="254" y="657" on="1"/>
        <pt x="209" y="372" on="1"/>
      </contour>
    </TTGlyph>
    <TTGlyph name="Rcaron" xMin="75" yMin="0" xMax="640" yMax="927">
      <contour>
        <pt x="297" y="927" on="1"/>
        <pt x="362" y="927" on="1"/>
        <pt x="419" y="844" on="1"/>
        <pt x="509" y="927" on="1"/>
        <pt x="589" y="927" on="1"/>
        <pt x="451" y="797" on="1"/>
        <pt x="380" y="797" on="1"/>
      </contour>
      <contour>
        <pt x="503" y="732" on="1"/>
        <pt x="640" y="732" on="0"/>
        <pt x="640" y="563" on="1"/>
        <pt x="640" y="539" on="0"/>
        <pt x="637" y="512" on="1"/>
        <pt x="618" y="321" on="0"/>
        <pt x="478" y="302" on="1"/>
        <pt x="584" y="0" on="1"/>
        <pt x="503" y="0" on="1"/>
        <pt x="404" y="294" on="1"/>
        <pt x="198" y="308" on="1"/>
        <pt x="149" y="0" on="1"/>
        <pt x="75" y="0" on="1"/>
        <pt x="191" y="732" on="1"/>
      </contour>
      <contour>
        <pt x="441" y="372" on="1"/>
        <pt x="488" y="372" on="0"/>
        <pt x="556" y="437" on="0"/>
        <pt x="562" y="512" on="1"/>
        <pt x="565" y="535" on="0"/>
        <pt x="565" y="567" on="0"/>
        <pt x="560" y="604" on="0"/>
        <pt x="553" y="636" on="0"/>
        <pt x="542" y="644" on="1"/>
        <pt x="523" y="657" on="0"/>
        <pt x="491" y="657" on="1"/>
        <pt x="254" y="657" on="1"/>
        <pt x="209" y="372" on="1"/>
      </contour>
    </TTGlyph>
    <TTGlyph name="Rcommaaccent" xMin="75" yMin="-246" xMax="640" yMax="732">
      <contour>
        <pt x="287" y="-165" on="1"/>
        <pt x="277" y="-165" on="0"/>
        <pt x="266" y="-153" on="0"/>
        <pt x="268" y="-142" on="1"/>
        <pt x="275" y="-94" on="1"/>
        <pt x="279" y="-70" on="0"/>
        <pt x="302" y="-70" on="1"/>
        <pt x="348" y="-70" on="1"/>
        <pt x="366" y="-70" on="0"/>
        <pt x="366" y="-88" on="1"/>
        <pt x="366" y="-91" on="0"/>
        <pt x="365" y="-94" on="1"/>
        <pt x="353" y="-175" on="1"/>
        <pt x="349" y="-199" on="0"/>
        <pt x="338" y="-215" on="1"/>
        <pt x="316" y="-246" on="0"/>
        <pt x="271" y="-246" on="1"/>
        <pt x="268" y="-246" on="0"/>
        <pt x="256" y="-244" on="1"/>
        <pt x="261" y="-215" on="1"/>
        <pt x="280" y="-216" on="0"/>
        <pt x="285" y="-208" on="1"/>
        <pt x="292" y="-197" on="0"/>
        <pt x="293" y="-188" on="1"/>
        <pt x="297" y="-165" on="1"/>
      </contour>
      <contour>
        <pt x="503" y="732" on="1"/>
        <pt x="640" y="732" on="0"/>
        <pt x="640" y="563" on="1"/>
        <pt x="640" y="539" on="0"/>
        <pt x="637" y="512" on="1"/>
        <pt x="618" y="321" on="0"/>
        <pt x="478" y="302" on="1"/>
        <pt x="584" y="0" on="1"/>
        <pt x="503" y="0" on="1"/>
        <pt x="404" y="294" on="1"/>
        <pt x="198" y="308" on="1"/>
        <pt x="149" y="0" on="1"/>
        <pt x="75" y="0" on="1"/>
        <pt x="191" y="732" on="1"/>
      </contour>
      <contour>
        <pt x="441" y="372" on="1"/>
        <pt x="488" y="372" on="0"/>
        <pt x="556" y="437" on="0"/>
        <pt x="562" y="512" on="1"/>
        <pt x="565" y="535" on="0"/>
        <pt x="565" y="567" on="0"/>
        <pt x="560" y="604" on="0"/>
        <pt x="553" y="636" on="0"/>
        <pt x="542" y="644" on="1"/>
        <pt x="523" y="657" on="0"/>
        <pt x="491" y="657" on="1"/>
        <pt x="254" y="657" on="1"/>
        <pt x="209" y="372" on="1"/>
      </contour>
    </TTGlyph>
    <TTGlyph name="S" xMin="79" yMin="-8" xMax="613" yMax="739">
      <contour>
        <pt x="335" y="66" on="1"/>
        <pt x="464" y="66" on="0"/>
        <pt x="478" y="156" on="1"/>
        <pt x="489" y="224" on="1"/>
        <pt x="492" y="244" on="0"/>
        <pt x="492" y="284" on="0"/>
        <pt x="485" y="298" on="1"/>
        <pt x="473" y="322" on="0"/>
        <pt x="421" y="322" on="1"/>
        <pt x="282" y="322" on="1"/>
        <pt x="128" y="322" on="0"/>
        <pt x="128" y="450" on="1"/>
        <pt x="128" y="471" on="0"/>
        <pt x="132" y="494" on="1"/>
        <pt x="142" y="560" on="1"/>
        <pt x="160" y="672" on="0"/>
        <pt x="224" y="709" on="1"/>
        <pt x="276" y="738" on="0"/>
        <pt x="348" y="738" on="1"/>
        <pt x="449" y="738" on="0"/>
        <pt x="613" y="714" on="1"/>
        <pt x="604" y="655" on="1"/>
        <pt x="356" y="664" on="1"/>
        <pt x="348" y="664" on="0"/>
        <pt x="340" y="664" on="1"/>
        <pt x="288" y="664" on="0"/>
        <pt x="226" y="627" on="0"/>
        <pt x="216" y="560" on="1"/>
        <pt x="206" y="494" on="1"/>
        <pt x="203" y="473" on="0"/>
        <pt x="203" y="441" on="0"/>
        <pt x="209" y="421" on="0"/>
        <pt x="220" y="406" on="0"/>
        <pt x="234" y="400" on="0"/>
        <pt x="252" y="396" on="0"/>
        <pt x="262" y="396" on="1"/>
        <pt x="348" y="396" on="0"/>
        <pt x="433" y="396" on="1"/>
        <pt x="477" y="396" on="0"/>
        <pt x="537" y="365" on="0"/>
        <pt x="549" y="340" on="1"/>
        <pt x="567" y="303" on="0"/>
        <pt x="567" y="243" on="0"/>
        <pt x="563" y="224" on="1"/>
        <pt x="552" y="156" on="1"/>
        <pt x="545" y="112" on="0"/>
        <pt x="507" y="49" on="0"/>
        <pt x="463" y="16" on="0"/>
        <pt x="432" y="6" on="1"/>
        <pt x="383" y="-8" on="0"/>
        <pt x="272" y="-8" on="0"/>
        <pt x="112" y="9" on="0"/>
        <pt x="79" y="16" on="1"/>
        <pt x="88" y="76" on="1"/>
        <pt x="160" y="66" on="0"/>
      </contour>
    </TTGlyph>
    <TTGlyph name="Sacute" xMin="67" yMin="-8" xMax="601" yMax="931">
      <contour>
        <pt x="370" y="798" on="1"/>
        <pt x="498" y="931" on="1"/>
        <pt x="593" y="931" on="1"/>
        <pt x="439" y="798" on="1"/>
      </contour>
      <contour>
        <pt x="323" y="66" on="1"/>
        <pt x="452" y="66" on="0"/>
        <pt x="466" y="156" on="1"/>
        <pt x="477" y="224" on="1"/>
        <pt x="480" y="244" on="0"/>
        <pt x="480" y="284" on="0"/>
        <pt x="473" y="298" on="1"/>
        <pt x="461" y="322" on="0"/>
        <pt x="409" y="322" on="1"/>
        <pt x="270" y="322" on="1"/>
        <pt x="116" y="322" on="0"/>
        <pt x="116" y="450" on="1"/>
        <pt x="116" y="471" on="0"/>
        <pt x="120" y="494" on="1"/>
        <pt x="130" y="560" on="1"/>
        <pt x="148" y="672" on="0"/>
        <pt x="212" y="709" on="1"/>
        <pt x="264" y="738" on="0"/>
        <pt x="336" y="738" on="1"/>
        <pt x="437" y="738" on="0"/>
        <pt x="601" y="714" on="1"/>
        <pt x="592" y="655" on="1"/>
        <pt x="344" y="664" on="1"/>
        <pt x="336" y="664" on="0"/>
        <pt x="328" y="664" on="1"/>
        <pt x="276" y="664" on="0"/>
        <pt x="214" y="627" on="0"/>
        <pt x="204" y="560" on="1"/>
        <pt x="194" y="494" on="1"/>
        <pt x="191" y="473" on="0"/>
        <pt x="191" y="441" on="0"/>
        <pt x="197" y="421" on="0"/>
        <pt x="208" y="406" on="0"/>
        <pt x="222" y="400" on="0"/>
        <pt x="240" y="396" on="0"/>
        <pt x="250" y="396" on="1"/>
        <pt x="336" y="396" on="0"/>
        <pt x="421" y="396" on="1"/>
        <pt x="465" y="396" on="0"/>
        <pt x="525" y="365" on="0"/>
        <pt x="537" y="340" on="1"/>
        <pt x="555" y="303" on="0"/>
        <pt x="555" y="243" on="0"/>
        <pt x="551" y="224" on="1"/>
        <pt x="540" y="156" on="1"/>
        <pt x="533" y="112" on="0"/>
        <pt x="495" y="49" on="0"/>
        <pt x="451" y="16" on="0"/>
        <pt x="420" y="6" on="1"/>
        <pt x="371" y="-8" on="0"/>
        <pt x="260" y="-8" on="0"/>
        <pt x="100" y="9" on="0"/>
        <pt x="67" y="16" on="1"/>
        <pt x="76" y="76" on="1"/>
        <pt x="148" y="66" on="0"/>
      </contour>
    </TTGlyph>
    <TTGlyph name="Scaron" xMin="79" yMin="-8" xMax="613" yMax="929">
      <contour>
        <pt x="299" y="928" on="1"/>
        <pt x="364" y="928" on="1"/>
        <pt x="421" y="845" on="1"/>
        <pt x="511" y="928" on="1"/>
        <pt x="591" y="928" on="1"/>
        <pt x="453" y="798" on="1"/>
        <pt x="382" y="798" on="1"/>
      </contour>
      <contour>
        <pt x="335" y="66" on="1"/>
        <pt x="464" y="66" on="0"/>
        <pt x="478" y="156" on="1"/>
        <pt x="489" y="224" on="1"/>
        <pt x="492" y="244" on="0"/>
        <pt x="492" y="284" on="0"/>
        <pt x="485" y="298" on="1"/>
        <pt x="473" y="322" on="0"/>
        <pt x="421" y="322" on="1"/>
        <pt x="282" y="322" on="1"/>
        <pt x="128" y="322" on="0"/>
        <pt x="128" y="450" on="1"/>
        <pt x="128" y="471" on="0"/>
        <pt x="132" y="494" on="1"/>
        <pt x="142" y="560" on="1"/>
        <pt x="160" y="672" on="0"/>
        <pt x="224" y="709" on="1"/>
        <pt x="276" y="738" on="0"/>
        <pt x="348" y="738" on="1"/>
        <pt x="449" y="738" on="0"/>
        <pt x="613" y="714" on="1"/>
        <pt x="604" y="655" on="1"/>
        <pt x="356" y="664" on="1"/>
        <pt x="348" y="664" on="0"/>
        <pt x="340" y="664" on="1"/>
        <pt x="288" y="664" on="0"/>
        <pt x="226" y="627" on="0"/>
        <pt x="216" y="560" on="1"/>
        <pt x="206" y="494" on="1"/>
        <pt x="203" y="473" on="0"/>
        <pt x="203" y="441" on="0"/>
        <pt x="209" y="421" on="0"/>
        <pt x="220" y="406" on="0"/>
        <pt x="234" y="400" on="0"/>
        <pt x="252" y="396" on="0"/>
        <pt x="262" y="396" on="1"/>
        <pt x="348" y="396" on="0"/>
        <pt x="433" y="396" on="1"/>
        <pt x="477" y="396" on="0"/>
        <pt x="537" y="365" on="0"/>
        <pt x="549" y="340" on="1"/>
        <pt x="567" y="303" on="0"/>
        <pt x="567" y="243" on="0"/>
        <pt x="563" y="224" on="1"/>
        <pt x="552" y="156" on="1"/>
        <pt x="545" y="112" on="0"/>
        <pt x="507" y="49" on="0"/>
        <pt x="463" y="16" on="0"/>
        <pt x="432" y="6" on="1"/>
        <pt x="383" y="-8" on="0"/>
        <pt x="272" y="-8" on="0"/>
        <pt x="112" y="9" on="0"/>
        <pt x="79" y="16" on="1"/>
        <pt x="88" y="76" on="1"/>
        <pt x="160" y="66" on="0"/>
      </contour>
    </TTGlyph>
    <TTGlyph name="Scedilla" xMin="79" yMin="-181" xMax="613" yMax="739">
      <contour>
        <pt x="222" y="-181" on="1"/>
        <pt x="171" y="-181" on="1"/>
        <pt x="177" y="-144" on="1"/>
        <pt x="232" y="-129" on="1"/>
        <pt x="267" y="-115" on="0"/>
        <pt x="278" y="-45" on="1"/>
        <pt x="345" y="-45" on="1"/>
        <pt x="333" y="-123" on="0"/>
        <pt x="281" y="-181" on="0"/>
      </contour>
      <contour>
        <pt x="335" y="66" on="1"/>
        <pt x="464" y="66" on="0"/>
        <pt x="478" y="156" on="1"/>
        <pt x="489" y="224" on="1"/>
        <pt x="492" y="244" on="0"/>
        <pt x="492" y="284" on="0"/>
        <pt x="485" y="298" on="1"/>
        <pt x="473" y="322" on="0"/>
        <pt x="421" y="322" on="1"/>
        <pt x="282" y="322" on="1"/>
        <pt x="128" y="322" on="0"/>
        <pt x="128" y="450" on="1"/>
        <pt x="128" y="471" on="0"/>
        <pt x="132" y="494" on="1"/>
        <pt x="142" y="560" on="1"/>
        <pt x="160" y="672" on="0"/>
        <pt x="224" y="709" on="1"/>
        <pt x="276" y="738" on="0"/>
        <pt x="348" y="738" on="1"/>
        <pt x="449" y="738" on="0"/>
        <pt x="613" y="714" on="1"/>
        <pt x="604" y="655" on="1"/>
        <pt x="356" y="664" on="1"/>
        <pt x="348" y="664" on="0"/>
        <pt x="340" y="664" on="1"/>
        <pt x="288" y="664" on="0"/>
        <pt x="226" y="627" on="0"/>
        <pt x="216" y="560" on="1"/>
        <pt x="206" y="494" on="1"/>
        <pt x="203" y="473" on="0"/>
        <pt x="203" y="441" on="0"/>
        <pt x="209" y="421" on="0"/>
        <pt x="220" y="406" on="0"/>
        <pt x="234" y="400" on="0"/>
        <pt x="252" y="396" on="0"/>
        <pt x="262" y="396" on="1"/>
        <pt x="348" y="396" on="0"/>
        <pt x="433" y="396" on="1"/>
        <pt x="477" y="396" on="0"/>
        <pt x="537" y="365" on="0"/>
        <pt x="549" y="340" on="1"/>
        <pt x="567" y="303" on="0"/>
        <pt x="567" y="243" on="0"/>
        <pt x="563" y="224" on="1"/>
        <pt x="552" y="156" on="1"/>
        <pt x="545" y="112" on="0"/>
        <pt x="507" y="49" on="0"/>
        <pt x="463" y="16" on="0"/>
        <pt x="432" y="6" on="1"/>
        <pt x="383" y="-8" on="0"/>
        <pt x="272" y="-8" on="0"/>
        <pt x="112" y="9" on="0"/>
        <pt x="79" y="16" on="1"/>
        <pt x="88" y="76" on="1"/>
        <pt x="160" y="66" on="0"/>
      </contour>
    </TTGlyph>
    <TTGlyph name="Scircumflex" xMin="79" yMin="-8" xMax="613" yMax="929">
      <contour>
        <pt x="263" y="798" on="1"/>
        <pt x="401" y="928" on="1"/>
        <pt x="472" y="928" on="1"/>
        <pt x="555" y="798" on="1"/>
        <pt x="490" y="798" on="1"/>
        <pt x="433" y="881" on="1"/>
        <pt x="343" y="798" on="1"/>
      </contour>
      <contour>
        <pt x="335" y="66" on="1"/>
        <pt x="464" y="66" on="0"/>
        <pt x="478" y="156" on="1"/>
        <pt x="489" y="224" on="1"/>
        <pt x="492" y="244" on="0"/>
        <pt x="492" y="284" on="0"/>
        <pt x="485" y="298" on="1"/>
        <pt x="473" y="322" on="0"/>
        <pt x="421" y="322" on="1"/>
        <pt x="282" y="322" on="1"/>
        <pt x="128" y="322" on="0"/>
        <pt x="128" y="450" on="1"/>
        <pt x="128" y="471" on="0"/>
        <pt x="132" y="494" on="1"/>
        <pt x="142" y="560" on="1"/>
        <pt x="160" y="672" on="0"/>
        <pt x="224" y="709" on="1"/>
        <pt x="276" y="738" on="0"/>
        <pt x="348" y="738" on="1"/>
        <pt x="449" y="738" on="0"/>
        <pt x="613" y="714" on="1"/>
        <pt x="604" y="655" on="1"/>
        <pt x="356" y="664" on="1"/>
        <pt x="348" y="664" on="0"/>
        <pt x="340" y="664" on="1"/>
        <pt x="288" y="664" on="0"/>
        <pt x="226" y="627" on="0"/>
        <pt x="216" y="560" on="1"/>
        <pt x="206" y="494" on="1"/>
        <pt x="203" y="473" on="0"/>
        <pt x="203" y="441" on="0"/>
        <pt x="209" y="421" on="0"/>
        <pt x="220" y="406" on="0"/>
        <pt x="234" y="400" on="0"/>
        <pt x="252" y="396" on="0"/>
        <pt x="262" y="396" on="1"/>
        <pt x="348" y="396" on="0"/>
        <pt x="433" y="396" on="1"/>
        <pt x="477" y="396" on="0"/>
        <pt x="537" y="365" on="0"/>
        <pt x="549" y="340" on="1"/>
        <pt x="567" y="303" on="0"/>
        <pt x="567" y="243" on="0"/>
        <pt x="563" y="224" on="1"/>
        <pt x="552" y="156" on="1"/>
        <pt x="545" y="112" on="0"/>
        <pt x="507" y="49" on="0"/>
        <pt x="463" y="16" on="0"/>
        <pt x="432" y="6" on="1"/>
        <pt x="383" y="-8" on="0"/>
        <pt x="272" y="-8" on="0"/>
        <pt x="112" y="9" on="0"/>
        <pt x="79" y="16" on="1"/>
        <pt x="88" y="76" on="1"/>
        <pt x="160" y="66" on="0"/>
      </contour>
    </TTGlyph>
    <TTGlyph name="T" xMin="139" yMin="0" xMax="659" yMax="732">
      <contour>
        <pt x="139" y="658" on="1"/>
        <pt x="151" y="732" on="1"/>
        <pt x="659" y="732" on="1"/>
        <pt x="647" y="658" on="1"/>
        <pt x="427" y="658" on="1"/>
        <pt x="323" y="0" on="1"/>
        <pt x="249" y="0" on="1"/>
        <pt x="353" y="658" on="1"/>
      </contour>
    </TTGlyph>
    <TTGlyph name="Tbar" xMin="139" yMin="0" xMax="659" yMax="732">
      <contour>
        <pt x="139" y="658" on="1"/>
        <pt x="151" y="732" on="1"/>
        <pt x="659" y="732" on="1"/>
        <pt x="647" y="658" on="1"/>
        <pt x="427" y="658" on="1"/>
        <pt x="393" y="444" on="1"/>
        <pt x="513" y="444" on="1"/>
        <pt x="505" y="390" on="1"/>
        <pt x="385" y="390" on="1"/>
        <pt x="323" y="0" on="1"/>
        <pt x="249" y="0" on="1"/>
        <pt x="311" y="390" on="1"/>
        <pt x="191" y="390" on="1"/>
        <pt x="199" y="444" on="1"/>
        <pt x="319" y="444" on="1"/>
        <pt x="353" y="658" on="1"/>
      </contour>
    </TTGlyph>
    <TTGlyph name="Tcaron" xMin="139" yMin="0" xMax="659" yMax="927">
      <contour>
        <pt x="290" y="927" on="1"/>
        <pt x="355" y="927" on="1"/>
        <pt x="412" y="844" on="1"/>
        <pt x="502" y="927" on="1"/>
        <pt x="582" y="927" on="1"/>
        <pt x="444" y="797" on="1"/>
        <pt x="373" y="797" on="1"/>
      </contour>
      <contour>
        <pt x="139" y="658" on="1"/>
        <pt x="151" y="732" on="1"/>
        <pt x="659" y="732" on="1"/>
        <pt x="647" y="658" on="1"/>
        <pt x="427" y="658" on="1"/>
        <pt x="323" y="0" on="1"/>
        <pt x="249" y="0" on="1"/>
        <pt x="353" y="658" on="1"/>
      </contour>
    </TTGlyph>
    <TTGlyph name="Tcommaaccent" xMin="119" yMin="-185" xMax="639" yMax="732">
      <contour>
        <pt x="170" y="-185" on="1"/>
        <pt x="119" y="-185" on="1"/>
        <pt x="125" y="-148" on="1"/>
        <pt x="180" y="-133" on="1"/>
        <pt x="215" y="-119" on="0"/>
        <pt x="226" y="-49" on="1"/>
        <pt x="293" y="-49" on="1"/>
        <pt x="281" y="-127" on="0"/>
        <pt x="229" y="-185" on="0"/>
      </contour>
      <contour>
        <pt x="119" y="658" on="1"/>
        <pt x="131" y="732" on="1"/>
        <pt x="639" y="732" on="1"/>
        <pt x="627" y="658" on="1"/>
        <pt x="407" y="658" on="1"/>
        <pt x="303" y="0" on="1"/>
        <pt x="229" y="0" on="1"/>
        <pt x="333" y="658" on="1"/>
      </contour>
    </TTGlyph>
    <TTGlyph name="Thorn" xMin="60" yMin="0" xMax="569" yMax="729">
      <contour>
        <pt x="60" y="0" on="1"/>
        <pt x="60" y="0" on="0"/>
        <pt x="175" y="729" on="1"/>
        <pt x="249" y="729" on="1"/>
        <pt x="227" y="588" on="1"/>
        <pt x="424" y="588" on="1"/>
        <pt x="470" y="588" on="0"/>
        <pt x="528" y="550" on="0"/>
        <pt x="543" y="528" on="1"/>
        <pt x="569" y="490" on="0"/>
        <pt x="569" y="420" on="1"/>
        <pt x="569" y="399" on="0"/>
        <pt x="557" y="300" on="0"/>
        <pt x="516" y="205" on="0"/>
        <pt x="452" y="165" on="0"/>
        <pt x="400" y="154" on="0"/>
        <pt x="359" y="154" on="1"/>
        <pt x="221" y="154" on="0"/>
        <pt x="162" y="174" on="1"/>
        <pt x="134" y="0" on="1"/>
      </contour>
      <contour>
        <pt x="367" y="228" on="1"/>
        <pt x="415" y="228" on="0"/>
        <pt x="442" y="252" on="1"/>
        <pt x="474" y="280" on="0"/>
        <pt x="490" y="377" on="1"/>
        <pt x="493" y="428" on="0"/>
        <pt x="493" y="457" on="0"/>
        <pt x="476" y="486" on="0"/>
        <pt x="462" y="503" on="0"/>
        <pt x="450" y="507" on="1"/>
        <pt x="431" y="513" on="0"/>
        <pt x="412" y="513" on="1"/>
        <pt x="215" y="513" on="1"/>
        <pt x="170" y="228" on="1"/>
      </contour>
    </TTGlyph>
    <TTGlyph name="U" xMin="119" yMin="-5" xMax="712" yMax="732">
      <contour>
        <pt x="202" y="302" on="1"/>
        <pt x="194" y="241" on="0"/>
        <pt x="194" y="192" on="0"/>
        <pt x="194" y="186" on="1"/>
        <pt x="196" y="140" on="0"/>
        <pt x="238" y="88" on="0"/>
        <pt x="296" y="69" on="0"/>
        <pt x="344" y="69" on="1"/>
        <pt x="444" y="69" on="0"/>
        <pt x="549" y="172" on="0"/>
        <pt x="569" y="302" on="1"/>
        <pt x="637" y="732" on="1"/>
        <pt x="712" y="732" on="1"/>
        <pt x="644" y="302" on="1"/>
        <pt x="636" y="250" on="0"/>
        <pt x="618" y="179" on="0"/>
        <pt x="575" y="88" on="0"/>
        <pt x="514" y="34" on="0"/>
        <pt x="408" y="-5" on="0"/>
        <pt x="338" y="-5" on="1"/>
        <pt x="211" y="-5" on="0"/>
        <pt x="156" y="68" on="1"/>
        <pt x="119" y="118" on="0"/>
        <pt x="119" y="209" on="1"/>
        <pt x="119" y="251" on="0"/>
        <pt x="127" y="302" on="1"/>
        <pt x="195" y="732" on="1"/>
        <pt x="270" y="732" on="1"/>
      </contour>
    </TTGlyph>
    <TTGlyph name="Uacute" xMin="119" yMin="-5" xMax="712" yMax="930">
      <contour>
        <pt x="429" y="797" on="1"/>
        <pt x="557" y="930" on="1"/>
        <pt x="652" y="930" on="1"/>
        <pt x="498" y="797" on="1"/>
      </contour>
      <contour>
        <pt x="202" y="302" on="1"/>
        <pt x="194" y="241" on="0"/>
        <pt x="194" y="192" on="0"/>
        <pt x="194" y="186" on="1"/>
        <pt x="196" y="140" on="0"/>
        <pt x="238" y="88" on="0"/>
        <pt x="296" y="69" on="0"/>
        <pt x="344" y="69" on="1"/>
        <pt x="444" y="69" on="0"/>
        <pt x="549" y="172" on="0"/>
        <pt x="569" y="302" on="1"/>
        <pt x="637" y="732" on="1"/>
        <pt x="712" y="732" on="1"/>
        <pt x="644" y="302" on="1"/>
        <pt x="636" y="250" on="0"/>
        <pt x="618" y="179" on="0"/>
        <pt x="575" y="88" on="0"/>
        <pt x="514" y="34" on="0"/>
        <pt x="408" y="-5" on="0"/>
        <pt x="338" y="-5" on="1"/>
        <pt x="211" y="-5" on="0"/>
        <pt x="156" y="68" on="1"/>
        <pt x="119" y="118" on="0"/>
        <pt x="119" y="209" on="1"/>
        <pt x="119" y="251" on="0"/>
        <pt x="127" y="302" on="1"/>
        <pt x="195" y="732" on="1"/>
        <pt x="270" y="732" on="1"/>
      </contour>
    </TTGlyph>
    <TTGlyph name="Ubreve" xMin="119" yMin="-5" xMax="712" yMax="911">
      <contour>
        <pt x="415" y="911" on="1"/>
        <pt x="414" y="905" on="0"/>
        <pt x="414" y="876" on="0"/>
        <pt x="443" y="843" on="0"/>
        <pt x="470" y="843" on="1"/>
        <pt x="471" y="843" on="0"/>
        <pt x="473" y="843" on="1"/>
        <pt x="539" y="843" on="0"/>
        <pt x="550" y="911" on="1"/>
        <pt x="596" y="911" on="1"/>
        <pt x="580" y="797" on="0"/>
        <pt x="470" y="797" on="1"/>
        <pt x="426" y="797" on="0"/>
        <pt x="368" y="855" on="0"/>
        <pt x="368" y="899" on="1"/>
        <pt x="368" y="905" on="0"/>
        <pt x="369" y="911" on="1"/>
      </contour>
      <contour>
        <pt x="202" y="302" on="1"/>
        <pt x="194" y="241" on="0"/>
        <pt x="194" y="192" on="0"/>
        <pt x="194" y="186" on="1"/>
        <pt x="196" y="140" on="0"/>
        <pt x="238" y="88" on="0"/>
        <pt x="296" y="69" on="0"/>
        <pt x="344" y="69" on="1"/>
        <pt x="444" y="69" on="0"/>
        <pt x="549" y="172" on="0"/>
        <pt x="569" y="302" on="1"/>
        <pt x="637" y="732" on="1"/>
        <pt x="712" y="732" on="1"/>
        <pt x="644" y="302" on="1"/>
        <pt x="636" y="250" on="0"/>
        <pt x="618" y="179" on="0"/>
        <pt x="575" y="88" on="0"/>
        <pt x="514" y="34" on="0"/>
        <pt x="408" y="-5" on="0"/>
        <pt x="338" y="-5" on="1"/>
        <pt x="211" y="-5" on="0"/>
        <pt x="156" y="68" on="1"/>
        <pt x="119" y="118" on="0"/>
        <pt x="119" y="209" on="1"/>
        <pt x="119" y="251" on="0"/>
        <pt x="127" y="302" on="1"/>
        <pt x="195" y="732" on="1"/>
        <pt x="270" y="732" on="1"/>
      </contour>
    </TTGlyph>
    <TTGlyph name="Ucircumflex" xMin="119" yMin="-5" xMax="712" yMax="927">
      <contour>
        <pt x="318" y="797" on="1"/>
        <pt x="456" y="927" on="1"/>
        <pt x="527" y="927" on="1"/>
        <pt x="610" y="797" on="1"/>
        <pt x="545" y="797" on="1"/>
        <pt x="488" y="880" on="1"/>
        <pt x="398" y="797" on="1"/>
      </contour>
      <contour>
        <pt x="202" y="302" on="1"/>
        <pt x="194" y="241" on="0"/>
        <pt x="194" y="192" on="0"/>
        <pt x="194" y="186" on="1"/>
        <pt x="196" y="140" on="0"/>
        <pt x="238" y="88" on="0"/>
        <pt x="296" y="69" on="0"/>
        <pt x="344" y="69" on="1"/>
        <pt x="444" y="69" on="0"/>
        <pt x="549" y="172" on="0"/>
        <pt x="569" y="302" on="1"/>
        <pt x="637" y="732" on="1"/>
        <pt x="712" y="732" on="1"/>
        <pt x="644" y="302" on="1"/>
        <pt x="636" y="250" on="0"/>
        <pt x="618" y="179" on="0"/>
        <pt x="575" y="88" on="0"/>
        <pt x="514" y="34" on="0"/>
        <pt x="408" y="-5" on="0"/>
        <pt x="338" y="-5" on="1"/>
        <pt x="211" y="-5" on="0"/>
        <pt x="156" y="68" on="1"/>
        <pt x="119" y="118" on="0"/>
        <pt x="119" y="209" on="1"/>
        <pt x="119" y="251" on="0"/>
        <pt x="127" y="302" on="1"/>
        <pt x="195" y="732" on="1"/>
        <pt x="270" y="732" on="1"/>
      </contour>
    </TTGlyph>
    <TTGlyph name="Udieresis" xMin="119" yMin="-5" xMax="712" yMax="898">
      <contour>
        <pt x="332" y="898" on="0"/>
        <pt x="374" y="898" on="0"/>
        <pt x="396" y="872" on="0"/>
        <pt x="396" y="852" on="0"/>
        <pt x="393" y="834" on="0"/>
        <pt x="385" y="822" on="1"/>
        <pt x="366" y="797" on="0"/>
        <pt x="316" y="797" on="0"/>
        <pt x="293" y="824" on="0"/>
        <pt x="293" y="834" on="1"/>
        <pt x="293" y="866" on="0"/>
      </contour>
      <contour>
        <pt x="587" y="898" on="0"/>
        <pt x="629" y="898" on="0"/>
        <pt x="651" y="872" on="0"/>
        <pt x="651" y="862" on="1"/>
        <pt x="651" y="830" on="0"/>
        <pt x="613" y="797" on="0"/>
        <pt x="571" y="797" on="0"/>
        <pt x="548" y="824" on="0"/>
        <pt x="548" y="834" on="1"/>
        <pt x="548" y="866" on="0"/>
      </contour>
      <contour>
        <pt x="202" y="302" on="1"/>
        <pt x="194" y="241" on="0"/>
        <pt x="194" y="192" on="0"/>
        <pt x="194" y="186" on="1"/>
        <pt x="196" y="140" on="0"/>
        <pt x="238" y="88" on="0"/>
        <pt x="296" y="69" on="0"/>
        <pt x="344" y="69" on="1"/>
        <pt x="444" y="69" on="0"/>
        <pt x="549" y="172" on="0"/>
        <pt x="569" y="302" on="1"/>
        <pt x="637" y="732" on="1"/>
        <pt x="712" y="732" on="1"/>
        <pt x="644" y="302" on="1"/>
        <pt x="636" y="250" on="0"/>
        <pt x="618" y="179" on="0"/>
        <pt x="575" y="88" on="0"/>
        <pt x="514" y="34" on="0"/>
        <pt x="408" y="-5" on="0"/>
        <pt x="338" y="-5" on="1"/>
        <pt x="211" y="-5" on="0"/>
        <pt x="156" y="68" on="1"/>
        <pt x="119" y="118" on="0"/>
        <pt x="119" y="209" on="1"/>
        <pt x="119" y="251" on="0"/>
        <pt x="127" y="302" on="1"/>
        <pt x="195" y="732" on="1"/>
        <pt x="270" y="732" on="1"/>
      </contour>
    </TTGlyph>
    <TTGlyph name="Ugrave" xMin="119" yMin="-5" xMax="712" yMax="930">
      <contour>
        <pt x="305" y="930" on="1"/>
        <pt x="392" y="930" on="1"/>
        <pt x="498" y="797" on="1"/>
        <pt x="429" y="797" on="1"/>
      </contour>
      <contour>
        <pt x="202" y="302" on="1"/>
        <pt x="194" y="241" on="0"/>
        <pt x="194" y="192" on="0"/>
        <pt x="194" y="186" on="1"/>
        <pt x="196" y="140" on="0"/>
        <pt x="238" y="88" on="0"/>
        <pt x="296" y="69" on="0"/>
        <pt x="344" y="69" on="1"/>
        <pt x="444" y="69" on="0"/>
        <pt x="549" y="172" on="0"/>
        <pt x="569" y="302" on="1"/>
        <pt x="637" y="732" on="1"/>
        <pt x="712" y="732" on="1"/>
        <pt x="644" y="302" on="1"/>
        <pt x="636" y="250" on="0"/>
        <pt x="618" y="179" on="0"/>
        <pt x="575" y="88" on="0"/>
        <pt x="514" y="34" on="0"/>
        <pt x="408" y="-5" on="0"/>
        <pt x="338" y="-5" on="1"/>
        <pt x="211" y="-5" on="0"/>
        <pt x="156" y="68" on="1"/>
        <pt x="119" y="118" on="0"/>
        <pt x="119" y="209" on="1"/>
        <pt x="119" y="251" on="0"/>
        <pt x="127" y="302" on="1"/>
        <pt x="195" y="732" on="1"/>
        <pt x="270" y="732" on="1"/>
      </contour>
    </TTGlyph>
    <TTGlyph name="Uhungarumlaut" xMin="119" yMin="-5" xMax="720" yMax="930">
      <contour>
        <pt x="362" y="797" on="1"/>
        <pt x="490" y="930" on="1"/>
        <pt x="585" y="930" on="1"/>
        <pt x="431" y="797" on="1"/>
      </contour>
      <contour>
        <pt x="497" y="797" on="1"/>
        <pt x="625" y="930" on="1"/>
        <pt x="720" y="930" on="1"/>
        <pt x="566" y="797" on="1"/>
      </contour>
      <contour>
        <pt x="202" y="302" on="1"/>
        <pt x="194" y="241" on="0"/>
        <pt x="194" y="192" on="0"/>
        <pt x="194" y="186" on="1"/>
        <pt x="196" y="140" on="0"/>
        <pt x="238" y="88" on="0"/>
        <pt x="296" y="69" on="0"/>
        <pt x="344" y="69" on="1"/>
        <pt x="444" y="69" on="0"/>
        <pt x="549" y="172" on="0"/>
        <pt x="569" y="302" on="1"/>
        <pt x="637" y="732" on="1"/>
        <pt x="712" y="732" on="1"/>
        <pt x="644" y="302" on="1"/>
        <pt x="636" y="250" on="0"/>
        <pt x="618" y="179" on="0"/>
        <pt x="575" y="88" on="0"/>
        <pt x="514" y="34" on="0"/>
        <pt x="408" y="-5" on="0"/>
        <pt x="338" y="-5" on="1"/>
        <pt x="211" y="-5" on="0"/>
        <pt x="156" y="68" on="1"/>
        <pt x="119" y="118" on="0"/>
        <pt x="119" y="209" on="1"/>
        <pt x="119" y="251" on="0"/>
        <pt x="127" y="302" on="1"/>
        <pt x="195" y="732" on="1"/>
        <pt x="270" y="732" on="1"/>
      </contour>
    </TTGlyph>
    <TTGlyph name="Umacron" xMin="119" yMin="-5" xMax="712" yMax="860">
      <contour>
        <pt x="318" y="797" on="1"/>
        <pt x="328" y="860" on="1"/>
        <pt x="620" y="860" on="1"/>
        <pt x="610" y="797" on="1"/>
      </contour>
      <contour>
        <pt x="202" y="302" on="1"/>
        <pt x="194" y="241" on="0"/>
        <pt x="194" y="192" on="0"/>
        <pt x="194" y="186" on="1"/>
        <pt x="196" y="140" on="0"/>
        <pt x="238" y="88" on="0"/>
        <pt x="296" y="69" on="0"/>
        <pt x="344" y="69" on="1"/>
        <pt x="444" y="69" on="0"/>
        <pt x="549" y="172" on="0"/>
        <pt x="569" y="302" on="1"/>
        <pt x="637" y="732" on="1"/>
        <pt x="712" y="732" on="1"/>
        <pt x="644" y="302" on="1"/>
        <pt x="636" y="250" on="0"/>
        <pt x="618" y="179" on="0"/>
        <pt x="575" y="88" on="0"/>
        <pt x="514" y="34" on="0"/>
        <pt x="408" y="-5" on="0"/>
        <pt x="338" y="-5" on="1"/>
        <pt x="211" y="-5" on="0"/>
        <pt x="156" y="68" on="1"/>
        <pt x="119" y="118" on="0"/>
        <pt x="119" y="209" on="1"/>
        <pt x="119" y="251" on="0"/>
        <pt x="127" y="302" on="1"/>
        <pt x="195" y="732" on="1"/>
        <pt x="270" y="732" on="1"/>
      </contour>
    </TTGlyph>
    <TTGlyph name="Uogonek" xMin="119" yMin="-182" xMax="712" yMax="732">
      <contour>
        <pt x="219" y="-108" on="1"/>
        <pt x="219" y="-39" on="0"/>
        <pt x="319" y="1" on="1"/>
        <pt x="358" y="1" on="1"/>
        <pt x="284" y="-53" on="0"/>
        <pt x="284" y="-90" on="1"/>
        <pt x="284" y="-120" on="0"/>
        <pt x="333" y="-120" on="1"/>
        <pt x="337" y="-120" on="0"/>
        <pt x="342" y="-120" on="1"/>
        <pt x="332" y="-180" on="1"/>
        <pt x="320" y="-182" on="0"/>
        <pt x="310" y="-182" on="1"/>
        <pt x="267" y="-182" on="0"/>
        <pt x="219" y="-135" on="0"/>
      </contour>
      <contour>
        <pt x="202" y="302" on="1"/>
        <pt x="270" y="732" on="1"/>
        <pt x="195" y="732" on="1"/>
        <pt x="127" y="302" on="1"/>
        <pt x="119" y="251" on="0"/>
        <pt x="119" y="209" on="1"/>
        <pt x="119" y="118" on="0"/>
        <pt x="156" y="68" on="1"/>
        <pt x="211" y="-5" on="0"/>
        <pt x="338" y="-5" on="1"/>
        <pt x="408" y="-5" on="0"/>
        <pt x="514" y="34" on="0"/>
        <pt x="575" y="88" on="0"/>
        <pt x="618" y="179" on="0"/>
        <pt x="636" y="250" on="0"/>
        <pt x="644" y="302" on="1"/>
        <pt x="712" y="732" on="1"/>
        <pt x="637" y="732" on="1"/>
        <pt x="569" y="302" on="1"/>
        <pt x="549" y="172" on="0"/>
        <pt x="444" y="69" on="0"/>
        <pt x="344" y="69" on="1"/>
        <pt x="296" y="69" on="0"/>
        <pt x="238" y="88" on="0"/>
        <pt x="196" y="140" on="0"/>
        <pt x="194" y="186" on="1"/>
        <pt x="194" y="192" on="0"/>
        <pt x="194" y="241" on="0"/>
      </contour>
    </TTGlyph>
    <TTGlyph name="Uring" xMin="119" yMin="-5" xMax="712" yMax="1002">
      <contour>
        <pt x="448" y="1002" on="0"/>
        <pt x="532" y="1002" on="0"/>
        <pt x="582" y="945" on="0"/>
        <pt x="582" y="909" on="1"/>
        <pt x="582" y="860" on="0"/>
        <pt x="514" y="797" on="0"/>
        <pt x="430" y="797" on="0"/>
        <pt x="378" y="853" on="0"/>
        <pt x="378" y="889" on="1"/>
        <pt x="378" y="938" on="0"/>
      </contour>
      <contour>
        <pt x="425" y="875" on="0"/>
        <pt x="453" y="845" on="0"/>
        <pt x="498" y="845" on="0"/>
        <pt x="516" y="861" on="1"/>
        <pt x="535" y="879" on="0"/>
        <pt x="535" y="924" on="0"/>
        <pt x="508" y="954" on="0"/>
        <pt x="463" y="954" on="0"/>
        <pt x="445" y="938" on="1"/>
        <pt x="425" y="919" on="0"/>
      </contour>
      <contour>
        <pt x="202" y="302" on="1"/>
        <pt x="194" y="241" on="0"/>
        <pt x="194" y="192" on="0"/>
        <pt x="194" y="186" on="1"/>
        <pt x="196" y="140" on="0"/>
        <pt x="238" y="88" on="0"/>
        <pt x="296" y="69" on="0"/>
        <pt x="344" y="69" on="1"/>
        <pt x="444" y="69" on="0"/>
        <pt x="549" y="172" on="0"/>
        <pt x="569" y="302" on="1"/>
        <pt x="637" y="732" on="1"/>
        <pt x="712" y="732" on="1"/>
        <pt x="644" y="302" on="1"/>
        <pt x="636" y="250" on="0"/>
        <pt x="618" y="179" on="0"/>
        <pt x="575" y="88" on="0"/>
        <pt x="514" y="34" on="0"/>
        <pt x="408" y="-5" on="0"/>
        <pt x="338" y="-5" on="1"/>
        <pt x="211" y="-5" on="0"/>
        <pt x="156" y="68" on="1"/>
        <pt x="119" y="118" on="0"/>
        <pt x="119" y="209" on="1"/>
        <pt x="119" y="251" on="0"/>
        <pt x="127" y="302" on="1"/>
        <pt x="195" y="732" on="1"/>
        <pt x="270" y="732" on="1"/>
      </contour>
    </TTGlyph>
    <TTGlyph name="Utilde" xMin="119" yMin="-5" xMax="712" yMax="902">
      <contour>
        <pt x="456" y="900" on="0"/>
        <pt x="517" y="868" on="0"/>
        <pt x="529" y="868" on="0"/>
        <pt x="541" y="868" on="0"/>
        <pt x="564" y="876" on="1"/>
        <pt x="613" y="892" on="0"/>
        <pt x="629" y="902" on="1"/>
        <pt x="644" y="860" on="1"/>
        <pt x="634" y="854" on="0"/>
        <pt x="613" y="839" on="1"/>
        <pt x="553" y="798" on="0"/>
        <pt x="519" y="798" on="1"/>
        <pt x="488" y="798" on="0"/>
        <pt x="432" y="832" on="0"/>
        <pt x="417" y="832" on="1"/>
        <pt x="384" y="832" on="0"/>
        <pt x="322" y="800" on="0"/>
        <pt x="316" y="797" on="1"/>
        <pt x="301" y="838" on="1"/>
        <pt x="369" y="888" on="0"/>
        <pt x="414" y="902" on="0"/>
      </contour>
      <contour>
        <pt x="202" y="302" on="1"/>
        <pt x="194" y="241" on="0"/>
        <pt x="194" y="192" on="0"/>
        <pt x="194" y="186" on="1"/>
        <pt x="196" y="140" on="0"/>
        <pt x="238" y="88" on="0"/>
        <pt x="296" y="69" on="0"/>
        <pt x="344" y="69" on="1"/>
        <pt x="444" y="69" on="0"/>
        <pt x="549" y="172" on="0"/>
        <pt x="569" y="302" on="1"/>
        <pt x="637" y="732" on="1"/>
        <pt x="712" y="732" on="1"/>
        <pt x="644" y="302" on="1"/>
        <pt x="636" y="250" on="0"/>
        <pt x="618" y="179" on="0"/>
        <pt x="575" y="88" on="0"/>
        <pt x="514" y="34" on="0"/>
        <pt x="408" y="-5" on="0"/>
        <pt x="338" y="-5" on="1"/>
        <pt x="211" y="-5" on="0"/>
        <pt x="156" y="68" on="1"/>
        <pt x="119" y="118" on="0"/>
        <pt x="119" y="209" on="1"/>
        <pt x="119" y="251" on="0"/>
        <pt x="127" y="302" on="1"/>
        <pt x="195" y="732" on="1"/>
        <pt x="270" y="732" on="1"/>
      </contour>
    </TTGlyph>
    <TTGlyph name="V" xMin="150" yMin="0" xMax="750" yMax="732">
      <contour>
        <pt x="150" y="732" on="1"/>
        <pt x="228" y="732" on="1"/>
        <pt x="344" y="119" on="1"/>
        <pt x="665" y="732" on="1"/>
        <pt x="750" y="732" on="1"/>
        <pt x="365" y="0" on="1"/>
        <pt x="291" y="0" on="1"/>
      </contour>
    </TTGlyph>
    <TTGlyph name="W" xMin="150" yMin="0" xMax="1082" yMax="732">
      <contour>
        <pt x="150" y="732" on="1"/>
        <pt x="225" y="732" on="1"/>
        <pt x="342" y="121" on="1"/>
        <pt x="665" y="732" on="1"/>
        <pt x="749" y="732" on="1"/>
        <pt x="619" y="480" on="1"/>
        <pt x="678" y="115" on="1"/>
        <pt x="1001" y="732" on="1"/>
        <pt x="1082" y="732" on="1"/>
        <pt x="697" y="0" on="1"/>
        <pt x="623" y="0" on="1"/>
        <pt x="562" y="374" on="1"/>
        <pt x="365" y="0" on="1"/>
        <pt x="291" y="0" on="1"/>
      </contour>
    </TTGlyph>
    <TTGlyph name="Wacute" xMin="150" yMin="0" xMax="1082" yMax="930">
      <contour>
        <pt x="592" y="797" on="1"/>
        <pt x="720" y="930" on="1"/>
        <pt x="815" y="930" on="1"/>
        <pt x="661" y="797" on="1"/>
      </contour>
      <contour>
        <pt x="150" y="732" on="1"/>
        <pt x="225" y="732" on="1"/>
        <pt x="342" y="121" on="1"/>
        <pt x="665" y="732" on="1"/>
        <pt x="749" y="732" on="1"/>
        <pt x="619" y="480" on="1"/>
        <pt x="678" y="115" on="1"/>
        <pt x="1001" y="732" on="1"/>
        <pt x="1082" y="732" on="1"/>
        <pt x="697" y="0" on="1"/>
        <pt x="623" y="0" on="1"/>
        <pt x="562" y="374" on="1"/>
        <pt x="365" y="0" on="1"/>
        <pt x="291" y="0" on="1"/>
      </contour>
    </TTGlyph>
    <TTGlyph name="Wcircumflex" xMin="150" yMin="0" xMax="1082" yMax="927">
      <contour>
        <pt x="480" y="797" on="1"/>
        <pt x="618" y="927" on="1"/>
        <pt x="689" y="927" on="1"/>
        <pt x="772" y="797" on="1"/>
        <pt x="707" y="797" on="1"/>
        <pt x="650" y="880" on="1"/>
        <pt x="560" y="797" on="1"/>
      </contour>
      <contour>
        <pt x="150" y="732" on="1"/>
        <pt x="225" y="732" on="1"/>
        <pt x="342" y="121" on="1"/>
        <pt x="665" y="732" on="1"/>
        <pt x="749" y="732" on="1"/>
        <pt x="619" y="480" on="1"/>
        <pt x="678" y="115" on="1"/>
        <pt x="1001" y="732" on="1"/>
        <pt x="1082" y="732" on="1"/>
        <pt x="697" y="0" on="1"/>
        <pt x="623" y="0" on="1"/>
        <pt x="562" y="374" on="1"/>
        <pt x="365" y="0" on="1"/>
        <pt x="291" y="0" on="1"/>
      </contour>
    </TTGlyph>
    <TTGlyph name="Wdieresis" xMin="150" yMin="0" xMax="1082" yMax="898">
      <contour>
        <pt x="494" y="898" on="0"/>
        <pt x="536" y="898" on="0"/>
        <pt x="558" y="872" on="0"/>
        <pt x="558" y="862" on="1"/>
        <pt x="558" y="830" on="0"/>
        <pt x="521" y="797" on="0"/>
        <pt x="479" y="797" on="0"/>
        <pt x="456" y="824" on="0"/>
        <pt x="456" y="834" on="1"/>
        <pt x="456" y="866" on="0"/>
      </contour>
      <contour>
        <pt x="749" y="898" on="0"/>
        <pt x="791" y="898" on="0"/>
        <pt x="813" y="872" on="0"/>
        <pt x="813" y="862" on="1"/>
        <pt x="813" y="830" on="0"/>
        <pt x="776" y="797" on="0"/>
        <pt x="734" y="797" on="0"/>
        <pt x="711" y="824" on="0"/>
        <pt x="711" y="834" on="1"/>
        <pt x="711" y="866" on="0"/>
      </contour>
      <contour>
        <pt x="150" y="732" on="1"/>
        <pt x="225" y="732" on="1"/>
        <pt x="342" y="121" on="1"/>
        <pt x="665" y="732" on="1"/>
        <pt x="749" y="732" on="1"/>
        <pt x="619" y="480" on="1"/>
        <pt x="678" y="115" on="1"/>
        <pt x="1001" y="732" on="1"/>
        <pt x="1082" y="732" on="1"/>
        <pt x="697" y="0" on="1"/>
        <pt x="623" y="0" on="1"/>
        <pt x="562" y="374" on="1"/>
        <pt x="365" y="0" on="1"/>
        <pt x="291" y="0" on="1"/>
      </contour>
    </TTGlyph>
    <TTGlyph name="Wgrave" xMin="150" yMin="0" xMax="1082" yMax="930">
      <contour>
        <pt x="468" y="930" on="1"/>
        <pt x="555" y="930" on="1"/>
        <pt x="661" y="797" on="1"/>
        <pt x="592" y="797" on="1"/>
      </contour>
      <contour>
        <pt x="150" y="732" on="1"/>
        <pt x="225" y="732" on="1"/>
        <pt x="342" y="121" on="1"/>
        <pt x="665" y="732" on="1"/>
        <pt x="749" y="732" on="1"/>
        <pt x="619" y="480" on="1"/>
        <pt x="678" y="115" on="1"/>
        <pt x="1001" y="732" on="1"/>
        <pt x="1082" y="732" on="1"/>
        <pt x="697" y="0" on="1"/>
        <pt x="623" y="0" on="1"/>
        <pt x="562" y="374" on="1"/>
        <pt x="365" y="0" on="1"/>
        <pt x="291" y="0" on="1"/>
      </contour>
    </TTGlyph>
    <TTGlyph name="X" xMin="38" yMin="0" xMax="681" yMax="732">
      <contour>
        <pt x="38" y="0" on="1"/>
        <pt x="314" y="364" on="1"/>
        <pt x="151" y="732" on="1"/>
        <pt x="229" y="732" on="1"/>
        <pt x="363" y="429" on="1"/>
        <pt x="592" y="732" on="1"/>
        <pt x="681" y="732" on="1"/>
        <pt x="396" y="355" on="1"/>
        <pt x="553" y="0" on="1"/>
        <pt x="475" y="0" on="1"/>
        <pt x="347" y="290" on="1"/>
        <pt x="127" y="0" on="1"/>
      </contour>
    </TTGlyph>
    <TTGlyph name="X.salt" xMin="20" yMin="0" xMax="708" yMax="732">
      <contour>
        <pt x="260" y="457" on="1"/>
        <pt x="136" y="732" on="1"/>
        <pt x="214" y="732" on="1"/>
        <pt x="325" y="487" on="1"/>
        <pt x="354" y="423" on="0"/>
        <pt x="354" y="380" on="1"/>
        <pt x="354" y="324" on="0"/>
        <pt x="324" y="284" on="1"/>
        <pt x="109" y="0" on="1"/>
        <pt x="20" y="0" on="1"/>
        <pt x="246" y="305" on="1"/>
        <pt x="280" y="352" on="0"/>
        <pt x="280" y="418" on="0"/>
      </contour>
      <contour>
        <pt x="375" y="350" on="1"/>
        <pt x="375" y="417" on="0"/>
        <pt x="430" y="487" on="1"/>
        <pt x="619" y="732" on="1"/>
        <pt x="708" y="732" on="1"/>
        <pt x="497" y="457" on="1"/>
        <pt x="461" y="410" on="0"/>
        <pt x="449" y="370" on="0"/>
        <pt x="449" y="361" on="1"/>
        <pt x="449" y="336" on="0"/>
        <pt x="462" y="305" on="1"/>
        <pt x="592" y="0" on="1"/>
        <pt x="514" y="0" on="1"/>
        <pt x="389" y="284" on="1"/>
        <pt x="375" y="317" on="0"/>
      </contour>
    </TTGlyph>
    <TTGlyph name="Y" xMin="150" yMin="0" xMax="710" yMax="732">
      <contour>
        <pt x="150" y="732" on="1"/>
        <pt x="228" y="732" on="1"/>
        <pt x="356" y="351" on="1"/>
        <pt x="622" y="732" on="1"/>
        <pt x="710" y="732" on="1"/>
        <pt x="382" y="260" on="1"/>
        <pt x="341" y="0" on="1"/>
        <pt x="267" y="0" on="1"/>
        <pt x="308" y="260" on="1"/>
      </contour>
    </TTGlyph>
    <TTGlyph name="Yacute" xMin="150" yMin="0" xMax="710" yMax="930">
      <contour>
        <pt x="406" y="797" on="1"/>
        <pt x="534" y="930" on="1"/>
        <pt x="629" y="930" on="1"/>
        <pt x="475" y="797" on="1"/>
      </contour>
      <contour>
        <pt x="150" y="732" on="1"/>
        <pt x="228" y="732" on="1"/>
        <pt x="356" y="351" on="1"/>
        <pt x="622" y="732" on="1"/>
        <pt x="710" y="732" on="1"/>
        <pt x="382" y="260" on="1"/>
        <pt x="341" y="0" on="1"/>
        <pt x="267" y="0" on="1"/>
        <pt x="308" y="260" on="1"/>
      </contour>
    </TTGlyph>
    <TTGlyph name="Ycircumflex" xMin="150" yMin="0" xMax="710" yMax="927">
      <contour>
        <pt x="294" y="797" on="1"/>
        <pt x="432" y="927" on="1"/>
        <pt x="503" y="927" on="1"/>
        <pt x="586" y="797" on="1"/>
        <pt x="521" y="797" on="1"/>
        <pt x="464" y="880" on="1"/>
        <pt x="374" y="797" on="1"/>
      </contour>
      <contour>
        <pt x="150" y="732" on="1"/>
        <pt x="228" y="732" on="1"/>
        <pt x="356" y="351" on="1"/>
        <pt x="622" y="732" on="1"/>
        <pt x="710" y="732" on="1"/>
        <pt x="382" y="260" on="1"/>
        <pt x="341" y="0" on="1"/>
        <pt x="267" y="0" on="1"/>
        <pt x="308" y="260" on="1"/>
      </contour>
    </TTGlyph>
    <TTGlyph name="Ydieresis" xMin="107" yMin="0" xMax="667" yMax="893">
      <contour>
        <pt x="265" y="893" on="0"/>
        <pt x="307" y="893" on="0"/>
        <pt x="329" y="867" on="0"/>
        <pt x="329" y="857" on="1"/>
        <pt x="329" y="825" on="0"/>
        <pt x="291" y="792" on="0"/>
        <pt x="249" y="792" on="0"/>
        <pt x="226" y="819" on="0"/>
        <pt x="226" y="829" on="1"/>
        <pt x="226" y="861" on="0"/>
      </contour>
      <contour>
        <pt x="520" y="893" on="0"/>
        <pt x="562" y="893" on="0"/>
        <pt x="584" y="867" on="0"/>
        <pt x="584" y="857" on="1"/>
        <pt x="584" y="825" on="0"/>
        <pt x="546" y="792" on="0"/>
        <pt x="504" y="792" on="0"/>
        <pt x="481" y="819" on="0"/>
        <pt x="481" y="829" on="1"/>
        <pt x="481" y="861" on="0"/>
      </contour>
      <contour>
        <pt x="107" y="732" on="1"/>
        <pt x="185" y="732" on="1"/>
        <pt x="313" y="351" on="1"/>
        <pt x="579" y="732" on="1"/>
        <pt x="667" y="732" on="1"/>
        <pt x="339" y="260" on="1"/>
        <pt x="298" y="0" on="1"/>
        <pt x="224" y="0" on="1"/>
        <pt x="265" y="260" on="1"/>
      </contour>
    </TTGlyph>
    <TTGlyph name="Ygrave" xMin="150" yMin="0" xMax="710" yMax="930">
      <contour>
        <pt x="282" y="930" on="1"/>
        <pt x="369" y="930" on="1"/>
        <pt x="475" y="797" on="1"/>
        <pt x="406" y="797" on="1"/>
      </contour>
      <contour>
        <pt x="150" y="732" on="1"/>
        <pt x="228" y="732" on="1"/>
        <pt x="356" y="351" on="1"/>
        <pt x="622" y="732" on="1"/>
        <pt x="710" y="732" on="1"/>
        <pt x="382" y="260" on="1"/>
        <pt x="341" y="0" on="1"/>
        <pt x="267" y="0" on="1"/>
        <pt x="308" y="260" on="1"/>
      </contour>
    </TTGlyph>
    <TTGlyph name="Z" xMin="35" yMin="0" xMax="644" yMax="732">
      <contour>
        <pt x="35" y="0" on="1"/>
        <pt x="47" y="74" on="1"/>
        <pt x="535" y="658" on="1"/>
        <pt x="139" y="658" on="1"/>
        <pt x="151" y="732" on="1"/>
        <pt x="644" y="732" on="1"/>
        <pt x="632" y="658" on="1"/>
        <pt x="144" y="74" on="1"/>
        <pt x="540" y="74" on="1"/>
        <pt x="528" y="0" on="1"/>
      </contour>
    </TTGlyph>
    <TTGlyph name="Zacute" xMin="139" yMin="0" xMax="748" yMax="925">
      <contour>
        <pt x="476" y="792" on="1"/>
        <pt x="604" y="925" on="1"/>
        <pt x="699" y="925" on="1"/>
        <pt x="545" y="792" on="1"/>
      </contour>
      <contour>
        <pt x="139" y="0" on="1"/>
        <pt x="151" y="74" on="1"/>
        <pt x="639" y="658" on="1"/>
        <pt x="243" y="658" on="1"/>
        <pt x="255" y="732" on="1"/>
        <pt x="748" y="732" on="1"/>
        <pt x="736" y="658" on="1"/>
        <pt x="248" y="74" on="1"/>
        <pt x="644" y="74" on="1"/>
        <pt x="632" y="0" on="1"/>
      </contour>
    </TTGlyph>
    <TTGlyph name="Zcaron" xMin="35" yMin="0" xMax="644" yMax="927">
      <contour>
        <pt x="283" y="927" on="1"/>
        <pt x="348" y="927" on="1"/>
        <pt x="405" y="844" on="1"/>
        <pt x="495" y="927" on="1"/>
        <pt x="575" y="927" on="1"/>
        <pt x="437" y="797" on="1"/>
        <pt x="366" y="797" on="1"/>
      </contour>
      <contour>
        <pt x="35" y="0" on="1"/>
        <pt x="47" y="74" on="1"/>
        <pt x="535" y="658" on="1"/>
        <pt x="139" y="658" on="1"/>
        <pt x="151" y="732" on="1"/>
        <pt x="644" y="732" on="1"/>
        <pt x="632" y="658" on="1"/>
        <pt x="144" y="74" on="1"/>
        <pt x="540" y="74" on="1"/>
        <pt x="528" y="0" on="1"/>
      </contour>
    </TTGlyph>
    <TTGlyph name="Zdotaccent" xMin="35" yMin="0" xMax="644" yMax="899">
      <contour>
        <pt x="400" y="899" on="1"/>
        <pt x="450" y="899" on="1"/>
        <pt x="472" y="899" on="0"/>
        <pt x="469" y="874" on="1"/>
        <pt x="460" y="820" on="1"/>
        <pt x="457" y="797" on="0"/>
        <pt x="434" y="797" on="1"/>
        <pt x="384" y="797" on="1"/>
        <pt x="373" y="797" on="0"/>
        <pt x="361" y="810" on="0"/>
        <pt x="363" y="820" on="1"/>
        <pt x="372" y="874" on="1"/>
        <pt x="375" y="899" on="0"/>
      </contour>
      <contour>
        <pt x="35" y="0" on="1"/>
        <pt x="47" y="74" on="1"/>
        <pt x="535" y="658" on="1"/>
        <pt x="139" y="658" on="1"/>
        <pt x="151" y="732" on="1"/>
        <pt x="644" y="732" on="1"/>
        <pt x="632" y="658" on="1"/>
        <pt x="144" y="74" on="1"/>
        <pt x="540" y="74" on="1"/>
        <pt x="528" y="0" on="1"/>
      </contour>
    </TTGlyph>
    <TTGlyph name="a" xMin="78" yMin="-7" xMax="563" yMax="543">
      <contour>
        <pt x="214" y="514" on="0"/>
        <pt x="270" y="537" on="0"/>
        <pt x="323" y="543" on="0"/>
        <pt x="387" y="543" on="0"/>
        <pt x="527" y="513" on="0"/>
        <pt x="563" y="479" on="1"/>
        <pt x="493" y="0" on="1"/>
        <pt x="440" y="0" on="1"/>
        <pt x="429" y="60" on="1"/>
        <pt x="327" y="-7" on="0"/>
        <pt x="243" y="-7" on="1"/>
        <pt x="142" y="-7" on="0"/>
        <pt x="108" y="45" on="1"/>
        <pt x="79" y="91" on="0"/>
        <pt x="79" y="164" on="1"/>
        <pt x="79" y="212" on="0"/>
        <pt x="103" y="355" on="0"/>
        <pt x="150" y="462" on="0"/>
      </contour>
      <contour>
        <pt x="196" y="385" on="0"/>
        <pt x="170" y="306" on="0"/>
        <pt x="154" y="204" on="0"/>
        <pt x="154" y="130" on="0"/>
        <pt x="164" y="108" on="1"/>
        <pt x="183" y="67" on="0"/>
        <pt x="295" y="67" on="0"/>
        <pt x="373" y="89" on="0"/>
        <pt x="434" y="115" on="1"/>
        <pt x="486" y="452" on="1"/>
        <pt x="412" y="472" on="0"/>
        <pt x="334" y="472" on="0"/>
        <pt x="289" y="463" on="0"/>
        <pt x="262" y="455" on="0"/>
        <pt x="221" y="428" on="0"/>
      </contour>
    </TTGlyph>
    <TTGlyph name="a.salt" xMin="82" yMin="-7" xMax="558" yMax="534">
      <contour>
        <pt x="340" y="534" on="1"/>
        <pt x="427" y="534" on="0"/>
        <pt x="536" y="494" on="1"/>
        <pt x="555" y="487" on="0"/>
        <pt x="558" y="486" on="1"/>
        <pt x="497" y="10" on="1"/>
        <pt x="242" y="-7" on="1"/>
        <pt x="198" y="-7" on="0"/>
        <pt x="136" y="17" on="0"/>
        <pt x="112" y="48" on="1"/>
        <pt x="83" y="87" on="0"/>
        <pt x="83" y="167" on="1"/>
        <pt x="83" y="212" on="0"/>
        <pt x="90" y="272" on="1"/>
        <pt x="109" y="420" on="0"/>
        <pt x="220" y="534" on="0"/>
      </contour>
      <contour>
        <pt x="164" y="261" on="1"/>
        <pt x="158" y="212" on="0"/>
        <pt x="158" y="132" on="0"/>
        <pt x="168" y="109" on="1"/>
        <pt x="185" y="68" on="0"/>
        <pt x="242" y="68" on="1"/>
        <pt x="432" y="74" on="1"/>
        <pt x="481" y="442" on="1"/>
        <pt x="373" y="464" on="0"/>
        <pt x="332" y="464" on="1"/>
        <pt x="251" y="464" on="0"/>
        <pt x="179" y="382" on="0"/>
      </contour>
    </TTGlyph>
    <TTGlyph name="a.smcp" xMin="35" yMin="0" xMax="556" yMax="570">
      <contour>
        <pt x="35" y="0" on="1"/>
        <pt x="358" y="570" on="1"/>
        <pt x="432" y="570" on="1"/>
        <pt x="556" y="0" on="1"/>
        <pt x="480" y="0" on="1"/>
        <pt x="444" y="152" on="1"/>
        <pt x="204" y="152" on="1"/>
        <pt x="122" y="0" on="1"/>
      </contour>
      <contour>
        <pt x="246" y="226" on="1"/>
        <pt x="431" y="226" on="1"/>
        <pt x="380" y="469" on="1"/>
      </contour>
    </TTGlyph>
    <TTGlyph name="a.superior" xMin="110" yMin="364" xMax="459" yMax="736">
      <contour>
        <pt x="261" y="735" on="1"/>
        <pt x="271" y="736" on="0"/>
        <pt x="320" y="736" on="0"/>
        <pt x="436" y="714" on="0"/>
        <pt x="459" y="691" on="1"/>
        <pt x="411" y="369" on="1"/>
        <pt x="375" y="369" on="1"/>
        <pt x="361" y="423" on="1"/>
        <pt x="340" y="403" on="0"/>
        <pt x="259" y="364" on="0"/>
        <pt x="218" y="364" on="1"/>
        <pt x="155" y="364" on="0"/>
        <pt x="128" y="405" on="1"/>
        <pt x="110" y="431" on="0"/>
        <pt x="110" y="514" on="0"/>
        <pt x="116" y="553" on="1"/>
        <pt x="142" y="726" on="0"/>
      </contour>
      <contour>
        <pt x="170" y="514" on="0"/>
        <pt x="170" y="466" on="0"/>
        <pt x="175" y="452" on="1"/>
        <pt x="185" y="425" on="0"/>
        <pt x="221" y="425" on="1"/>
        <pt x="275" y="425" on="0"/>
        <pt x="365" y="470" on="1"/>
        <pt x="396" y="665" on="1"/>
        <pt x="345" y="678" on="0"/>
        <pt x="284" y="678" on="0"/>
        <pt x="269" y="677" on="1"/>
        <pt x="192" y="669" on="0"/>
        <pt x="175" y="549" on="1"/>
      </contour>
    </TTGlyph>
    <TTGlyph name="aacute" xMin="78" yMin="-7" xMax="563" yMax="736">
      <contour>
        <pt x="336" y="603" on="1"/>
        <pt x="464" y="736" on="1"/>
        <pt x="559" y="736" on="1"/>
        <pt x="405" y="603" on="1"/>
      </contour>
      <contour>
        <pt x="214" y="514" on="0"/>
        <pt x="270" y="537" on="0"/>
        <pt x="323" y="543" on="0"/>
        <pt x="387" y="543" on="0"/>
        <pt x="527" y="513" on="0"/>
        <pt x="563" y="479" on="1"/>
        <pt x="493" y="0" on="1"/>
        <pt x="440" y="0" on="1"/>
        <pt x="429" y="60" on="1"/>
        <pt x="327" y="-7" on="0"/>
        <pt x="243" y="-7" on="1"/>
        <pt x="142" y="-7" on="0"/>
        <pt x="108" y="45" on="1"/>
        <pt x="79" y="91" on="0"/>
        <pt x="79" y="164" on="1"/>
        <pt x="79" y="212" on="0"/>
        <pt x="103" y="355" on="0"/>
        <pt x="150" y="462" on="0"/>
      </contour>
      <contour>
        <pt x="196" y="385" on="0"/>
        <pt x="170" y="306" on="0"/>
        <pt x="154" y="204" on="0"/>
        <pt x="154" y="130" on="0"/>
        <pt x="164" y="108" on="1"/>
        <pt x="183" y="67" on="0"/>
        <pt x="295" y="67" on="0"/>
        <pt x="373" y="89" on="0"/>
        <pt x="434" y="115" on="1"/>
        <pt x="486" y="452" on="1"/>
        <pt x="412" y="472" on="0"/>
        <pt x="334" y="472" on="0"/>
        <pt x="289" y="463" on="0"/>
        <pt x="262" y="455" on="0"/>
        <pt x="221" y="428" on="0"/>
      </contour>
    </TTGlyph>
    <TTGlyph name="aacute.salt" xMin="82" yMin="-7" xMax="558" yMax="734">
      <contour>
        <pt x="323" y="601" on="1"/>
        <pt x="451" y="734" on="1"/>
        <pt x="546" y="734" on="1"/>
        <pt x="392" y="601" on="1"/>
      </contour>
      <contour>
        <pt x="340" y="534" on="1"/>
        <pt x="427" y="534" on="0"/>
        <pt x="536" y="494" on="1"/>
        <pt x="555" y="487" on="0"/>
        <pt x="558" y="486" on="1"/>
        <pt x="497" y="10" on="1"/>
        <pt x="242" y="-7" on="1"/>
        <pt x="198" y="-7" on="0"/>
        <pt x="136" y="17" on="0"/>
        <pt x="112" y="48" on="1"/>
        <pt x="83" y="87" on="0"/>
        <pt x="83" y="167" on="1"/>
        <pt x="83" y="212" on="0"/>
        <pt x="90" y="272" on="1"/>
        <pt x="109" y="420" on="0"/>
        <pt x="220" y="534" on="0"/>
      </contour>
      <contour>
        <pt x="164" y="261" on="1"/>
        <pt x="158" y="212" on="0"/>
        <pt x="158" y="132" on="0"/>
        <pt x="168" y="109" on="1"/>
        <pt x="185" y="68" on="0"/>
        <pt x="242" y="68" on="1"/>
        <pt x="432" y="74" on="1"/>
        <pt x="481" y="442" on="1"/>
        <pt x="373" y="464" on="0"/>
        <pt x="332" y="464" on="1"/>
        <pt x="251" y="464" on="0"/>
        <pt x="179" y="382" on="0"/>
      </contour>
    </TTGlyph>
    <TTGlyph name="aacute.smcp" xMin="35" yMin="0" xMax="594" yMax="763">
      <contour>
        <pt x="370" y="630" on="1"/>
        <pt x="498" y="763" on="1"/>
        <pt x="593" y="763" on="1"/>
        <pt x="439" y="630" on="1"/>
      </contour>
      <contour>
        <pt x="35" y="0" on="1"/>
        <pt x="358" y="570" on="1"/>
        <pt x="432" y="570" on="1"/>
        <pt x="556" y="0" on="1"/>
        <pt x="480" y="0" on="1"/>
        <pt x="444" y="152" on="1"/>
        <pt x="204" y="152" on="1"/>
        <pt x="122" y="0" on="1"/>
      </contour>
      <contour>
        <pt x="246" y="226" on="1"/>
        <pt x="431" y="226" on="1"/>
        <pt x="380" y="469" on="1"/>
      </contour>
    </TTGlyph>
    <TTGlyph name="abreve" xMin="78" yMin="-7" xMax="563" yMax="717">
      <contour>
        <pt x="321" y="717" on="1"/>
        <pt x="320" y="711" on="0"/>
        <pt x="320" y="682" on="0"/>
        <pt x="350" y="649" on="0"/>
        <pt x="376" y="649" on="1"/>
        <pt x="377" y="649" on="0"/>
        <pt x="379" y="649" on="1"/>
        <pt x="445" y="649" on="0"/>
        <pt x="456" y="717" on="1"/>
        <pt x="502" y="717" on="1"/>
        <pt x="486" y="603" on="0"/>
        <pt x="376" y="603" on="1"/>
        <pt x="333" y="603" on="0"/>
        <pt x="274" y="661" on="0"/>
        <pt x="274" y="705" on="1"/>
        <pt x="274" y="711" on="0"/>
        <pt x="275" y="717" on="1"/>
      </contour>
      <contour>
        <pt x="214" y="514" on="0"/>
        <pt x="270" y="537" on="0"/>
        <pt x="323" y="543" on="0"/>
        <pt x="387" y="543" on="0"/>
        <pt x="527" y="513" on="0"/>
        <pt x="563" y="479" on="1"/>
        <pt x="493" y="0" on="1"/>
        <pt x="440" y="0" on="1"/>
        <pt x="429" y="60" on="1"/>
        <pt x="327" y="-7" on="0"/>
        <pt x="243" y="-7" on="1"/>
        <pt x="142" y="-7" on="0"/>
        <pt x="108" y="45" on="1"/>
        <pt x="79" y="91" on="0"/>
        <pt x="79" y="164" on="1"/>
        <pt x="79" y="212" on="0"/>
        <pt x="103" y="355" on="0"/>
        <pt x="150" y="462" on="0"/>
      </contour>
      <contour>
        <pt x="196" y="385" on="0"/>
        <pt x="170" y="306" on="0"/>
        <pt x="154" y="204" on="0"/>
        <pt x="154" y="130" on="0"/>
        <pt x="164" y="108" on="1"/>
        <pt x="183" y="67" on="0"/>
        <pt x="295" y="67" on="0"/>
        <pt x="373" y="89" on="0"/>
        <pt x="434" y="115" on="1"/>
        <pt x="486" y="452" on="1"/>
        <pt x="412" y="472" on="0"/>
        <pt x="334" y="472" on="0"/>
        <pt x="289" y="463" on="0"/>
        <pt x="262" y="455" on="0"/>
        <pt x="221" y="428" on="0"/>
      </contour>
    </TTGlyph>
    <TTGlyph name="abreve.salt" xMin="82" yMin="-7" xMax="558" yMax="710">
      <contour>
        <pt x="301" y="710" on="1"/>
        <pt x="300" y="704" on="0"/>
        <pt x="300" y="675" on="0"/>
        <pt x="329" y="642" on="0"/>
        <pt x="356" y="642" on="1"/>
        <pt x="357" y="642" on="0"/>
        <pt x="359" y="642" on="1"/>
        <pt x="425" y="642" on="0"/>
        <pt x="436" y="710" on="1"/>
        <pt x="482" y="710" on="1"/>
        <pt x="466" y="596" on="0"/>
        <pt x="356" y="596" on="1"/>
        <pt x="312" y="596" on="0"/>
        <pt x="254" y="654" on="0"/>
        <pt x="254" y="698" on="1"/>
        <pt x="254" y="704" on="0"/>
        <pt x="255" y="710" on="1"/>
      </contour>
      <contour>
        <pt x="340" y="534" on="1"/>
        <pt x="427" y="534" on="0"/>
        <pt x="536" y="494" on="1"/>
        <pt x="555" y="487" on="0"/>
        <pt x="558" y="486" on="1"/>
        <pt x="497" y="10" on="1"/>
        <pt x="242" y="-7" on="1"/>
        <pt x="198" y="-7" on="0"/>
        <pt x="136" y="17" on="0"/>
        <pt x="112" y="48" on="1"/>
        <pt x="83" y="87" on="0"/>
        <pt x="83" y="167" on="1"/>
        <pt x="83" y="212" on="0"/>
        <pt x="90" y="272" on="1"/>
        <pt x="109" y="420" on="0"/>
        <pt x="220" y="534" on="0"/>
      </contour>
      <contour>
        <pt x="164" y="261" on="1"/>
        <pt x="158" y="212" on="0"/>
        <pt x="158" y="132" on="0"/>
        <pt x="168" y="109" on="1"/>
        <pt x="185" y="68" on="0"/>
        <pt x="242" y="68" on="1"/>
        <pt x="432" y="74" on="1"/>
        <pt x="481" y="442" on="1"/>
        <pt x="373" y="464" on="0"/>
        <pt x="332" y="464" on="1"/>
        <pt x="251" y="464" on="0"/>
        <pt x="179" y="382" on="0"/>
      </contour>
    </TTGlyph>
    <TTGlyph name="abreve.smcp" xMin="35" yMin="0" xMax="556" yMax="744">
      <contour>
        <pt x="345" y="744" on="1"/>
        <pt x="344" y="738" on="0"/>
        <pt x="344" y="709" on="0"/>
        <pt x="374" y="676" on="0"/>
        <pt x="400" y="676" on="1"/>
        <pt x="402" y="676" on="0"/>
        <pt x="403" y="676" on="1"/>
        <pt x="470" y="676" on="0"/>
        <pt x="480" y="744" on="1"/>
        <pt x="526" y="744" on="1"/>
        <pt x="511" y="630" on="0"/>
        <pt x="400" y="630" on="1"/>
        <pt x="357" y="630" on="0"/>
        <pt x="299" y="688" on="0"/>
        <pt x="299" y="732" on="1"/>
        <pt x="299" y="738" on="0"/>
        <pt x="299" y="744" on="1"/>
      </contour>
      <contour>
        <pt x="35" y="0" on="1"/>
        <pt x="358" y="570" on="1"/>
        <pt x="432" y="570" on="1"/>
        <pt x="556" y="0" on="1"/>
        <pt x="480" y="0" on="1"/>
        <pt x="444" y="152" on="1"/>
        <pt x="204" y="152" on="1"/>
        <pt x="122" y="0" on="1"/>
      </contour>
      <contour>
        <pt x="246" y="226" on="1"/>
        <pt x="431" y="226" on="1"/>
        <pt x="380" y="469" on="1"/>
      </contour>
    </TTGlyph>
    <TTGlyph name="acircumflex" xMin="78" yMin="-7" xMax="563" yMax="733">
      <contour>
        <pt x="214" y="603" on="1"/>
        <pt x="352" y="733" on="1"/>
        <pt x="423" y="733" on="1"/>
        <pt x="506" y="603" on="1"/>
        <pt x="441" y="603" on="1"/>
        <pt x="384" y="686" on="1"/>
        <pt x="294" y="603" on="1"/>
      </contour>
      <contour>
        <pt x="214" y="514" on="0"/>
        <pt x="270" y="537" on="0"/>
        <pt x="323" y="543" on="0"/>
        <pt x="387" y="543" on="0"/>
        <pt x="527" y="513" on="0"/>
        <pt x="563" y="479" on="1"/>
        <pt x="493" y="0" on="1"/>
        <pt x="440" y="0" on="1"/>
        <pt x="429" y="60" on="1"/>
        <pt x="327" y="-7" on="0"/>
        <pt x="243" y="-7" on="1"/>
        <pt x="142" y="-7" on="0"/>
        <pt x="108" y="45" on="1"/>
        <pt x="79" y="91" on="0"/>
        <pt x="79" y="164" on="1"/>
        <pt x="79" y="212" on="0"/>
        <pt x="103" y="355" on="0"/>
        <pt x="150" y="462" on="0"/>
      </contour>
      <contour>
        <pt x="196" y="385" on="0"/>
        <pt x="170" y="306" on="0"/>
        <pt x="154" y="204" on="0"/>
        <pt x="154" y="130" on="0"/>
        <pt x="164" y="108" on="1"/>
        <pt x="183" y="67" on="0"/>
        <pt x="295" y="67" on="0"/>
        <pt x="373" y="89" on="0"/>
        <pt x="434" y="115" on="1"/>
        <pt x="486" y="452" on="1"/>
        <pt x="412" y="472" on="0"/>
        <pt x="334" y="472" on="0"/>
        <pt x="289" y="463" on="0"/>
        <pt x="262" y="455" on="0"/>
        <pt x="221" y="428" on="0"/>
      </contour>
    </TTGlyph>
    <TTGlyph name="acircumflex.salt" xMin="82" yMin="-7" xMax="558" yMax="726">
      <contour>
        <pt x="213" y="596" on="1"/>
        <pt x="351" y="726" on="1"/>
        <pt x="422" y="726" on="1"/>
        <pt x="505" y="596" on="1"/>
        <pt x="440" y="596" on="1"/>
        <pt x="383" y="679" on="1"/>
        <pt x="293" y="596" on="1"/>
      </contour>
      <contour>
        <pt x="340" y="534" on="1"/>
        <pt x="427" y="534" on="0"/>
        <pt x="536" y="494" on="1"/>
        <pt x="555" y="487" on="0"/>
        <pt x="558" y="486" on="1"/>
        <pt x="497" y="10" on="1"/>
        <pt x="242" y="-7" on="1"/>
        <pt x="198" y="-7" on="0"/>
        <pt x="136" y="17" on="0"/>
        <pt x="112" y="48" on="1"/>
        <pt x="83" y="87" on="0"/>
        <pt x="83" y="167" on="1"/>
        <pt x="83" y="212" on="0"/>
        <pt x="90" y="272" on="1"/>
        <pt x="109" y="420" on="0"/>
        <pt x="220" y="534" on="0"/>
      </contour>
      <contour>
        <pt x="164" y="261" on="1"/>
        <pt x="158" y="212" on="0"/>
        <pt x="158" y="132" on="0"/>
        <pt x="168" y="109" on="1"/>
        <pt x="185" y="68" on="0"/>
        <pt x="242" y="68" on="1"/>
        <pt x="432" y="74" on="1"/>
        <pt x="481" y="442" on="1"/>
        <pt x="373" y="464" on="0"/>
        <pt x="332" y="464" on="1"/>
        <pt x="251" y="464" on="0"/>
        <pt x="179" y="382" on="0"/>
      </contour>
    </TTGlyph>
    <TTGlyph name="acircumflex.smcp" xMin="35" yMin="0" xMax="556" yMax="760">
      <contour>
        <pt x="259" y="630" on="1"/>
        <pt x="397" y="760" on="1"/>
        <pt x="468" y="760" on="1"/>
        <pt x="551" y="630" on="1"/>
        <pt x="486" y="630" on="1"/>
        <pt x="429" y="713" on="1"/>
        <pt x="339" y="630" on="1"/>
      </contour>
      <contour>
        <pt x="35" y="0" on="1"/>
        <pt x="358" y="570" on="1"/>
        <pt x="432" y="570" on="1"/>
        <pt x="556" y="0" on="1"/>
        <pt x="480" y="0" on="1"/>
        <pt x="444" y="152" on="1"/>
        <pt x="204" y="152" on="1"/>
        <pt x="122" y="0" on="1"/>
      </contour>
      <contour>
        <pt x="246" y="226" on="1"/>
        <pt x="431" y="226" on="1"/>
        <pt x="380" y="469" on="1"/>
      </contour>
    </TTGlyph>
    <TTGlyph name="acute" xMin="104" yMin="531" xMax="327" yMax="664">
      <contour>
        <pt x="104" y="531" on="1"/>
        <pt x="232" y="664" on="1"/>
        <pt x="327" y="664" on="1"/>
        <pt x="173" y="531" on="1"/>
      </contour>
    </TTGlyph>
    <TTGlyph name="acute.smcp" xMin="104" yMin="531" xMax="327" yMax="664">
      <contour>
        <pt x="104" y="531" on="1"/>
        <pt x="232" y="664" on="1"/>
        <pt x="327" y="664" on="1"/>
        <pt x="173" y="531" on="1"/>
      </contour>
    </TTGlyph>
    <TTGlyph name="adieresis" xMin="78" yMin="-7" xMax="563" yMax="704">
      <contour>
        <pt x="193" y="675" on="0"/>
        <pt x="228" y="704" on="0"/>
        <pt x="270" y="704" on="0"/>
        <pt x="292" y="678" on="0"/>
        <pt x="292" y="668" on="1"/>
        <pt x="292" y="636" on="0"/>
        <pt x="254" y="603" on="0"/>
        <pt x="220" y="603" on="0"/>
        <pt x="209" y="610" on="1"/>
        <pt x="186" y="625" on="0"/>
      </contour>
      <contour>
        <pt x="525" y="704" on="0"/>
        <pt x="547" y="678" on="0"/>
        <pt x="547" y="668" on="1"/>
        <pt x="547" y="636" on="0"/>
        <pt x="509" y="603" on="0"/>
        <pt x="475" y="603" on="0"/>
        <pt x="464" y="610" on="1"/>
        <pt x="441" y="625" on="0"/>
        <pt x="445" y="654" on="1"/>
        <pt x="449" y="679" on="0"/>
        <pt x="473" y="694" on="1"/>
        <pt x="487" y="704" on="0"/>
      </contour>
      <contour>
        <pt x="214" y="514" on="0"/>
        <pt x="270" y="537" on="0"/>
        <pt x="323" y="543" on="0"/>
        <pt x="387" y="543" on="0"/>
        <pt x="527" y="513" on="0"/>
        <pt x="563" y="479" on="1"/>
        <pt x="493" y="0" on="1"/>
        <pt x="440" y="0" on="1"/>
        <pt x="429" y="60" on="1"/>
        <pt x="327" y="-7" on="0"/>
        <pt x="243" y="-7" on="1"/>
        <pt x="142" y="-7" on="0"/>
        <pt x="108" y="45" on="1"/>
        <pt x="79" y="91" on="0"/>
        <pt x="79" y="164" on="1"/>
        <pt x="79" y="212" on="0"/>
        <pt x="103" y="355" on="0"/>
        <pt x="150" y="462" on="0"/>
      </contour>
      <contour>
        <pt x="196" y="385" on="0"/>
        <pt x="170" y="306" on="0"/>
        <pt x="154" y="204" on="0"/>
        <pt x="154" y="130" on="0"/>
        <pt x="164" y="108" on="1"/>
        <pt x="183" y="67" on="0"/>
        <pt x="295" y="67" on="0"/>
        <pt x="373" y="89" on="0"/>
        <pt x="434" y="115" on="1"/>
        <pt x="486" y="452" on="1"/>
        <pt x="412" y="472" on="0"/>
        <pt x="334" y="472" on="0"/>
        <pt x="289" y="463" on="0"/>
        <pt x="262" y="455" on="0"/>
        <pt x="221" y="428" on="0"/>
      </contour>
    </TTGlyph>
    <TTGlyph name="adieresis.salt" xMin="82" yMin="-7" xMax="558" yMax="697">
      <contour>
        <pt x="194" y="668" on="0"/>
        <pt x="229" y="697" on="0"/>
        <pt x="271" y="697" on="0"/>
        <pt x="293" y="671" on="0"/>
        <pt x="293" y="661" on="1"/>
        <pt x="293" y="629" on="0"/>
        <pt x="255" y="596" on="0"/>
        <pt x="220" y="596" on="0"/>
        <pt x="210" y="603" on="1"/>
        <pt x="187" y="618" on="0"/>
      </contour>
      <contour>
        <pt x="449" y="668" on="0"/>
        <pt x="484" y="697" on="0"/>
        <pt x="526" y="697" on="0"/>
        <pt x="548" y="671" on="0"/>
        <pt x="548" y="661" on="1"/>
        <pt x="548" y="629" on="0"/>
        <pt x="510" y="596" on="0"/>
        <pt x="475" y="596" on="0"/>
        <pt x="465" y="603" on="1"/>
        <pt x="442" y="618" on="0"/>
      </contour>
      <contour>
        <pt x="340" y="534" on="1"/>
        <pt x="427" y="534" on="0"/>
        <pt x="536" y="494" on="1"/>
        <pt x="555" y="487" on="0"/>
        <pt x="558" y="486" on="1"/>
        <pt x="497" y="10" on="1"/>
        <pt x="242" y="-7" on="1"/>
        <pt x="198" y="-7" on="0"/>
        <pt x="136" y="17" on="0"/>
        <pt x="112" y="48" on="1"/>
        <pt x="83" y="87" on="0"/>
        <pt x="83" y="167" on="1"/>
        <pt x="83" y="212" on="0"/>
        <pt x="90" y="272" on="1"/>
        <pt x="109" y="420" on="0"/>
        <pt x="220" y="534" on="0"/>
      </contour>
      <contour>
        <pt x="164" y="261" on="1"/>
        <pt x="158" y="212" on="0"/>
        <pt x="158" y="132" on="0"/>
        <pt x="168" y="109" on="1"/>
        <pt x="185" y="68" on="0"/>
        <pt x="242" y="68" on="1"/>
        <pt x="432" y="74" on="1"/>
        <pt x="481" y="442" on="1"/>
        <pt x="373" y="464" on="0"/>
        <pt x="332" y="464" on="1"/>
        <pt x="251" y="464" on="0"/>
        <pt x="179" y="382" on="0"/>
      </contour>
    </TTGlyph>
    <TTGlyph name="adieresis.smcp" xMin="35" yMin="0" xMax="592" yMax="731">
      <contour>
        <pt x="238" y="702" on="0"/>
        <pt x="273" y="731" on="0"/>
        <pt x="315" y="731" on="0"/>
        <pt x="336" y="705" on="0"/>
        <pt x="336" y="695" on="1"/>
        <pt x="336" y="663" on="0"/>
        <pt x="299" y="630" on="0"/>
        <pt x="264" y="630" on="0"/>
        <pt x="253" y="637" on="1"/>
        <pt x="231" y="652" on="0"/>
      </contour>
      <contour>
        <pt x="493" y="702" on="0"/>
        <pt x="528" y="731" on="0"/>
        <pt x="570" y="731" on="0"/>
        <pt x="591" y="705" on="0"/>
        <pt x="591" y="695" on="1"/>
        <pt x="591" y="663" on="0"/>
        <pt x="554" y="630" on="0"/>
        <pt x="519" y="630" on="0"/>
        <pt x="508" y="637" on="1"/>
        <pt x="486" y="652" on="0"/>
      </contour>
      <contour>
        <pt x="35" y="0" on="1"/>
        <pt x="358" y="570" on="1"/>
        <pt x="432" y="570" on="1"/>
        <pt x="556" y="0" on="1"/>
        <pt x="480" y="0" on="1"/>
        <pt x="444" y="152" on="1"/>
        <pt x="204" y="152" on="1"/>
        <pt x="122" y="0" on="1"/>
      </contour>
      <contour>
        <pt x="246" y="226" on="1"/>
        <pt x="431" y="226" on="1"/>
        <pt x="380" y="469" on="1"/>
      </contour>
    </TTGlyph>
</ttFont>
